%TF.GenerationSoftware,KiCad,Pcbnew,(5.1.6)-1*%
%TF.CreationDate,2020-08-25T11:16:49-04:00*%
%TF.ProjectId,PCBRuler,50434252-756c-4657-922e-6b696361645f,rev?*%
%TF.SameCoordinates,Original*%
%TF.FileFunction,Paste,Top*%
%TF.FilePolarity,Positive*%
%FSLAX46Y46*%
G04 Gerber Fmt 4.6, Leading zero omitted, Abs format (unit mm)*
G04 Created by KiCad (PCBNEW (5.1.6)-1) date 2020-08-25 11:16:49*
%MOMM*%
%LPD*%
G01*
G04 APERTURE LIST*
%ADD10C,0.300000*%
%ADD11R,1.550000X0.600000*%
%ADD12R,1.000000X0.250000*%
%ADD13R,0.250000X1.000000*%
%ADD14R,2.000000X3.800000*%
%ADD15R,2.000000X1.500000*%
%ADD16R,1.060000X0.650000*%
%ADD17R,0.900000X0.800000*%
%ADD18R,1.300000X1.550000*%
G04 APERTURE END LIST*
D10*
%TO.C,UFBGA-201*%
X244250000Y-131050000D03*
X243600000Y-131050000D03*
X242950000Y-131050000D03*
X242300000Y-131050000D03*
X241650000Y-131050000D03*
X241000000Y-131050000D03*
X240350000Y-131050000D03*
X239700000Y-131050000D03*
X239050000Y-131050000D03*
X238400000Y-131050000D03*
X237750000Y-131050000D03*
X237100000Y-131050000D03*
X236450000Y-131050000D03*
X235800000Y-131050000D03*
X235150000Y-131050000D03*
X244250000Y-130400000D03*
X243600000Y-130400000D03*
X242950000Y-130400000D03*
X242300000Y-130400000D03*
X241650000Y-130400000D03*
X241000000Y-130400000D03*
X240350000Y-130400000D03*
X239700000Y-130400000D03*
X239050000Y-130400000D03*
X238400000Y-130400000D03*
X237750000Y-130400000D03*
X237100000Y-130400000D03*
X236450000Y-130400000D03*
X235800000Y-130400000D03*
X235150000Y-130400000D03*
X244250000Y-129750000D03*
X243600000Y-129750000D03*
X242950000Y-129750000D03*
X242300000Y-129750000D03*
X241650000Y-129750000D03*
X241000000Y-129750000D03*
X240350000Y-129750000D03*
X239700000Y-129750000D03*
X239050000Y-129750000D03*
X238400000Y-129750000D03*
X237750000Y-129750000D03*
X237100000Y-129750000D03*
X236450000Y-129750000D03*
X235800000Y-129750000D03*
X235150000Y-129750000D03*
X244250000Y-129100000D03*
X243600000Y-129100000D03*
X242950000Y-129100000D03*
X242300000Y-129100000D03*
X241650000Y-129100000D03*
X241000000Y-129100000D03*
X240350000Y-129100000D03*
X239700000Y-129100000D03*
X239050000Y-129100000D03*
X238400000Y-129100000D03*
X237750000Y-129100000D03*
X237100000Y-129100000D03*
X236450000Y-129100000D03*
X235800000Y-129100000D03*
X235150000Y-129100000D03*
X244250000Y-128450000D03*
X243600000Y-128450000D03*
X242950000Y-128450000D03*
X242300000Y-128450000D03*
X237100000Y-128450000D03*
X236450000Y-128450000D03*
X235800000Y-128450000D03*
X235150000Y-128450000D03*
X244250000Y-127800000D03*
X243600000Y-127800000D03*
X242950000Y-127800000D03*
X242300000Y-127800000D03*
X241000000Y-127800000D03*
X240350000Y-127800000D03*
X239700000Y-127800000D03*
X239050000Y-127800000D03*
X238400000Y-127800000D03*
X237100000Y-127800000D03*
X236450000Y-127800000D03*
X235800000Y-127800000D03*
X235150000Y-127800000D03*
X244250000Y-127150000D03*
X243600000Y-127150000D03*
X242950000Y-127150000D03*
X242300000Y-127150000D03*
X241000000Y-127150000D03*
X240350000Y-127150000D03*
X239700000Y-127150000D03*
X239050000Y-127150000D03*
X238400000Y-127150000D03*
X237100000Y-127150000D03*
X236450000Y-127150000D03*
X235800000Y-127150000D03*
X235150000Y-127150000D03*
X244250000Y-126500000D03*
X243600000Y-126500000D03*
X242950000Y-126500000D03*
X242300000Y-126500000D03*
X241000000Y-126500000D03*
X240350000Y-126500000D03*
X239700000Y-126500000D03*
X239050000Y-126500000D03*
X238400000Y-126500000D03*
X237100000Y-126500000D03*
X236450000Y-126500000D03*
X235800000Y-126500000D03*
X235150000Y-126500000D03*
X244250000Y-125850000D03*
X243600000Y-125850000D03*
X242950000Y-125850000D03*
X242300000Y-125850000D03*
X241000000Y-125850000D03*
X240350000Y-125850000D03*
X239700000Y-125850000D03*
X239050000Y-125850000D03*
X238400000Y-125850000D03*
X237100000Y-125850000D03*
X236450000Y-125850000D03*
X235800000Y-125850000D03*
X235150000Y-125850000D03*
X244250000Y-125200000D03*
X243600000Y-125200000D03*
X242950000Y-125200000D03*
X242300000Y-125200000D03*
X241000000Y-125200000D03*
X240350000Y-125200000D03*
X239700000Y-125200000D03*
X239050000Y-125200000D03*
X238400000Y-125200000D03*
X237100000Y-125200000D03*
X236450000Y-125200000D03*
X235800000Y-125200000D03*
X235150000Y-125200000D03*
X244250000Y-124550000D03*
X243600000Y-124550000D03*
X242950000Y-124550000D03*
X242300000Y-124550000D03*
X237100000Y-124550000D03*
X236450000Y-124550000D03*
X235800000Y-124550000D03*
X235150000Y-124550000D03*
X244250000Y-123900000D03*
X243600000Y-123900000D03*
X242950000Y-123900000D03*
X242300000Y-123900000D03*
X241650000Y-123900000D03*
X241000000Y-123900000D03*
X240350000Y-123900000D03*
X239700000Y-123900000D03*
X239050000Y-123900000D03*
X238400000Y-123900000D03*
X237750000Y-123900000D03*
X237100000Y-123900000D03*
X236450000Y-123900000D03*
X235800000Y-123900000D03*
X235150000Y-123900000D03*
X244250000Y-123250000D03*
X243600000Y-123250000D03*
X242950000Y-123250000D03*
X242300000Y-123250000D03*
X241650000Y-123250000D03*
X241000000Y-123250000D03*
X240350000Y-123250000D03*
X239700000Y-123250000D03*
X239050000Y-123250000D03*
X238400000Y-123250000D03*
X237750000Y-123250000D03*
X237100000Y-123250000D03*
X236450000Y-123250000D03*
X235800000Y-123250000D03*
X235150000Y-123250000D03*
X244250000Y-122600000D03*
X243600000Y-122600000D03*
X242950000Y-122600000D03*
X242300000Y-122600000D03*
X241650000Y-122600000D03*
X241000000Y-122600000D03*
X240350000Y-122600000D03*
X239700000Y-122600000D03*
X239050000Y-122600000D03*
X238400000Y-122600000D03*
X237750000Y-122600000D03*
X237100000Y-122600000D03*
X236450000Y-122600000D03*
X235800000Y-122600000D03*
X235150000Y-122600000D03*
X244250000Y-121950000D03*
X243600000Y-121950000D03*
X242950000Y-121950000D03*
X242300000Y-121950000D03*
X241650000Y-121950000D03*
X241000000Y-121950000D03*
X240350000Y-121950000D03*
X239700000Y-121950000D03*
X239050000Y-121950000D03*
X238400000Y-121950000D03*
X237750000Y-121950000D03*
X237100000Y-121950000D03*
X236450000Y-121950000D03*
X235800000Y-121950000D03*
X235150000Y-121950000D03*
%TD*%
D11*
%TO.C,SOIC-8*%
X228000000Y-124195000D03*
X228000000Y-125465000D03*
X228000000Y-126735000D03*
X228000000Y-128005000D03*
X222600000Y-128005000D03*
X222600000Y-126735000D03*
X222600000Y-125465000D03*
X222600000Y-124195000D03*
%TD*%
D12*
%TO.C,QFP-64*%
X253300000Y-122550000D03*
X253300000Y-123050000D03*
X253300000Y-123550000D03*
X253300000Y-124050000D03*
X253300000Y-124550000D03*
X253300000Y-125050000D03*
X253300000Y-125550000D03*
X253300000Y-126050000D03*
X253300000Y-126550000D03*
X253300000Y-127050000D03*
X253300000Y-127550000D03*
X253300000Y-128050000D03*
X253300000Y-128550000D03*
X253300000Y-129050000D03*
X253300000Y-129550000D03*
X253300000Y-130050000D03*
D13*
X255250000Y-132000000D03*
X255750000Y-132000000D03*
X256250000Y-132000000D03*
X256750000Y-132000000D03*
X257250000Y-132000000D03*
X257750000Y-132000000D03*
X258250000Y-132000000D03*
X258750000Y-132000000D03*
X259250000Y-132000000D03*
X259750000Y-132000000D03*
X260250000Y-132000000D03*
X260750000Y-132000000D03*
X261250000Y-132000000D03*
X261750000Y-132000000D03*
X262250000Y-132000000D03*
X262750000Y-132000000D03*
D12*
X264700000Y-130050000D03*
X264700000Y-129550000D03*
X264700000Y-129050000D03*
X264700000Y-128550000D03*
X264700000Y-128050000D03*
X264700000Y-127550000D03*
X264700000Y-127050000D03*
X264700000Y-126550000D03*
X264700000Y-126050000D03*
X264700000Y-125550000D03*
X264700000Y-125050000D03*
X264700000Y-124550000D03*
X264700000Y-124050000D03*
X264700000Y-123550000D03*
X264700000Y-123050000D03*
X264700000Y-122550000D03*
D13*
X262750000Y-120600000D03*
X262250000Y-120600000D03*
X261750000Y-120600000D03*
X261250000Y-120600000D03*
X260750000Y-120600000D03*
X260250000Y-120600000D03*
X259750000Y-120600000D03*
X259250000Y-120600000D03*
X258750000Y-120600000D03*
X258250000Y-120600000D03*
X257750000Y-120600000D03*
X257250000Y-120600000D03*
X256750000Y-120600000D03*
X256250000Y-120600000D03*
X255750000Y-120600000D03*
X255250000Y-120600000D03*
%TD*%
D14*
%TO.C,SOT-223*%
X208250000Y-125900000D03*
D15*
X214550000Y-125900000D03*
X214550000Y-123600000D03*
X214550000Y-128200000D03*
%TD*%
D16*
%TO.C,SOT-23-5*%
X193210000Y-127320000D03*
X193210000Y-128270000D03*
X193210000Y-129220000D03*
X195410000Y-129220000D03*
X195410000Y-127320000D03*
%TD*%
D17*
%TO.C,SOT-23*%
X195110000Y-123190000D03*
X193110000Y-124140000D03*
X193110000Y-122240000D03*
%TD*%
D18*
%TO.C,6mm*%
X188940000Y-121750000D03*
X184440000Y-121750000D03*
X184440000Y-129710000D03*
X188940000Y-129710000D03*
%TD*%
%TO.C,1206*%
G36*
G01*
X159502000Y-126317000D02*
X158252000Y-126317000D01*
G75*
G02*
X158002000Y-126067000I0J250000D01*
G01*
X158002000Y-125142000D01*
G75*
G02*
X158252000Y-124892000I250000J0D01*
G01*
X159502000Y-124892000D01*
G75*
G02*
X159752000Y-125142000I0J-250000D01*
G01*
X159752000Y-126067000D01*
G75*
G02*
X159502000Y-126317000I-250000J0D01*
G01*
G37*
G36*
G01*
X159502000Y-129292000D02*
X158252000Y-129292000D01*
G75*
G02*
X158002000Y-129042000I0J250000D01*
G01*
X158002000Y-128117000D01*
G75*
G02*
X158252000Y-127867000I250000J0D01*
G01*
X159502000Y-127867000D01*
G75*
G02*
X159752000Y-128117000I0J-250000D01*
G01*
X159752000Y-129042000D01*
G75*
G02*
X159502000Y-129292000I-250000J0D01*
G01*
G37*
%TD*%
%TO.C,0805*%
G36*
G01*
X156451667Y-126042000D02*
X155551665Y-126042000D01*
G75*
G02*
X155301666Y-125792001I0J249999D01*
G01*
X155301666Y-125141999D01*
G75*
G02*
X155551665Y-124892000I249999J0D01*
G01*
X156451667Y-124892000D01*
G75*
G02*
X156701666Y-125141999I0J-249999D01*
G01*
X156701666Y-125792001D01*
G75*
G02*
X156451667Y-126042000I-249999J0D01*
G01*
G37*
G36*
G01*
X156451667Y-128092000D02*
X155551665Y-128092000D01*
G75*
G02*
X155301666Y-127842001I0J249999D01*
G01*
X155301666Y-127191999D01*
G75*
G02*
X155551665Y-126942000I249999J0D01*
G01*
X156451667Y-126942000D01*
G75*
G02*
X156701666Y-127191999I0J-249999D01*
G01*
X156701666Y-127842001D01*
G75*
G02*
X156451667Y-128092000I-249999J0D01*
G01*
G37*
%TD*%
%TO.C,0402*%
G36*
G01*
X151683500Y-125382000D02*
X151338500Y-125382000D01*
G75*
G02*
X151191000Y-125234500I0J147500D01*
G01*
X151191000Y-124939500D01*
G75*
G02*
X151338500Y-124792000I147500J0D01*
G01*
X151683500Y-124792000D01*
G75*
G02*
X151831000Y-124939500I0J-147500D01*
G01*
X151831000Y-125234500D01*
G75*
G02*
X151683500Y-125382000I-147500J0D01*
G01*
G37*
G36*
G01*
X151683500Y-126352000D02*
X151338500Y-126352000D01*
G75*
G02*
X151191000Y-126204500I0J147500D01*
G01*
X151191000Y-125909500D01*
G75*
G02*
X151338500Y-125762000I147500J0D01*
G01*
X151683500Y-125762000D01*
G75*
G02*
X151831000Y-125909500I0J-147500D01*
G01*
X151831000Y-126204500D01*
G75*
G02*
X151683500Y-126352000I-147500J0D01*
G01*
G37*
%TD*%
%TO.C,0603*%
G36*
G01*
X153753833Y-125942000D02*
X153278833Y-125942000D01*
G75*
G02*
X153041333Y-125704500I0J237500D01*
G01*
X153041333Y-125129500D01*
G75*
G02*
X153278833Y-124892000I237500J0D01*
G01*
X153753833Y-124892000D01*
G75*
G02*
X153991333Y-125129500I0J-237500D01*
G01*
X153991333Y-125704500D01*
G75*
G02*
X153753833Y-125942000I-237500J0D01*
G01*
G37*
G36*
G01*
X153753833Y-127692000D02*
X153278833Y-127692000D01*
G75*
G02*
X153041333Y-127454500I0J237500D01*
G01*
X153041333Y-126879500D01*
G75*
G02*
X153278833Y-126642000I237500J0D01*
G01*
X153753833Y-126642000D01*
G75*
G02*
X153991333Y-126879500I0J-237500D01*
G01*
X153991333Y-127454500D01*
G75*
G02*
X153753833Y-127692000I-237500J0D01*
G01*
G37*
%TD*%
M02*
