%TF.GenerationSoftware,KiCad,Pcbnew,(5.1.6)-1*%
%TF.CreationDate,2020-08-25T13:24:47-04:00*%
%TF.ProjectId,PCBRuler,50434252-756c-4657-922e-6b696361645f,rev?*%
%TF.SameCoordinates,Original*%
%TF.FileFunction,Legend,Top*%
%TF.FilePolarity,Positive*%
%FSLAX46Y46*%
G04 Gerber Fmt 4.6, Leading zero omitted, Abs format (unit mm)*
G04 Created by KiCad (PCBNEW (5.1.6)-1) date 2020-08-25 13:24:47*
%MOMM*%
%LPD*%
G01*
G04 APERTURE LIST*
%ADD10C,0.150000*%
%ADD11C,0.120000*%
%ADD12C,0.010000*%
G04 APERTURE END LIST*
D10*
X235929047Y-135092380D02*
X235929047Y-134092380D01*
X236310000Y-134092380D01*
X236405238Y-134140000D01*
X236452857Y-134187619D01*
X236500476Y-134282857D01*
X236500476Y-134425714D01*
X236452857Y-134520952D01*
X236405238Y-134568571D01*
X236310000Y-134616190D01*
X235929047Y-134616190D01*
X236929047Y-134568571D02*
X237690952Y-134568571D01*
X237690952Y-134854285D02*
X236929047Y-134854285D01*
X238357619Y-134092380D02*
X238452857Y-134092380D01*
X238548095Y-134140000D01*
X238595714Y-134187619D01*
X238643333Y-134282857D01*
X238690952Y-134473333D01*
X238690952Y-134711428D01*
X238643333Y-134901904D01*
X238595714Y-134997142D01*
X238548095Y-135044761D01*
X238452857Y-135092380D01*
X238357619Y-135092380D01*
X238262380Y-135044761D01*
X238214761Y-134997142D01*
X238167142Y-134901904D01*
X238119523Y-134711428D01*
X238119523Y-134473333D01*
X238167142Y-134282857D01*
X238214761Y-134187619D01*
X238262380Y-134140000D01*
X238357619Y-134092380D01*
X239119523Y-134997142D02*
X239167142Y-135044761D01*
X239119523Y-135092380D01*
X239071904Y-135044761D01*
X239119523Y-134997142D01*
X239119523Y-135092380D01*
X240024285Y-134092380D02*
X239833809Y-134092380D01*
X239738571Y-134140000D01*
X239690952Y-134187619D01*
X239595714Y-134330476D01*
X239548095Y-134520952D01*
X239548095Y-134901904D01*
X239595714Y-134997142D01*
X239643333Y-135044761D01*
X239738571Y-135092380D01*
X239929047Y-135092380D01*
X240024285Y-135044761D01*
X240071904Y-134997142D01*
X240119523Y-134901904D01*
X240119523Y-134663809D01*
X240071904Y-134568571D01*
X240024285Y-134520952D01*
X239929047Y-134473333D01*
X239738571Y-134473333D01*
X239643333Y-134520952D01*
X239595714Y-134568571D01*
X239548095Y-134663809D01*
X241024285Y-134092380D02*
X240548095Y-134092380D01*
X240500476Y-134568571D01*
X240548095Y-134520952D01*
X240643333Y-134473333D01*
X240881428Y-134473333D01*
X240976666Y-134520952D01*
X241024285Y-134568571D01*
X241071904Y-134663809D01*
X241071904Y-134901904D01*
X241024285Y-134997142D01*
X240976666Y-135044761D01*
X240881428Y-135092380D01*
X240643333Y-135092380D01*
X240548095Y-135044761D01*
X240500476Y-134997142D01*
X241500476Y-135092380D02*
X241500476Y-134425714D01*
X241500476Y-134520952D02*
X241548095Y-134473333D01*
X241643333Y-134425714D01*
X241786190Y-134425714D01*
X241881428Y-134473333D01*
X241929047Y-134568571D01*
X241929047Y-135092380D01*
X241929047Y-134568571D02*
X241976666Y-134473333D01*
X242071904Y-134425714D01*
X242214761Y-134425714D01*
X242310000Y-134473333D01*
X242357619Y-134568571D01*
X242357619Y-135092380D01*
X242833809Y-135092380D02*
X242833809Y-134425714D01*
X242833809Y-134520952D02*
X242881428Y-134473333D01*
X242976666Y-134425714D01*
X243119523Y-134425714D01*
X243214761Y-134473333D01*
X243262380Y-134568571D01*
X243262380Y-135092380D01*
X243262380Y-134568571D02*
X243310000Y-134473333D01*
X243405238Y-134425714D01*
X243548095Y-134425714D01*
X243643333Y-134473333D01*
X243690952Y-134568571D01*
X243690952Y-135092380D01*
X256805238Y-129692380D02*
X256805238Y-128692380D01*
X257186190Y-128692380D01*
X257281428Y-128740000D01*
X257329047Y-128787619D01*
X257376666Y-128882857D01*
X257376666Y-129025714D01*
X257329047Y-129120952D01*
X257281428Y-129168571D01*
X257186190Y-129216190D01*
X256805238Y-129216190D01*
X257805238Y-129168571D02*
X258567142Y-129168571D01*
X258567142Y-129454285D02*
X257805238Y-129454285D01*
X259233809Y-128692380D02*
X259329047Y-128692380D01*
X259424285Y-128740000D01*
X259471904Y-128787619D01*
X259519523Y-128882857D01*
X259567142Y-129073333D01*
X259567142Y-129311428D01*
X259519523Y-129501904D01*
X259471904Y-129597142D01*
X259424285Y-129644761D01*
X259329047Y-129692380D01*
X259233809Y-129692380D01*
X259138571Y-129644761D01*
X259090952Y-129597142D01*
X259043333Y-129501904D01*
X258995714Y-129311428D01*
X258995714Y-129073333D01*
X259043333Y-128882857D01*
X259090952Y-128787619D01*
X259138571Y-128740000D01*
X259233809Y-128692380D01*
X259995714Y-129597142D02*
X260043333Y-129644761D01*
X259995714Y-129692380D01*
X259948095Y-129644761D01*
X259995714Y-129597142D01*
X259995714Y-129692380D01*
X260948095Y-128692380D02*
X260471904Y-128692380D01*
X260424285Y-129168571D01*
X260471904Y-129120952D01*
X260567142Y-129073333D01*
X260805238Y-129073333D01*
X260900476Y-129120952D01*
X260948095Y-129168571D01*
X260995714Y-129263809D01*
X260995714Y-129501904D01*
X260948095Y-129597142D01*
X260900476Y-129644761D01*
X260805238Y-129692380D01*
X260567142Y-129692380D01*
X260471904Y-129644761D01*
X260424285Y-129597142D01*
X261424285Y-129692380D02*
X261424285Y-129025714D01*
X261424285Y-129120952D02*
X261471904Y-129073333D01*
X261567142Y-129025714D01*
X261710000Y-129025714D01*
X261805238Y-129073333D01*
X261852857Y-129168571D01*
X261852857Y-129692380D01*
X261852857Y-129168571D02*
X261900476Y-129073333D01*
X261995714Y-129025714D01*
X262138571Y-129025714D01*
X262233809Y-129073333D01*
X262281428Y-129168571D01*
X262281428Y-129692380D01*
X262757619Y-129692380D02*
X262757619Y-129025714D01*
X262757619Y-129120952D02*
X262805238Y-129073333D01*
X262900476Y-129025714D01*
X263043333Y-129025714D01*
X263138571Y-129073333D01*
X263186190Y-129168571D01*
X263186190Y-129692380D01*
X263186190Y-129168571D02*
X263233809Y-129073333D01*
X263329047Y-129025714D01*
X263471904Y-129025714D01*
X263567142Y-129073333D01*
X263614761Y-129168571D01*
X263614761Y-129692380D01*
X186312666Y-128014571D02*
X186455523Y-128062190D01*
X186503142Y-128109809D01*
X186550761Y-128205047D01*
X186550761Y-128347904D01*
X186503142Y-128443142D01*
X186455523Y-128490761D01*
X186360285Y-128538380D01*
X185979333Y-128538380D01*
X185979333Y-127538380D01*
X186312666Y-127538380D01*
X186407904Y-127586000D01*
X186455523Y-127633619D01*
X186503142Y-127728857D01*
X186503142Y-127824095D01*
X186455523Y-127919333D01*
X186407904Y-127966952D01*
X186312666Y-128014571D01*
X185979333Y-128014571D01*
X186836476Y-127538380D02*
X187407904Y-127538380D01*
X187122190Y-128538380D02*
X187122190Y-127538380D01*
X187741238Y-128538380D02*
X187741238Y-127538380D01*
X188312666Y-128538380D01*
X188312666Y-127538380D01*
D11*
X301192000Y-140091000D02*
X301192000Y-135646000D01*
X301192000Y-135646000D02*
X301192000Y-135011000D01*
X148792000Y-140091000D02*
X148792000Y-136281000D01*
X155142000Y-138821000D02*
X155142000Y-137551000D01*
X164667000Y-140091000D02*
X164667000Y-138821000D01*
X158317000Y-140091000D02*
X158317000Y-138821000D01*
X174192000Y-140091000D02*
X174192000Y-135646000D01*
X148792000Y-136281000D02*
X148792000Y-135011000D01*
X151967000Y-140091000D02*
X151967000Y-138821000D01*
X174192000Y-135646000D02*
X174192000Y-135011000D01*
X155142000Y-140091000D02*
X155142000Y-138821000D01*
X167842000Y-138821000D02*
X167842000Y-137551000D01*
X161492000Y-137551000D02*
X161492000Y-136281000D01*
X161492000Y-140091000D02*
X161492000Y-137551000D01*
X167842000Y-140091000D02*
X167842000Y-138821000D01*
X171017000Y-140091000D02*
X171017000Y-138821000D01*
X275792000Y-114751000D02*
X275792000Y-115751000D01*
X264792000Y-114751000D02*
X264792000Y-115751000D01*
X253792000Y-114751000D02*
X253792000Y-115751000D01*
X270792000Y-114751000D02*
X270792000Y-115751000D01*
X277792000Y-114751000D02*
X277792000Y-115751000D01*
X268792000Y-114751000D02*
X268792000Y-117751000D01*
X293792000Y-114751000D02*
X293792000Y-115751000D01*
X282792000Y-114751000D02*
X282792000Y-115751000D01*
X297792000Y-114751000D02*
X297792000Y-115751000D01*
X278792000Y-114751000D02*
X278792000Y-117751000D01*
X259792000Y-114751000D02*
X259792000Y-115751000D01*
X248792000Y-114751000D02*
X248792000Y-117751000D01*
X265792000Y-114751000D02*
X265792000Y-115751000D01*
X274792000Y-114751000D02*
X274792000Y-115751000D01*
X254792000Y-114751000D02*
X254792000Y-115751000D01*
X294792000Y-114751000D02*
X294792000Y-115751000D01*
X273792000Y-114751000D02*
X273792000Y-115751000D01*
X289792000Y-114751000D02*
X289792000Y-115751000D01*
X252792000Y-114751000D02*
X252792000Y-115751000D01*
X276792000Y-114751000D02*
X276792000Y-115751000D01*
X280792000Y-114751000D02*
X280792000Y-115751000D01*
X258792000Y-114751000D02*
X258792000Y-117751000D01*
X292792000Y-114751000D02*
X292792000Y-115751000D01*
X288792000Y-114751000D02*
X288792000Y-117751000D01*
X267792000Y-114751000D02*
X267792000Y-115751000D01*
X249792000Y-114751000D02*
X249792000Y-115751000D01*
X266792000Y-114751000D02*
X266792000Y-115751000D01*
X251792000Y-114751000D02*
X251792000Y-115751000D01*
X298792000Y-114751000D02*
X298792000Y-117751000D01*
X257792000Y-114751000D02*
X257792000Y-115751000D01*
X296792000Y-114751000D02*
X296792000Y-115751000D01*
X255792000Y-114751000D02*
X255792000Y-115751000D01*
X290792000Y-114751000D02*
X290792000Y-115751000D01*
X286792000Y-114751000D02*
X286792000Y-115751000D01*
X271792000Y-114751000D02*
X271792000Y-115751000D01*
X261792000Y-114751000D02*
X261792000Y-115751000D01*
X234792000Y-114751000D02*
X234792000Y-115751000D01*
X217792000Y-114751000D02*
X217792000Y-115751000D01*
X225792000Y-114751000D02*
X225792000Y-115751000D01*
X283792000Y-114751000D02*
X283792000Y-115751000D01*
X215792000Y-114751000D02*
X215792000Y-115751000D01*
X212792000Y-114751000D02*
X212792000Y-115751000D01*
X269792000Y-114751000D02*
X269792000Y-115751000D01*
X211792000Y-114751000D02*
X211792000Y-115751000D01*
X281792000Y-114751000D02*
X281792000Y-115751000D01*
X262792000Y-114751000D02*
X262792000Y-115751000D01*
X231792000Y-114751000D02*
X231792000Y-115751000D01*
X228792000Y-114751000D02*
X228792000Y-117751000D01*
X250792000Y-114751000D02*
X250792000Y-115751000D01*
X260792000Y-114751000D02*
X260792000Y-115751000D01*
X208792000Y-114751000D02*
X208792000Y-117751000D01*
X239792000Y-114751000D02*
X239792000Y-115751000D01*
X235792000Y-114751000D02*
X235792000Y-115751000D01*
X238792000Y-114751000D02*
X238792000Y-117751000D01*
X243792000Y-114751000D02*
X243792000Y-115751000D01*
X224792000Y-114751000D02*
X224792000Y-115751000D01*
X246792000Y-114751000D02*
X246792000Y-115751000D01*
X227792000Y-114751000D02*
X227792000Y-115751000D01*
X213792000Y-114751000D02*
X213792000Y-115751000D01*
X221792000Y-114751000D02*
X221792000Y-115751000D01*
X219792000Y-114751000D02*
X219792000Y-115751000D01*
X230792000Y-114751000D02*
X230792000Y-115751000D01*
X233792000Y-114751000D02*
X233792000Y-115751000D01*
X226792000Y-114751000D02*
X226792000Y-115751000D01*
X209792000Y-114751000D02*
X209792000Y-115751000D01*
X223792000Y-114751000D02*
X223792000Y-115751000D01*
X279792000Y-114751000D02*
X279792000Y-115751000D01*
X295792000Y-114751000D02*
X295792000Y-115751000D01*
X284792000Y-114751000D02*
X284792000Y-115751000D01*
X214792000Y-114751000D02*
X214792000Y-115751000D01*
X287792000Y-114751000D02*
X287792000Y-115751000D01*
X236792000Y-114751000D02*
X236792000Y-115751000D01*
X210792000Y-114751000D02*
X210792000Y-115751000D01*
X220792000Y-114751000D02*
X220792000Y-115751000D01*
X242792000Y-114751000D02*
X242792000Y-115751000D01*
X241792000Y-114751000D02*
X241792000Y-115751000D01*
X285792000Y-114751000D02*
X285792000Y-115751000D01*
X194792000Y-114751000D02*
X194792000Y-115751000D01*
X232792000Y-114751000D02*
X232792000Y-115751000D01*
X272792000Y-114751000D02*
X272792000Y-115751000D01*
X222792000Y-114751000D02*
X222792000Y-115751000D01*
X218792000Y-114751000D02*
X218792000Y-117751000D01*
X216792000Y-114751000D02*
X216792000Y-115751000D01*
X263792000Y-114751000D02*
X263792000Y-115751000D01*
X229792000Y-114751000D02*
X229792000Y-115751000D01*
X247792000Y-114751000D02*
X247792000Y-115751000D01*
X245792000Y-114751000D02*
X245792000Y-115751000D01*
X237792000Y-114751000D02*
X237792000Y-115751000D01*
X256792000Y-114751000D02*
X256792000Y-115751000D01*
X244792000Y-114751000D02*
X244792000Y-115751000D01*
X240792000Y-114751000D02*
X240792000Y-115751000D01*
X291792000Y-114751000D02*
X291792000Y-115751000D01*
X205792000Y-114751000D02*
X205792000Y-115751000D01*
X202792000Y-114751000D02*
X202792000Y-115751000D01*
X190792000Y-114751000D02*
X190792000Y-115751000D01*
X173792000Y-114751000D02*
X173792000Y-115751000D01*
X176792000Y-114751000D02*
X176792000Y-115751000D01*
X154792000Y-114751000D02*
X154792000Y-115751000D01*
X149792000Y-114751000D02*
X149792000Y-115751000D01*
X168792000Y-114751000D02*
X168792000Y-117751000D01*
X175792000Y-114751000D02*
X175792000Y-115751000D01*
X152792000Y-114751000D02*
X152792000Y-115751000D01*
X167792000Y-114751000D02*
X167792000Y-115751000D01*
X153792000Y-114751000D02*
X153792000Y-115751000D01*
X148792000Y-114751000D02*
X148792000Y-117751000D01*
X158792000Y-114751000D02*
X158792000Y-117751000D01*
X177792000Y-114751000D02*
X177792000Y-115751000D01*
X174792000Y-114751000D02*
X174792000Y-115751000D01*
X189792000Y-114751000D02*
X189792000Y-115751000D01*
X192792000Y-114751000D02*
X192792000Y-115751000D01*
X201792000Y-114751000D02*
X201792000Y-115751000D01*
X182792000Y-114751000D02*
X182792000Y-115751000D01*
X196792000Y-114751000D02*
X196792000Y-115751000D01*
X180792000Y-114751000D02*
X180792000Y-115751000D01*
X166792000Y-114751000D02*
X166792000Y-115751000D01*
X151792000Y-114751000D02*
X151792000Y-115751000D01*
X157792000Y-114751000D02*
X157792000Y-115751000D01*
X207792000Y-114751000D02*
X207792000Y-115751000D01*
X193792000Y-114751000D02*
X193792000Y-115751000D01*
X188792000Y-114751000D02*
X188792000Y-117751000D01*
X197792000Y-114751000D02*
X197792000Y-115751000D01*
X164792000Y-114751000D02*
X164792000Y-115751000D01*
X159792000Y-114751000D02*
X159792000Y-115751000D01*
X165792000Y-114751000D02*
X165792000Y-115751000D01*
X170792000Y-114751000D02*
X170792000Y-115751000D01*
X198792000Y-114751000D02*
X198792000Y-117751000D01*
X178792000Y-114751000D02*
X178792000Y-117751000D01*
X155792000Y-114751000D02*
X155792000Y-115751000D01*
X179792000Y-114751000D02*
X179792000Y-115751000D01*
X195792000Y-114751000D02*
X195792000Y-115751000D01*
X172792000Y-114751000D02*
X172792000Y-115751000D01*
X199792000Y-114751000D02*
X199792000Y-115751000D01*
X206792000Y-114751000D02*
X206792000Y-115751000D01*
X163792000Y-114751000D02*
X163792000Y-115751000D01*
X191792000Y-114751000D02*
X191792000Y-115751000D01*
X171792000Y-114751000D02*
X171792000Y-115751000D01*
X204792000Y-114751000D02*
X204792000Y-115751000D01*
X203792000Y-114751000D02*
X203792000Y-115751000D01*
X187792000Y-114751000D02*
X187792000Y-115751000D01*
X200792000Y-114751000D02*
X200792000Y-115751000D01*
X169792000Y-114751000D02*
X169792000Y-115751000D01*
X183792000Y-114751000D02*
X183792000Y-115751000D01*
X161792000Y-114751000D02*
X161792000Y-115751000D01*
X156792000Y-114751000D02*
X156792000Y-115751000D01*
X186792000Y-114751000D02*
X186792000Y-115751000D01*
X184792000Y-114751000D02*
X184792000Y-115751000D01*
X185792000Y-114751000D02*
X185792000Y-115751000D01*
X181792000Y-114751000D02*
X181792000Y-115751000D01*
X162792000Y-114751000D02*
X162792000Y-115751000D01*
X150792000Y-114751000D02*
X150792000Y-115751000D01*
X160792000Y-114751000D02*
X160792000Y-115751000D01*
X256742000Y-138821000D02*
X256742000Y-137551000D01*
X269442000Y-138821000D02*
X269442000Y-137551000D01*
X193242000Y-138821000D02*
X193242000Y-137551000D01*
X180542000Y-138821000D02*
X180542000Y-137551000D01*
X224992000Y-140091000D02*
X224992000Y-135646000D01*
X212292000Y-137551000D02*
X212292000Y-136281000D01*
X247217000Y-140091000D02*
X247217000Y-138821000D01*
X224992000Y-135646000D02*
X224992000Y-135011000D01*
X205942000Y-140091000D02*
X205942000Y-138821000D01*
X275792000Y-140091000D02*
X275792000Y-135646000D01*
X253567000Y-140091000D02*
X253567000Y-138821000D01*
X205942000Y-138821000D02*
X205942000Y-137551000D01*
X263092000Y-137551000D02*
X263092000Y-136281000D01*
X212292000Y-140091000D02*
X212292000Y-137551000D01*
X186892000Y-140091000D02*
X186892000Y-137551000D01*
X183717000Y-140091000D02*
X183717000Y-138821000D01*
X272617000Y-140091000D02*
X272617000Y-138821000D01*
X199592000Y-140091000D02*
X199592000Y-135646000D01*
X221817000Y-140091000D02*
X221817000Y-138821000D01*
X231342000Y-138821000D02*
X231342000Y-137551000D01*
X228167000Y-140091000D02*
X228167000Y-138821000D01*
X202767000Y-140091000D02*
X202767000Y-138821000D01*
X193242000Y-140091000D02*
X193242000Y-138821000D01*
X240867000Y-140091000D02*
X240867000Y-138821000D01*
X199592000Y-135646000D02*
X199592000Y-135011000D01*
X180542000Y-140091000D02*
X180542000Y-138821000D01*
X237692000Y-137551000D02*
X237692000Y-136281000D01*
X278967000Y-140091000D02*
X278967000Y-138821000D01*
X244042000Y-138821000D02*
X244042000Y-137551000D01*
X282142000Y-138821000D02*
X282142000Y-137551000D01*
X266267000Y-140091000D02*
X266267000Y-138821000D01*
X256742000Y-140091000D02*
X256742000Y-138821000D01*
X177367000Y-140091000D02*
X177367000Y-138821000D01*
X291667000Y-140091000D02*
X291667000Y-138821000D01*
X282142000Y-140091000D02*
X282142000Y-138821000D01*
X190067000Y-140091000D02*
X190067000Y-138821000D01*
X288492000Y-137551000D02*
X288492000Y-136281000D01*
X231342000Y-140091000D02*
X231342000Y-138821000D01*
X218642000Y-138821000D02*
X218642000Y-137551000D01*
X263092000Y-140091000D02*
X263092000Y-137551000D01*
X218642000Y-140091000D02*
X218642000Y-138821000D01*
X209117000Y-140091000D02*
X209117000Y-138821000D01*
X285317000Y-140091000D02*
X285317000Y-138821000D01*
X250392000Y-135646000D02*
X250392000Y-135011000D01*
X186892000Y-137551000D02*
X186892000Y-136281000D01*
X294842000Y-138821000D02*
X294842000Y-137551000D01*
X244042000Y-140091000D02*
X244042000Y-138821000D01*
X234517000Y-140091000D02*
X234517000Y-138821000D01*
X196417000Y-140091000D02*
X196417000Y-138821000D01*
X298017000Y-140091000D02*
X298017000Y-138821000D01*
X269442000Y-140091000D02*
X269442000Y-138821000D01*
X250392000Y-140091000D02*
X250392000Y-135646000D01*
X237692000Y-140091000D02*
X237692000Y-137551000D01*
X275792000Y-135646000D02*
X275792000Y-135011000D01*
X259917000Y-140091000D02*
X259917000Y-138821000D01*
X215467000Y-140091000D02*
X215467000Y-138821000D01*
X288492000Y-140091000D02*
X288492000Y-137551000D01*
X294842000Y-140091000D02*
X294842000Y-138821000D01*
%TO.C,UFBGA-201*%
X236285000Y-122715000D02*
X245535000Y-122715000D01*
X245535000Y-122715000D02*
X245535000Y-132965000D01*
X245535000Y-132965000D02*
X235285000Y-132965000D01*
X235285000Y-132965000D02*
X235285000Y-123715000D01*
D12*
%TO.C,G\u002A\u002A\u002A*%
G36*
X297376942Y-125581984D02*
G01*
X297864060Y-126029806D01*
X297890476Y-127052971D01*
X297894881Y-127451943D01*
X297887444Y-127786069D01*
X297869713Y-128020808D01*
X297843235Y-128121621D01*
X297842605Y-128122048D01*
X297736237Y-128104623D01*
X297543985Y-128010249D01*
X297400391Y-127920857D01*
X297105078Y-127718845D01*
X296930109Y-127584651D01*
X296853199Y-127494827D01*
X296852058Y-127425925D01*
X296884221Y-127377810D01*
X296924954Y-127249466D01*
X296819184Y-127174343D01*
X296723722Y-127165296D01*
X296641044Y-127183559D01*
X296699507Y-127236270D01*
X296762887Y-127313992D01*
X296685461Y-127408764D01*
X296580438Y-127459281D01*
X296515090Y-127363743D01*
X296505811Y-127335888D01*
X296482761Y-127123910D01*
X296505418Y-126908097D01*
X296525117Y-126725186D01*
X296465228Y-126658882D01*
X296432057Y-126656000D01*
X296288251Y-126705152D01*
X296230428Y-126810888D01*
X296287396Y-126906330D01*
X296358904Y-127032363D01*
X296332107Y-127205012D01*
X296232974Y-127355874D01*
X296093655Y-127416703D01*
X295976420Y-127402704D01*
X296014447Y-127351336D01*
X296036881Y-127336640D01*
X296119687Y-127243370D01*
X296067536Y-127191729D01*
X295919585Y-127215266D01*
X295817776Y-127309761D01*
X295816551Y-127377230D01*
X295759853Y-127440952D01*
X295550359Y-127499349D01*
X295204576Y-127550300D01*
X294739011Y-127591684D01*
X294170171Y-127621379D01*
X293838000Y-127631521D01*
X293412095Y-127650960D01*
X292907978Y-127687727D01*
X292415037Y-127734976D01*
X292271667Y-127751505D01*
X291792823Y-127807354D01*
X291265705Y-127865208D01*
X290784337Y-127914835D01*
X290663000Y-127926579D01*
X290273368Y-127969903D01*
X289905616Y-128021783D01*
X289623256Y-128072941D01*
X289562333Y-128087374D01*
X289295746Y-128134320D01*
X288943527Y-128167205D01*
X288638441Y-128177980D01*
X288257352Y-128197944D01*
X287870027Y-128247601D01*
X287622441Y-128300476D01*
X287232139Y-128393633D01*
X286729430Y-128490234D01*
X286170727Y-128580513D01*
X285612440Y-128654705D01*
X285508198Y-128666491D01*
X285094730Y-128711716D01*
X285291287Y-128445858D01*
X285455551Y-128273506D01*
X285613081Y-128183684D01*
X285641255Y-128180000D01*
X285739290Y-128148105D01*
X285784729Y-128025116D01*
X285794667Y-127809272D01*
X285796501Y-127756667D01*
X286556667Y-127756667D01*
X286621096Y-127838873D01*
X286641333Y-127841333D01*
X286723540Y-127776904D01*
X286726000Y-127756667D01*
X286661571Y-127674460D01*
X286641333Y-127672000D01*
X287149333Y-127672000D01*
X287180311Y-127741690D01*
X287205778Y-127728444D01*
X287215911Y-127627965D01*
X287205778Y-127615555D01*
X287155443Y-127627178D01*
X287149333Y-127672000D01*
X286641333Y-127672000D01*
X286559127Y-127736429D01*
X286556667Y-127756667D01*
X285796501Y-127756667D01*
X285801210Y-127621672D01*
X285811528Y-127587333D01*
X287403333Y-127587333D01*
X287467762Y-127669540D01*
X287488000Y-127672000D01*
X287570206Y-127607571D01*
X287572667Y-127587333D01*
X287553326Y-127562655D01*
X288115110Y-127562655D01*
X288126616Y-127593183D01*
X288208349Y-127668258D01*
X288248344Y-127582750D01*
X288250000Y-127540003D01*
X288208343Y-127452800D01*
X288163952Y-127461187D01*
X288115110Y-127562655D01*
X287553326Y-127562655D01*
X287508237Y-127505127D01*
X287488000Y-127502667D01*
X287405793Y-127567096D01*
X287403333Y-127587333D01*
X285811528Y-127587333D01*
X285840448Y-127491096D01*
X285917669Y-127418000D01*
X288927333Y-127418000D01*
X288991762Y-127500206D01*
X289012000Y-127502667D01*
X289094206Y-127438237D01*
X289096667Y-127418000D01*
X289032237Y-127335793D01*
X289012000Y-127333333D01*
X288929793Y-127397762D01*
X288927333Y-127418000D01*
X285917669Y-127418000D01*
X285941786Y-127395172D01*
X286134634Y-127311527D01*
X286203341Y-127291000D01*
X289689333Y-127291000D01*
X289757106Y-127403248D01*
X289816333Y-127418000D01*
X289928582Y-127350227D01*
X289943333Y-127291000D01*
X289875560Y-127178751D01*
X289816333Y-127164000D01*
X290959333Y-127164000D01*
X291023762Y-127246206D01*
X291044000Y-127248667D01*
X291126206Y-127184237D01*
X291128667Y-127164000D01*
X291064237Y-127081793D01*
X291044000Y-127079333D01*
X290961793Y-127143762D01*
X290959333Y-127164000D01*
X289816333Y-127164000D01*
X289704085Y-127231773D01*
X289689333Y-127291000D01*
X286203341Y-127291000D01*
X286448400Y-127217786D01*
X286641333Y-127165143D01*
X287097945Y-126999663D01*
X292568000Y-126999663D01*
X292632579Y-127077053D01*
X292652667Y-127079333D01*
X292726971Y-127010418D01*
X292737333Y-126947336D01*
X292696287Y-126859702D01*
X292652667Y-126867667D01*
X292571229Y-126975909D01*
X292568000Y-126999663D01*
X287097945Y-126999663D01*
X287219237Y-126955706D01*
X287633265Y-126698333D01*
X294938667Y-126698333D01*
X294984384Y-126811005D01*
X295023333Y-126825333D01*
X295098448Y-126756757D01*
X295108000Y-126698333D01*
X295062282Y-126585661D01*
X295023333Y-126571333D01*
X294948219Y-126639910D01*
X294938667Y-126698333D01*
X287633265Y-126698333D01*
X287662405Y-126680219D01*
X287710696Y-126638552D01*
X287930060Y-126502221D01*
X288247803Y-126373239D01*
X288593756Y-126275239D01*
X288897750Y-126231848D01*
X288919623Y-126231434D01*
X289142681Y-126202525D01*
X289417475Y-126132544D01*
X289477667Y-126112737D01*
X289725319Y-126051088D01*
X290074784Y-125994090D01*
X290458644Y-125952329D01*
X290536000Y-125946574D01*
X290902736Y-125917732D01*
X291377744Y-125874612D01*
X291901145Y-125822913D01*
X292413061Y-125768337D01*
X292441000Y-125765219D01*
X292923237Y-125713091D01*
X293394054Y-125665437D01*
X293803675Y-125627090D01*
X294102322Y-125602883D01*
X294134333Y-125600779D01*
X294490821Y-125556413D01*
X294906908Y-125473006D01*
X295235000Y-125385393D01*
X295628831Y-125283253D01*
X296053349Y-125203357D01*
X296358745Y-125167976D01*
X296889823Y-125134163D01*
X297376942Y-125581984D01*
G37*
X297376942Y-125581984D02*
X297864060Y-126029806D01*
X297890476Y-127052971D01*
X297894881Y-127451943D01*
X297887444Y-127786069D01*
X297869713Y-128020808D01*
X297843235Y-128121621D01*
X297842605Y-128122048D01*
X297736237Y-128104623D01*
X297543985Y-128010249D01*
X297400391Y-127920857D01*
X297105078Y-127718845D01*
X296930109Y-127584651D01*
X296853199Y-127494827D01*
X296852058Y-127425925D01*
X296884221Y-127377810D01*
X296924954Y-127249466D01*
X296819184Y-127174343D01*
X296723722Y-127165296D01*
X296641044Y-127183559D01*
X296699507Y-127236270D01*
X296762887Y-127313992D01*
X296685461Y-127408764D01*
X296580438Y-127459281D01*
X296515090Y-127363743D01*
X296505811Y-127335888D01*
X296482761Y-127123910D01*
X296505418Y-126908097D01*
X296525117Y-126725186D01*
X296465228Y-126658882D01*
X296432057Y-126656000D01*
X296288251Y-126705152D01*
X296230428Y-126810888D01*
X296287396Y-126906330D01*
X296358904Y-127032363D01*
X296332107Y-127205012D01*
X296232974Y-127355874D01*
X296093655Y-127416703D01*
X295976420Y-127402704D01*
X296014447Y-127351336D01*
X296036881Y-127336640D01*
X296119687Y-127243370D01*
X296067536Y-127191729D01*
X295919585Y-127215266D01*
X295817776Y-127309761D01*
X295816551Y-127377230D01*
X295759853Y-127440952D01*
X295550359Y-127499349D01*
X295204576Y-127550300D01*
X294739011Y-127591684D01*
X294170171Y-127621379D01*
X293838000Y-127631521D01*
X293412095Y-127650960D01*
X292907978Y-127687727D01*
X292415037Y-127734976D01*
X292271667Y-127751505D01*
X291792823Y-127807354D01*
X291265705Y-127865208D01*
X290784337Y-127914835D01*
X290663000Y-127926579D01*
X290273368Y-127969903D01*
X289905616Y-128021783D01*
X289623256Y-128072941D01*
X289562333Y-128087374D01*
X289295746Y-128134320D01*
X288943527Y-128167205D01*
X288638441Y-128177980D01*
X288257352Y-128197944D01*
X287870027Y-128247601D01*
X287622441Y-128300476D01*
X287232139Y-128393633D01*
X286729430Y-128490234D01*
X286170727Y-128580513D01*
X285612440Y-128654705D01*
X285508198Y-128666491D01*
X285094730Y-128711716D01*
X285291287Y-128445858D01*
X285455551Y-128273506D01*
X285613081Y-128183684D01*
X285641255Y-128180000D01*
X285739290Y-128148105D01*
X285784729Y-128025116D01*
X285794667Y-127809272D01*
X285796501Y-127756667D01*
X286556667Y-127756667D01*
X286621096Y-127838873D01*
X286641333Y-127841333D01*
X286723540Y-127776904D01*
X286726000Y-127756667D01*
X286661571Y-127674460D01*
X286641333Y-127672000D01*
X287149333Y-127672000D01*
X287180311Y-127741690D01*
X287205778Y-127728444D01*
X287215911Y-127627965D01*
X287205778Y-127615555D01*
X287155443Y-127627178D01*
X287149333Y-127672000D01*
X286641333Y-127672000D01*
X286559127Y-127736429D01*
X286556667Y-127756667D01*
X285796501Y-127756667D01*
X285801210Y-127621672D01*
X285811528Y-127587333D01*
X287403333Y-127587333D01*
X287467762Y-127669540D01*
X287488000Y-127672000D01*
X287570206Y-127607571D01*
X287572667Y-127587333D01*
X287553326Y-127562655D01*
X288115110Y-127562655D01*
X288126616Y-127593183D01*
X288208349Y-127668258D01*
X288248344Y-127582750D01*
X288250000Y-127540003D01*
X288208343Y-127452800D01*
X288163952Y-127461187D01*
X288115110Y-127562655D01*
X287553326Y-127562655D01*
X287508237Y-127505127D01*
X287488000Y-127502667D01*
X287405793Y-127567096D01*
X287403333Y-127587333D01*
X285811528Y-127587333D01*
X285840448Y-127491096D01*
X285917669Y-127418000D01*
X288927333Y-127418000D01*
X288991762Y-127500206D01*
X289012000Y-127502667D01*
X289094206Y-127438237D01*
X289096667Y-127418000D01*
X289032237Y-127335793D01*
X289012000Y-127333333D01*
X288929793Y-127397762D01*
X288927333Y-127418000D01*
X285917669Y-127418000D01*
X285941786Y-127395172D01*
X286134634Y-127311527D01*
X286203341Y-127291000D01*
X289689333Y-127291000D01*
X289757106Y-127403248D01*
X289816333Y-127418000D01*
X289928582Y-127350227D01*
X289943333Y-127291000D01*
X289875560Y-127178751D01*
X289816333Y-127164000D01*
X290959333Y-127164000D01*
X291023762Y-127246206D01*
X291044000Y-127248667D01*
X291126206Y-127184237D01*
X291128667Y-127164000D01*
X291064237Y-127081793D01*
X291044000Y-127079333D01*
X290961793Y-127143762D01*
X290959333Y-127164000D01*
X289816333Y-127164000D01*
X289704085Y-127231773D01*
X289689333Y-127291000D01*
X286203341Y-127291000D01*
X286448400Y-127217786D01*
X286641333Y-127165143D01*
X287097945Y-126999663D01*
X292568000Y-126999663D01*
X292632579Y-127077053D01*
X292652667Y-127079333D01*
X292726971Y-127010418D01*
X292737333Y-126947336D01*
X292696287Y-126859702D01*
X292652667Y-126867667D01*
X292571229Y-126975909D01*
X292568000Y-126999663D01*
X287097945Y-126999663D01*
X287219237Y-126955706D01*
X287633265Y-126698333D01*
X294938667Y-126698333D01*
X294984384Y-126811005D01*
X295023333Y-126825333D01*
X295098448Y-126756757D01*
X295108000Y-126698333D01*
X295062282Y-126585661D01*
X295023333Y-126571333D01*
X294948219Y-126639910D01*
X294938667Y-126698333D01*
X287633265Y-126698333D01*
X287662405Y-126680219D01*
X287710696Y-126638552D01*
X287930060Y-126502221D01*
X288247803Y-126373239D01*
X288593756Y-126275239D01*
X288897750Y-126231848D01*
X288919623Y-126231434D01*
X289142681Y-126202525D01*
X289417475Y-126132544D01*
X289477667Y-126112737D01*
X289725319Y-126051088D01*
X290074784Y-125994090D01*
X290458644Y-125952329D01*
X290536000Y-125946574D01*
X290902736Y-125917732D01*
X291377744Y-125874612D01*
X291901145Y-125822913D01*
X292413061Y-125768337D01*
X292441000Y-125765219D01*
X292923237Y-125713091D01*
X293394054Y-125665437D01*
X293803675Y-125627090D01*
X294102322Y-125602883D01*
X294134333Y-125600779D01*
X294490821Y-125556413D01*
X294906908Y-125473006D01*
X295235000Y-125385393D01*
X295628831Y-125283253D01*
X296053349Y-125203357D01*
X296358745Y-125167976D01*
X296889823Y-125134163D01*
X297376942Y-125581984D01*
G36*
X299067232Y-121983899D02*
G01*
X299087333Y-122071322D01*
X299035067Y-122176860D01*
X298892056Y-122384583D01*
X298678978Y-122669171D01*
X298416514Y-123005302D01*
X298125344Y-123367653D01*
X297826146Y-123730903D01*
X297539601Y-124069731D01*
X297286387Y-124358814D01*
X297087186Y-124572831D01*
X296962675Y-124686460D01*
X296942815Y-124697239D01*
X296806871Y-124786089D01*
X296746994Y-124849060D01*
X296613142Y-124932317D01*
X296374536Y-125014975D01*
X296196661Y-125056461D01*
X295870297Y-125110439D01*
X295482700Y-125162157D01*
X295073628Y-125207860D01*
X294682842Y-125243793D01*
X294350100Y-125266201D01*
X294115162Y-125271327D01*
X294026685Y-125261430D01*
X293882509Y-125240015D01*
X293604045Y-125225171D01*
X293226196Y-125216565D01*
X292783865Y-125213863D01*
X292311956Y-125216732D01*
X291845373Y-125224838D01*
X291419018Y-125237848D01*
X291067797Y-125255429D01*
X290826612Y-125277248D01*
X290747667Y-125292750D01*
X290558031Y-125336333D01*
X290247973Y-125386254D01*
X289865867Y-125435351D01*
X289581833Y-125465355D01*
X289181197Y-125512597D01*
X288822015Y-125570926D01*
X288551341Y-125631837D01*
X288438833Y-125671919D01*
X288254547Y-125744813D01*
X287956573Y-125839232D01*
X287596395Y-125939389D01*
X287424500Y-125982920D01*
X286641333Y-126174712D01*
X286641333Y-126500023D01*
X286659158Y-126710202D01*
X286732631Y-126809315D01*
X286891748Y-126807593D01*
X287166504Y-126715268D01*
X287215493Y-126695860D01*
X287478686Y-126538613D01*
X287678871Y-126328795D01*
X287690206Y-126310549D01*
X287911894Y-126067781D01*
X288271128Y-125861668D01*
X288772339Y-125691392D01*
X289419962Y-125556137D01*
X290218429Y-125455084D01*
X291172173Y-125387416D01*
X292285628Y-125352316D01*
X292917745Y-125346689D01*
X293551323Y-125346402D01*
X294031162Y-125349467D01*
X294372838Y-125356789D01*
X294591926Y-125369274D01*
X294704002Y-125387826D01*
X294724643Y-125413352D01*
X294669425Y-125446755D01*
X294665831Y-125448279D01*
X294474878Y-125511553D01*
X294357346Y-125519739D01*
X294354391Y-125518186D01*
X294255391Y-125515351D01*
X294015603Y-125529404D01*
X293662488Y-125558115D01*
X293223510Y-125599253D01*
X292733305Y-125649817D01*
X292206792Y-125702763D01*
X291710579Y-125745958D01*
X291280332Y-125776804D01*
X290951714Y-125792702D01*
X290776795Y-125792388D01*
X290554924Y-125789546D01*
X290431581Y-125810742D01*
X290421959Y-125830500D01*
X290371765Y-125869449D01*
X290199290Y-125893984D01*
X290096497Y-125897716D01*
X289766430Y-125931469D01*
X289434401Y-126009373D01*
X289393000Y-126023441D01*
X289118569Y-126102770D01*
X288867753Y-126144787D01*
X288824459Y-126146725D01*
X288509223Y-126191411D01*
X288141766Y-126303949D01*
X287798308Y-126456446D01*
X287572667Y-126604840D01*
X287110952Y-126900780D01*
X286726000Y-127035649D01*
X286365809Y-127127608D01*
X286139282Y-127179241D01*
X286016902Y-127195447D01*
X285969149Y-127181123D01*
X285964000Y-127162103D01*
X285995795Y-127023165D01*
X286165622Y-127023165D01*
X286264318Y-127058003D01*
X286301497Y-127056142D01*
X286467392Y-126968829D01*
X286524315Y-126858037D01*
X286549840Y-126618785D01*
X286541516Y-126474112D01*
X286512332Y-126275000D01*
X286373982Y-126486667D01*
X286250923Y-126709578D01*
X286180348Y-126883883D01*
X286165622Y-127023165D01*
X285995795Y-127023165D01*
X286013464Y-126945956D01*
X286142783Y-126671952D01*
X286323343Y-126380858D01*
X286526535Y-126113438D01*
X286723745Y-125910458D01*
X286886361Y-125812684D01*
X286913462Y-125809333D01*
X287044101Y-125752184D01*
X287221537Y-125609966D01*
X287272191Y-125559656D01*
X287495251Y-125388913D01*
X287826852Y-125210618D01*
X288134698Y-125082649D01*
X288758000Y-124855318D01*
X288758000Y-124062326D01*
X288760626Y-123691621D01*
X288773005Y-123458600D01*
X288790381Y-123382222D01*
X288870889Y-123382222D01*
X288882511Y-123432556D01*
X288927333Y-123438667D01*
X288997023Y-123407688D01*
X288983778Y-123382222D01*
X288883298Y-123372089D01*
X288870889Y-123382222D01*
X288790381Y-123382222D01*
X288801890Y-123331636D01*
X288854035Y-123279107D01*
X288927333Y-123269333D01*
X289007785Y-123282066D01*
X289057777Y-123341749D01*
X289084470Y-123480613D01*
X289095027Y-123730886D01*
X289096667Y-124031333D01*
X289096667Y-124793333D01*
X289501161Y-124793333D01*
X289780262Y-124769852D01*
X290010475Y-124710662D01*
X290072661Y-124678965D01*
X290166625Y-124621854D01*
X290276807Y-124575287D01*
X290420546Y-124538160D01*
X290615176Y-124509369D01*
X290878035Y-124487809D01*
X291226458Y-124472376D01*
X291677782Y-124461966D01*
X292249344Y-124455474D01*
X292958479Y-124451797D01*
X293665674Y-124450087D01*
X296641257Y-124444908D01*
X296954128Y-124093456D01*
X297481273Y-123505361D01*
X297943146Y-122998306D01*
X298330840Y-122581716D01*
X298635452Y-122265018D01*
X298848074Y-122057638D01*
X298959802Y-121969001D01*
X298962233Y-121967986D01*
X299067232Y-121983899D01*
G37*
X299067232Y-121983899D02*
X299087333Y-122071322D01*
X299035067Y-122176860D01*
X298892056Y-122384583D01*
X298678978Y-122669171D01*
X298416514Y-123005302D01*
X298125344Y-123367653D01*
X297826146Y-123730903D01*
X297539601Y-124069731D01*
X297286387Y-124358814D01*
X297087186Y-124572831D01*
X296962675Y-124686460D01*
X296942815Y-124697239D01*
X296806871Y-124786089D01*
X296746994Y-124849060D01*
X296613142Y-124932317D01*
X296374536Y-125014975D01*
X296196661Y-125056461D01*
X295870297Y-125110439D01*
X295482700Y-125162157D01*
X295073628Y-125207860D01*
X294682842Y-125243793D01*
X294350100Y-125266201D01*
X294115162Y-125271327D01*
X294026685Y-125261430D01*
X293882509Y-125240015D01*
X293604045Y-125225171D01*
X293226196Y-125216565D01*
X292783865Y-125213863D01*
X292311956Y-125216732D01*
X291845373Y-125224838D01*
X291419018Y-125237848D01*
X291067797Y-125255429D01*
X290826612Y-125277248D01*
X290747667Y-125292750D01*
X290558031Y-125336333D01*
X290247973Y-125386254D01*
X289865867Y-125435351D01*
X289581833Y-125465355D01*
X289181197Y-125512597D01*
X288822015Y-125570926D01*
X288551341Y-125631837D01*
X288438833Y-125671919D01*
X288254547Y-125744813D01*
X287956573Y-125839232D01*
X287596395Y-125939389D01*
X287424500Y-125982920D01*
X286641333Y-126174712D01*
X286641333Y-126500023D01*
X286659158Y-126710202D01*
X286732631Y-126809315D01*
X286891748Y-126807593D01*
X287166504Y-126715268D01*
X287215493Y-126695860D01*
X287478686Y-126538613D01*
X287678871Y-126328795D01*
X287690206Y-126310549D01*
X287911894Y-126067781D01*
X288271128Y-125861668D01*
X288772339Y-125691392D01*
X289419962Y-125556137D01*
X290218429Y-125455084D01*
X291172173Y-125387416D01*
X292285628Y-125352316D01*
X292917745Y-125346689D01*
X293551323Y-125346402D01*
X294031162Y-125349467D01*
X294372838Y-125356789D01*
X294591926Y-125369274D01*
X294704002Y-125387826D01*
X294724643Y-125413352D01*
X294669425Y-125446755D01*
X294665831Y-125448279D01*
X294474878Y-125511553D01*
X294357346Y-125519739D01*
X294354391Y-125518186D01*
X294255391Y-125515351D01*
X294015603Y-125529404D01*
X293662488Y-125558115D01*
X293223510Y-125599253D01*
X292733305Y-125649817D01*
X292206792Y-125702763D01*
X291710579Y-125745958D01*
X291280332Y-125776804D01*
X290951714Y-125792702D01*
X290776795Y-125792388D01*
X290554924Y-125789546D01*
X290431581Y-125810742D01*
X290421959Y-125830500D01*
X290371765Y-125869449D01*
X290199290Y-125893984D01*
X290096497Y-125897716D01*
X289766430Y-125931469D01*
X289434401Y-126009373D01*
X289393000Y-126023441D01*
X289118569Y-126102770D01*
X288867753Y-126144787D01*
X288824459Y-126146725D01*
X288509223Y-126191411D01*
X288141766Y-126303949D01*
X287798308Y-126456446D01*
X287572667Y-126604840D01*
X287110952Y-126900780D01*
X286726000Y-127035649D01*
X286365809Y-127127608D01*
X286139282Y-127179241D01*
X286016902Y-127195447D01*
X285969149Y-127181123D01*
X285964000Y-127162103D01*
X285995795Y-127023165D01*
X286165622Y-127023165D01*
X286264318Y-127058003D01*
X286301497Y-127056142D01*
X286467392Y-126968829D01*
X286524315Y-126858037D01*
X286549840Y-126618785D01*
X286541516Y-126474112D01*
X286512332Y-126275000D01*
X286373982Y-126486667D01*
X286250923Y-126709578D01*
X286180348Y-126883883D01*
X286165622Y-127023165D01*
X285995795Y-127023165D01*
X286013464Y-126945956D01*
X286142783Y-126671952D01*
X286323343Y-126380858D01*
X286526535Y-126113438D01*
X286723745Y-125910458D01*
X286886361Y-125812684D01*
X286913462Y-125809333D01*
X287044101Y-125752184D01*
X287221537Y-125609966D01*
X287272191Y-125559656D01*
X287495251Y-125388913D01*
X287826852Y-125210618D01*
X288134698Y-125082649D01*
X288758000Y-124855318D01*
X288758000Y-124062326D01*
X288760626Y-123691621D01*
X288773005Y-123458600D01*
X288790381Y-123382222D01*
X288870889Y-123382222D01*
X288882511Y-123432556D01*
X288927333Y-123438667D01*
X288997023Y-123407688D01*
X288983778Y-123382222D01*
X288883298Y-123372089D01*
X288870889Y-123382222D01*
X288790381Y-123382222D01*
X288801890Y-123331636D01*
X288854035Y-123279107D01*
X288927333Y-123269333D01*
X289007785Y-123282066D01*
X289057777Y-123341749D01*
X289084470Y-123480613D01*
X289095027Y-123730886D01*
X289096667Y-124031333D01*
X289096667Y-124793333D01*
X289501161Y-124793333D01*
X289780262Y-124769852D01*
X290010475Y-124710662D01*
X290072661Y-124678965D01*
X290166625Y-124621854D01*
X290276807Y-124575287D01*
X290420546Y-124538160D01*
X290615176Y-124509369D01*
X290878035Y-124487809D01*
X291226458Y-124472376D01*
X291677782Y-124461966D01*
X292249344Y-124455474D01*
X292958479Y-124451797D01*
X293665674Y-124450087D01*
X296641257Y-124444908D01*
X296954128Y-124093456D01*
X297481273Y-123505361D01*
X297943146Y-122998306D01*
X298330840Y-122581716D01*
X298635452Y-122265018D01*
X298848074Y-122057638D01*
X298959802Y-121969001D01*
X298962233Y-121967986D01*
X299067232Y-121983899D01*
G36*
X292618397Y-119740614D02*
G01*
X292672499Y-119749017D01*
X292955197Y-119819049D01*
X293092839Y-119927729D01*
X293108885Y-120097092D01*
X293097512Y-120148216D01*
X293130070Y-120337176D01*
X293246095Y-120475994D01*
X293437078Y-120641633D01*
X293214206Y-120933834D01*
X293068140Y-121171789D01*
X293003211Y-121430352D01*
X292992630Y-121676184D01*
X293011852Y-122040524D01*
X293066704Y-122240817D01*
X293156823Y-122276496D01*
X293281845Y-122146991D01*
X293288136Y-122137500D01*
X293434990Y-121959428D01*
X293537677Y-121929013D01*
X293582962Y-122048646D01*
X293584000Y-122084000D01*
X293629537Y-122213148D01*
X293792232Y-122255700D01*
X293816833Y-122256312D01*
X294200203Y-122270226D01*
X294592632Y-122299411D01*
X294952277Y-122339042D01*
X295237295Y-122384290D01*
X295405843Y-122430329D01*
X295425500Y-122441894D01*
X295504656Y-122585207D01*
X295531333Y-122761373D01*
X295605651Y-123007763D01*
X295715498Y-123116960D01*
X295836475Y-123258839D01*
X295843993Y-123404859D01*
X295752016Y-123498845D01*
X295620288Y-123499923D01*
X295526761Y-123490943D01*
X295483809Y-123552884D01*
X295479561Y-123722749D01*
X295491402Y-123901682D01*
X295525503Y-124346064D01*
X293026757Y-124362222D01*
X292389432Y-124367673D01*
X291804825Y-124375214D01*
X291295014Y-124384358D01*
X290882078Y-124394619D01*
X290588095Y-124405511D01*
X290435144Y-124416548D01*
X290420545Y-124419618D01*
X290361930Y-124401308D01*
X290336384Y-124270931D01*
X290337901Y-124158333D01*
X294769333Y-124158333D01*
X294811667Y-124200667D01*
X294854000Y-124158333D01*
X294811667Y-124116000D01*
X294769333Y-124158333D01*
X290337901Y-124158333D01*
X290339990Y-124003339D01*
X290344011Y-123928595D01*
X290348212Y-123871737D01*
X290536000Y-123871737D01*
X290555846Y-124063082D01*
X290630563Y-124101283D01*
X290782918Y-123995171D01*
X290804500Y-123975878D01*
X290920499Y-123788477D01*
X290959333Y-123592926D01*
X290951134Y-123438667D01*
X291467333Y-123438667D01*
X291505197Y-123640319D01*
X291594333Y-123692667D01*
X291695159Y-123616938D01*
X291721333Y-123438667D01*
X291890667Y-123438667D01*
X291917277Y-123624587D01*
X292016288Y-123690046D01*
X292060000Y-123692667D01*
X292183947Y-123652751D01*
X292227586Y-123504234D01*
X292229333Y-123438667D01*
X292398667Y-123438667D01*
X292425277Y-123624587D01*
X292524288Y-123690046D01*
X292568000Y-123692667D01*
X292691947Y-123652751D01*
X292735586Y-123504234D01*
X292737333Y-123438667D01*
X292906667Y-123438667D01*
X292933277Y-123624587D01*
X293032288Y-123690046D01*
X293076000Y-123692667D01*
X293199947Y-123652751D01*
X293243586Y-123504234D01*
X293245333Y-123438667D01*
X293414667Y-123438667D01*
X293452531Y-123640319D01*
X293541667Y-123692667D01*
X293642493Y-123616938D01*
X293668667Y-123438667D01*
X293838000Y-123438667D01*
X293875864Y-123640319D01*
X293965000Y-123692667D01*
X294065826Y-123616938D01*
X294092000Y-123438667D01*
X294261333Y-123438667D01*
X294287944Y-123624587D01*
X294386955Y-123690046D01*
X294430667Y-123692667D01*
X294554613Y-123652751D01*
X294598253Y-123504234D01*
X294600000Y-123438667D01*
X294769333Y-123438667D01*
X294792114Y-123620193D01*
X294888954Y-123686601D01*
X294981000Y-123692667D01*
X295132272Y-123665329D01*
X295187612Y-123549121D01*
X295192667Y-123438667D01*
X295169885Y-123257140D01*
X295073045Y-123190732D01*
X294981000Y-123184667D01*
X294829728Y-123212004D01*
X294774388Y-123328212D01*
X294769333Y-123438667D01*
X294600000Y-123438667D01*
X294573389Y-123252746D01*
X294474378Y-123187287D01*
X294430667Y-123184667D01*
X294306720Y-123224582D01*
X294263080Y-123373099D01*
X294261333Y-123438667D01*
X294092000Y-123438667D01*
X294054136Y-123237014D01*
X293965000Y-123184667D01*
X293864174Y-123260395D01*
X293838000Y-123438667D01*
X293668667Y-123438667D01*
X293630802Y-123237014D01*
X293541667Y-123184667D01*
X293440840Y-123260395D01*
X293414667Y-123438667D01*
X293245333Y-123438667D01*
X293218723Y-123252746D01*
X293119711Y-123187287D01*
X293076000Y-123184667D01*
X292952053Y-123224582D01*
X292908413Y-123373099D01*
X292906667Y-123438667D01*
X292737333Y-123438667D01*
X292710723Y-123252746D01*
X292611711Y-123187287D01*
X292568000Y-123184667D01*
X292444053Y-123224582D01*
X292400413Y-123373099D01*
X292398667Y-123438667D01*
X292229333Y-123438667D01*
X292202723Y-123252746D01*
X292103711Y-123187287D01*
X292060000Y-123184667D01*
X291936053Y-123224582D01*
X291892413Y-123373099D01*
X291890667Y-123438667D01*
X291721333Y-123438667D01*
X291683469Y-123237014D01*
X291594333Y-123184667D01*
X291493507Y-123260395D01*
X291467333Y-123438667D01*
X290951134Y-123438667D01*
X290950565Y-123427965D01*
X290893078Y-123402574D01*
X290747667Y-123488786D01*
X290571175Y-123686461D01*
X290536000Y-123871737D01*
X290348212Y-123871737D01*
X290374933Y-123510125D01*
X290413925Y-123235840D01*
X290467313Y-123080601D01*
X290541423Y-123019267D01*
X290573801Y-123015333D01*
X290705353Y-122953791D01*
X290858339Y-122805138D01*
X290862973Y-122799302D01*
X290992686Y-122651287D01*
X291076817Y-122585328D01*
X291079695Y-122585094D01*
X291178920Y-122555619D01*
X291376342Y-122478916D01*
X291487410Y-122432384D01*
X291750745Y-122324112D01*
X291978017Y-122238025D01*
X292034284Y-122218997D01*
X292193963Y-122087625D01*
X292283279Y-121847212D01*
X292290175Y-121703000D01*
X292568000Y-121703000D01*
X292610333Y-121745333D01*
X292652667Y-121703000D01*
X292610333Y-121660667D01*
X292568000Y-121703000D01*
X292290175Y-121703000D01*
X292297745Y-121544710D01*
X292269553Y-121406667D01*
X292581368Y-121406667D01*
X292594674Y-121526862D01*
X292624073Y-121512500D01*
X292635256Y-121339158D01*
X292624073Y-121300833D01*
X292593170Y-121290197D01*
X292581368Y-121406667D01*
X292269553Y-121406667D01*
X292232874Y-121227072D01*
X292147251Y-121036832D01*
X292027647Y-120748062D01*
X291978863Y-120494001D01*
X292017667Y-120494001D01*
X292292833Y-120611910D01*
X292493293Y-120733844D01*
X292568646Y-120898201D01*
X292573367Y-120962409D01*
X292578733Y-121195000D01*
X292659852Y-120992208D01*
X292696134Y-120856333D01*
X292822000Y-120856333D01*
X292864333Y-120898667D01*
X292906667Y-120856333D01*
X292864333Y-120814000D01*
X292822000Y-120856333D01*
X292696134Y-120856333D01*
X292704789Y-120823923D01*
X292694163Y-120742608D01*
X292722365Y-120673412D01*
X292840511Y-120588567D01*
X292946731Y-120510804D01*
X292927833Y-120478333D01*
X292847255Y-120402774D01*
X292810470Y-120242500D01*
X292797921Y-120102981D01*
X292777781Y-120125129D01*
X292763570Y-120190076D01*
X292691086Y-120321515D01*
X292510808Y-120403112D01*
X292372934Y-120432243D01*
X292017667Y-120494001D01*
X291978863Y-120494001D01*
X291967096Y-120432721D01*
X291970436Y-120148308D01*
X292042504Y-119952322D01*
X292054856Y-119938611D01*
X292132370Y-119903604D01*
X292150033Y-119971567D01*
X292178345Y-119998373D01*
X292226224Y-119910889D01*
X292850222Y-119910889D01*
X292861844Y-119961223D01*
X292906667Y-119967333D01*
X292976357Y-119936355D01*
X292963111Y-119910889D01*
X292862631Y-119900756D01*
X292850222Y-119910889D01*
X292226224Y-119910889D01*
X292235903Y-119893205D01*
X292304897Y-119768613D01*
X292413279Y-119724062D01*
X292618397Y-119740614D01*
G37*
X292618397Y-119740614D02*
X292672499Y-119749017D01*
X292955197Y-119819049D01*
X293092839Y-119927729D01*
X293108885Y-120097092D01*
X293097512Y-120148216D01*
X293130070Y-120337176D01*
X293246095Y-120475994D01*
X293437078Y-120641633D01*
X293214206Y-120933834D01*
X293068140Y-121171789D01*
X293003211Y-121430352D01*
X292992630Y-121676184D01*
X293011852Y-122040524D01*
X293066704Y-122240817D01*
X293156823Y-122276496D01*
X293281845Y-122146991D01*
X293288136Y-122137500D01*
X293434990Y-121959428D01*
X293537677Y-121929013D01*
X293582962Y-122048646D01*
X293584000Y-122084000D01*
X293629537Y-122213148D01*
X293792232Y-122255700D01*
X293816833Y-122256312D01*
X294200203Y-122270226D01*
X294592632Y-122299411D01*
X294952277Y-122339042D01*
X295237295Y-122384290D01*
X295405843Y-122430329D01*
X295425500Y-122441894D01*
X295504656Y-122585207D01*
X295531333Y-122761373D01*
X295605651Y-123007763D01*
X295715498Y-123116960D01*
X295836475Y-123258839D01*
X295843993Y-123404859D01*
X295752016Y-123498845D01*
X295620288Y-123499923D01*
X295526761Y-123490943D01*
X295483809Y-123552884D01*
X295479561Y-123722749D01*
X295491402Y-123901682D01*
X295525503Y-124346064D01*
X293026757Y-124362222D01*
X292389432Y-124367673D01*
X291804825Y-124375214D01*
X291295014Y-124384358D01*
X290882078Y-124394619D01*
X290588095Y-124405511D01*
X290435144Y-124416548D01*
X290420545Y-124419618D01*
X290361930Y-124401308D01*
X290336384Y-124270931D01*
X290337901Y-124158333D01*
X294769333Y-124158333D01*
X294811667Y-124200667D01*
X294854000Y-124158333D01*
X294811667Y-124116000D01*
X294769333Y-124158333D01*
X290337901Y-124158333D01*
X290339990Y-124003339D01*
X290344011Y-123928595D01*
X290348212Y-123871737D01*
X290536000Y-123871737D01*
X290555846Y-124063082D01*
X290630563Y-124101283D01*
X290782918Y-123995171D01*
X290804500Y-123975878D01*
X290920499Y-123788477D01*
X290959333Y-123592926D01*
X290951134Y-123438667D01*
X291467333Y-123438667D01*
X291505197Y-123640319D01*
X291594333Y-123692667D01*
X291695159Y-123616938D01*
X291721333Y-123438667D01*
X291890667Y-123438667D01*
X291917277Y-123624587D01*
X292016288Y-123690046D01*
X292060000Y-123692667D01*
X292183947Y-123652751D01*
X292227586Y-123504234D01*
X292229333Y-123438667D01*
X292398667Y-123438667D01*
X292425277Y-123624587D01*
X292524288Y-123690046D01*
X292568000Y-123692667D01*
X292691947Y-123652751D01*
X292735586Y-123504234D01*
X292737333Y-123438667D01*
X292906667Y-123438667D01*
X292933277Y-123624587D01*
X293032288Y-123690046D01*
X293076000Y-123692667D01*
X293199947Y-123652751D01*
X293243586Y-123504234D01*
X293245333Y-123438667D01*
X293414667Y-123438667D01*
X293452531Y-123640319D01*
X293541667Y-123692667D01*
X293642493Y-123616938D01*
X293668667Y-123438667D01*
X293838000Y-123438667D01*
X293875864Y-123640319D01*
X293965000Y-123692667D01*
X294065826Y-123616938D01*
X294092000Y-123438667D01*
X294261333Y-123438667D01*
X294287944Y-123624587D01*
X294386955Y-123690046D01*
X294430667Y-123692667D01*
X294554613Y-123652751D01*
X294598253Y-123504234D01*
X294600000Y-123438667D01*
X294769333Y-123438667D01*
X294792114Y-123620193D01*
X294888954Y-123686601D01*
X294981000Y-123692667D01*
X295132272Y-123665329D01*
X295187612Y-123549121D01*
X295192667Y-123438667D01*
X295169885Y-123257140D01*
X295073045Y-123190732D01*
X294981000Y-123184667D01*
X294829728Y-123212004D01*
X294774388Y-123328212D01*
X294769333Y-123438667D01*
X294600000Y-123438667D01*
X294573389Y-123252746D01*
X294474378Y-123187287D01*
X294430667Y-123184667D01*
X294306720Y-123224582D01*
X294263080Y-123373099D01*
X294261333Y-123438667D01*
X294092000Y-123438667D01*
X294054136Y-123237014D01*
X293965000Y-123184667D01*
X293864174Y-123260395D01*
X293838000Y-123438667D01*
X293668667Y-123438667D01*
X293630802Y-123237014D01*
X293541667Y-123184667D01*
X293440840Y-123260395D01*
X293414667Y-123438667D01*
X293245333Y-123438667D01*
X293218723Y-123252746D01*
X293119711Y-123187287D01*
X293076000Y-123184667D01*
X292952053Y-123224582D01*
X292908413Y-123373099D01*
X292906667Y-123438667D01*
X292737333Y-123438667D01*
X292710723Y-123252746D01*
X292611711Y-123187287D01*
X292568000Y-123184667D01*
X292444053Y-123224582D01*
X292400413Y-123373099D01*
X292398667Y-123438667D01*
X292229333Y-123438667D01*
X292202723Y-123252746D01*
X292103711Y-123187287D01*
X292060000Y-123184667D01*
X291936053Y-123224582D01*
X291892413Y-123373099D01*
X291890667Y-123438667D01*
X291721333Y-123438667D01*
X291683469Y-123237014D01*
X291594333Y-123184667D01*
X291493507Y-123260395D01*
X291467333Y-123438667D01*
X290951134Y-123438667D01*
X290950565Y-123427965D01*
X290893078Y-123402574D01*
X290747667Y-123488786D01*
X290571175Y-123686461D01*
X290536000Y-123871737D01*
X290348212Y-123871737D01*
X290374933Y-123510125D01*
X290413925Y-123235840D01*
X290467313Y-123080601D01*
X290541423Y-123019267D01*
X290573801Y-123015333D01*
X290705353Y-122953791D01*
X290858339Y-122805138D01*
X290862973Y-122799302D01*
X290992686Y-122651287D01*
X291076817Y-122585328D01*
X291079695Y-122585094D01*
X291178920Y-122555619D01*
X291376342Y-122478916D01*
X291487410Y-122432384D01*
X291750745Y-122324112D01*
X291978017Y-122238025D01*
X292034284Y-122218997D01*
X292193963Y-122087625D01*
X292283279Y-121847212D01*
X292290175Y-121703000D01*
X292568000Y-121703000D01*
X292610333Y-121745333D01*
X292652667Y-121703000D01*
X292610333Y-121660667D01*
X292568000Y-121703000D01*
X292290175Y-121703000D01*
X292297745Y-121544710D01*
X292269553Y-121406667D01*
X292581368Y-121406667D01*
X292594674Y-121526862D01*
X292624073Y-121512500D01*
X292635256Y-121339158D01*
X292624073Y-121300833D01*
X292593170Y-121290197D01*
X292581368Y-121406667D01*
X292269553Y-121406667D01*
X292232874Y-121227072D01*
X292147251Y-121036832D01*
X292027647Y-120748062D01*
X291978863Y-120494001D01*
X292017667Y-120494001D01*
X292292833Y-120611910D01*
X292493293Y-120733844D01*
X292568646Y-120898201D01*
X292573367Y-120962409D01*
X292578733Y-121195000D01*
X292659852Y-120992208D01*
X292696134Y-120856333D01*
X292822000Y-120856333D01*
X292864333Y-120898667D01*
X292906667Y-120856333D01*
X292864333Y-120814000D01*
X292822000Y-120856333D01*
X292696134Y-120856333D01*
X292704789Y-120823923D01*
X292694163Y-120742608D01*
X292722365Y-120673412D01*
X292840511Y-120588567D01*
X292946731Y-120510804D01*
X292927833Y-120478333D01*
X292847255Y-120402774D01*
X292810470Y-120242500D01*
X292797921Y-120102981D01*
X292777781Y-120125129D01*
X292763570Y-120190076D01*
X292691086Y-120321515D01*
X292510808Y-120403112D01*
X292372934Y-120432243D01*
X292017667Y-120494001D01*
X291978863Y-120494001D01*
X291967096Y-120432721D01*
X291970436Y-120148308D01*
X292042504Y-119952322D01*
X292054856Y-119938611D01*
X292132370Y-119903604D01*
X292150033Y-119971567D01*
X292178345Y-119998373D01*
X292226224Y-119910889D01*
X292850222Y-119910889D01*
X292861844Y-119961223D01*
X292906667Y-119967333D01*
X292976357Y-119936355D01*
X292963111Y-119910889D01*
X292862631Y-119900756D01*
X292850222Y-119910889D01*
X292226224Y-119910889D01*
X292235903Y-119893205D01*
X292304897Y-119768613D01*
X292413279Y-119724062D01*
X292618397Y-119740614D01*
D11*
X295810000Y-127470000D02*
X295370000Y-127460000D01*
X295370000Y-127460000D02*
X295780000Y-127420000D01*
X295780000Y-127420000D02*
X295760000Y-127420000D01*
X295760000Y-127420000D02*
X295760000Y-127430000D01*
D10*
X296680000Y-127190000D02*
X296750000Y-127130000D01*
X296750000Y-127130000D02*
X296870000Y-127090000D01*
X296640000Y-127260000D02*
X296660000Y-127260000D01*
X296990000Y-127250000D02*
X296980000Y-127240000D01*
X296070000Y-127350000D02*
X296010000Y-127350000D01*
X296290000Y-127000000D02*
X296310000Y-126890000D01*
X296310000Y-126890000D02*
X296250000Y-126820000D01*
X296250000Y-126820000D02*
X296230000Y-126700000D01*
X296230000Y-126700000D02*
X296320000Y-126620000D01*
X296320000Y-126620000D02*
X296310000Y-126580000D01*
X296600000Y-127390000D02*
X296630000Y-127410000D01*
X296630000Y-127410000D02*
X296660000Y-127390000D01*
X296660000Y-127390000D02*
X296680000Y-127370000D01*
X296680000Y-127370000D02*
X296710000Y-127350000D01*
X296710000Y-127350000D02*
X296710000Y-127360000D01*
X296710000Y-127360000D02*
X296700000Y-127380000D01*
X296700000Y-127380000D02*
X296680000Y-127400000D01*
X296680000Y-127400000D02*
X296670000Y-127410000D01*
X296670000Y-127410000D02*
X296660000Y-127410000D01*
X296660000Y-127410000D02*
X296580000Y-127360000D01*
X296580000Y-127360000D02*
X296650000Y-127050000D01*
X296650000Y-127050000D02*
X296910000Y-126900000D01*
X296630000Y-126870000D02*
X296550000Y-126840000D01*
X296550000Y-126840000D02*
X296550000Y-126910000D01*
X296550000Y-126910000D02*
X296560000Y-126950000D01*
X296560000Y-126950000D02*
X296550000Y-126950000D01*
X296550000Y-126950000D02*
X296550000Y-127010000D01*
X296550000Y-127010000D02*
X296540000Y-127090000D01*
X296540000Y-127090000D02*
X296530000Y-127170000D01*
X296530000Y-127170000D02*
X296520000Y-127250000D01*
X296520000Y-127250000D02*
X296520000Y-127320000D01*
X296520000Y-127320000D02*
X296560000Y-127360000D01*
X296560000Y-127360000D02*
X296600000Y-127400000D01*
X296600000Y-127400000D02*
X296600000Y-127140000D01*
X296160000Y-127270000D02*
X296180000Y-127150000D01*
X296920000Y-127390000D02*
X296940000Y-127280000D01*
X296940000Y-127280000D02*
X296920000Y-127180000D01*
X296920000Y-127180000D02*
X296820000Y-127130000D01*
X296820000Y-127130000D02*
X296770000Y-127140000D01*
X296060000Y-127290000D02*
X296090000Y-127200000D01*
X296090000Y-127200000D02*
X296060000Y-127170000D01*
X296060000Y-127170000D02*
X296230000Y-127090000D01*
X296230000Y-127090000D02*
X296130000Y-127030000D01*
%TO.C,SOIC-8*%
X223935000Y-124865000D02*
X223935000Y-124915000D01*
X228085000Y-124865000D02*
X228085000Y-125010000D01*
X228085000Y-130015000D02*
X228085000Y-129870000D01*
X223935000Y-130015000D02*
X223935000Y-129870000D01*
X223935000Y-124865000D02*
X228085000Y-124865000D01*
X223935000Y-130015000D02*
X228085000Y-130015000D01*
X223935000Y-124915000D02*
X222535000Y-124915000D01*
%TO.C,QFP-64*%
X254535000Y-123465000D02*
X253510000Y-123465000D01*
X264885000Y-122465000D02*
X263810000Y-122465000D01*
X264885000Y-132815000D02*
X263810000Y-132815000D01*
X254535000Y-132815000D02*
X255610000Y-132815000D01*
X254535000Y-122465000D02*
X255610000Y-122465000D01*
X254535000Y-132815000D02*
X254535000Y-131740000D01*
X264885000Y-132815000D02*
X264885000Y-131740000D01*
X264885000Y-122465000D02*
X264885000Y-123540000D01*
X254535000Y-122465000D02*
X254535000Y-123465000D01*
D11*
%TO.C,SOT-223*%
X216210000Y-130650000D02*
X210200000Y-130650000D01*
X213960000Y-123830000D02*
X210200000Y-123830000D01*
X210200000Y-130650000D02*
X210200000Y-129390000D01*
X210200000Y-123830000D02*
X210200000Y-125090000D01*
%TO.C,SOT-23-5*%
X195920000Y-128000000D02*
X193470000Y-128000000D01*
X194120000Y-131220000D02*
X195920000Y-131220000D01*
%TO.C,SOT-23*%
X195580000Y-126110000D02*
X195580000Y-125180000D01*
X195580000Y-122950000D02*
X195580000Y-123880000D01*
X195580000Y-122950000D02*
X193420000Y-122950000D01*
X195580000Y-126110000D02*
X194120000Y-126110000D01*
%TO.C,6mm*%
X184170000Y-123840000D02*
X184200000Y-123840000D01*
X190630000Y-123840000D02*
X190600000Y-123840000D01*
X190630000Y-130300000D02*
X190600000Y-130300000D01*
X184200000Y-130300000D02*
X184170000Y-130300000D01*
X186100000Y-123840000D02*
X188700000Y-123840000D01*
X184170000Y-130300000D02*
X184170000Y-123840000D01*
X186100000Y-130300000D02*
X188700000Y-130300000D01*
X190630000Y-130300000D02*
X190630000Y-123840000D01*
%TO.C,1206*%
X158677000Y-129034064D02*
X158677000Y-127829936D01*
X160497000Y-129034064D02*
X160497000Y-127829936D01*
%TO.C,0805*%
X156001666Y-128093252D02*
X156001666Y-127570748D01*
X157421666Y-128093252D02*
X157421666Y-127570748D01*
%TO.C,0603*%
X153716333Y-127803267D02*
X153716333Y-127460733D01*
X154736333Y-127803267D02*
X154736333Y-127460733D01*
%TO.C,UFBGA-201*%
D10*
X236319523Y-120492380D02*
X236319523Y-121301904D01*
X236367142Y-121397142D01*
X236414761Y-121444761D01*
X236510000Y-121492380D01*
X236700476Y-121492380D01*
X236795714Y-121444761D01*
X236843333Y-121397142D01*
X236890952Y-121301904D01*
X236890952Y-120492380D01*
X237700476Y-120968571D02*
X237367142Y-120968571D01*
X237367142Y-121492380D02*
X237367142Y-120492380D01*
X237843333Y-120492380D01*
X238557619Y-120968571D02*
X238700476Y-121016190D01*
X238748095Y-121063809D01*
X238795714Y-121159047D01*
X238795714Y-121301904D01*
X238748095Y-121397142D01*
X238700476Y-121444761D01*
X238605238Y-121492380D01*
X238224285Y-121492380D01*
X238224285Y-120492380D01*
X238557619Y-120492380D01*
X238652857Y-120540000D01*
X238700476Y-120587619D01*
X238748095Y-120682857D01*
X238748095Y-120778095D01*
X238700476Y-120873333D01*
X238652857Y-120920952D01*
X238557619Y-120968571D01*
X238224285Y-120968571D01*
X239748095Y-120540000D02*
X239652857Y-120492380D01*
X239510000Y-120492380D01*
X239367142Y-120540000D01*
X239271904Y-120635238D01*
X239224285Y-120730476D01*
X239176666Y-120920952D01*
X239176666Y-121063809D01*
X239224285Y-121254285D01*
X239271904Y-121349523D01*
X239367142Y-121444761D01*
X239510000Y-121492380D01*
X239605238Y-121492380D01*
X239748095Y-121444761D01*
X239795714Y-121397142D01*
X239795714Y-121063809D01*
X239605238Y-121063809D01*
X240176666Y-121206666D02*
X240652857Y-121206666D01*
X240081428Y-121492380D02*
X240414761Y-120492380D01*
X240748095Y-121492380D01*
X241081428Y-121111428D02*
X241843333Y-121111428D01*
X242271904Y-120587619D02*
X242319523Y-120540000D01*
X242414761Y-120492380D01*
X242652857Y-120492380D01*
X242748095Y-120540000D01*
X242795714Y-120587619D01*
X242843333Y-120682857D01*
X242843333Y-120778095D01*
X242795714Y-120920952D01*
X242224285Y-121492380D01*
X242843333Y-121492380D01*
X243462380Y-120492380D02*
X243557619Y-120492380D01*
X243652857Y-120540000D01*
X243700476Y-120587619D01*
X243748095Y-120682857D01*
X243795714Y-120873333D01*
X243795714Y-121111428D01*
X243748095Y-121301904D01*
X243700476Y-121397142D01*
X243652857Y-121444761D01*
X243557619Y-121492380D01*
X243462380Y-121492380D01*
X243367142Y-121444761D01*
X243319523Y-121397142D01*
X243271904Y-121301904D01*
X243224285Y-121111428D01*
X243224285Y-120873333D01*
X243271904Y-120682857D01*
X243319523Y-120587619D01*
X243367142Y-120540000D01*
X243462380Y-120492380D01*
X244748095Y-121492380D02*
X244176666Y-121492380D01*
X244462380Y-121492380D02*
X244462380Y-120492380D01*
X244367142Y-120635238D01*
X244271904Y-120730476D01*
X244176666Y-120778095D01*
%TO.C,SOIC-8*%
X223367142Y-124344761D02*
X223510000Y-124392380D01*
X223748095Y-124392380D01*
X223843333Y-124344761D01*
X223890952Y-124297142D01*
X223938571Y-124201904D01*
X223938571Y-124106666D01*
X223890952Y-124011428D01*
X223843333Y-123963809D01*
X223748095Y-123916190D01*
X223557619Y-123868571D01*
X223462380Y-123820952D01*
X223414761Y-123773333D01*
X223367142Y-123678095D01*
X223367142Y-123582857D01*
X223414761Y-123487619D01*
X223462380Y-123440000D01*
X223557619Y-123392380D01*
X223795714Y-123392380D01*
X223938571Y-123440000D01*
X224557619Y-123392380D02*
X224748095Y-123392380D01*
X224843333Y-123440000D01*
X224938571Y-123535238D01*
X224986190Y-123725714D01*
X224986190Y-124059047D01*
X224938571Y-124249523D01*
X224843333Y-124344761D01*
X224748095Y-124392380D01*
X224557619Y-124392380D01*
X224462380Y-124344761D01*
X224367142Y-124249523D01*
X224319523Y-124059047D01*
X224319523Y-123725714D01*
X224367142Y-123535238D01*
X224462380Y-123440000D01*
X224557619Y-123392380D01*
X225414761Y-124392380D02*
X225414761Y-123392380D01*
X226462380Y-124297142D02*
X226414761Y-124344761D01*
X226271904Y-124392380D01*
X226176666Y-124392380D01*
X226033809Y-124344761D01*
X225938571Y-124249523D01*
X225890952Y-124154285D01*
X225843333Y-123963809D01*
X225843333Y-123820952D01*
X225890952Y-123630476D01*
X225938571Y-123535238D01*
X226033809Y-123440000D01*
X226176666Y-123392380D01*
X226271904Y-123392380D01*
X226414761Y-123440000D01*
X226462380Y-123487619D01*
X226890952Y-124011428D02*
X227652857Y-124011428D01*
X228271904Y-123820952D02*
X228176666Y-123773333D01*
X228129047Y-123725714D01*
X228081428Y-123630476D01*
X228081428Y-123582857D01*
X228129047Y-123487619D01*
X228176666Y-123440000D01*
X228271904Y-123392380D01*
X228462380Y-123392380D01*
X228557619Y-123440000D01*
X228605238Y-123487619D01*
X228652857Y-123582857D01*
X228652857Y-123630476D01*
X228605238Y-123725714D01*
X228557619Y-123773333D01*
X228462380Y-123820952D01*
X228271904Y-123820952D01*
X228176666Y-123868571D01*
X228129047Y-123916190D01*
X228081428Y-124011428D01*
X228081428Y-124201904D01*
X228129047Y-124297142D01*
X228176666Y-124344761D01*
X228271904Y-124392380D01*
X228462380Y-124392380D01*
X228557619Y-124344761D01*
X228605238Y-124297142D01*
X228652857Y-124201904D01*
X228652857Y-124011428D01*
X228605238Y-123916190D01*
X228557619Y-123868571D01*
X228462380Y-123820952D01*
%TO.C,QFP-64*%
X257856952Y-128301619D02*
X257761714Y-128254000D01*
X257666476Y-128158761D01*
X257523619Y-128015904D01*
X257428380Y-127968285D01*
X257333142Y-127968285D01*
X257380761Y-128206380D02*
X257285523Y-128158761D01*
X257190285Y-128063523D01*
X257142666Y-127873047D01*
X257142666Y-127539714D01*
X257190285Y-127349238D01*
X257285523Y-127254000D01*
X257380761Y-127206380D01*
X257571238Y-127206380D01*
X257666476Y-127254000D01*
X257761714Y-127349238D01*
X257809333Y-127539714D01*
X257809333Y-127873047D01*
X257761714Y-128063523D01*
X257666476Y-128158761D01*
X257571238Y-128206380D01*
X257380761Y-128206380D01*
X258571238Y-127682571D02*
X258237904Y-127682571D01*
X258237904Y-128206380D02*
X258237904Y-127206380D01*
X258714095Y-127206380D01*
X259095047Y-128206380D02*
X259095047Y-127206380D01*
X259476000Y-127206380D01*
X259571238Y-127254000D01*
X259618857Y-127301619D01*
X259666476Y-127396857D01*
X259666476Y-127539714D01*
X259618857Y-127634952D01*
X259571238Y-127682571D01*
X259476000Y-127730190D01*
X259095047Y-127730190D01*
X260095047Y-127825428D02*
X260856952Y-127825428D01*
X261761714Y-127206380D02*
X261571238Y-127206380D01*
X261476000Y-127254000D01*
X261428380Y-127301619D01*
X261333142Y-127444476D01*
X261285523Y-127634952D01*
X261285523Y-128015904D01*
X261333142Y-128111142D01*
X261380761Y-128158761D01*
X261476000Y-128206380D01*
X261666476Y-128206380D01*
X261761714Y-128158761D01*
X261809333Y-128111142D01*
X261856952Y-128015904D01*
X261856952Y-127777809D01*
X261809333Y-127682571D01*
X261761714Y-127634952D01*
X261666476Y-127587333D01*
X261476000Y-127587333D01*
X261380761Y-127634952D01*
X261333142Y-127682571D01*
X261285523Y-127777809D01*
X262714095Y-127539714D02*
X262714095Y-128206380D01*
X262476000Y-127158761D02*
X262237904Y-127873047D01*
X262856952Y-127873047D01*
%TO.C,SOT-223*%
X208871904Y-132144761D02*
X209014761Y-132192380D01*
X209252857Y-132192380D01*
X209348095Y-132144761D01*
X209395714Y-132097142D01*
X209443333Y-132001904D01*
X209443333Y-131906666D01*
X209395714Y-131811428D01*
X209348095Y-131763809D01*
X209252857Y-131716190D01*
X209062380Y-131668571D01*
X208967142Y-131620952D01*
X208919523Y-131573333D01*
X208871904Y-131478095D01*
X208871904Y-131382857D01*
X208919523Y-131287619D01*
X208967142Y-131240000D01*
X209062380Y-131192380D01*
X209300476Y-131192380D01*
X209443333Y-131240000D01*
X210062380Y-131192380D02*
X210252857Y-131192380D01*
X210348095Y-131240000D01*
X210443333Y-131335238D01*
X210490952Y-131525714D01*
X210490952Y-131859047D01*
X210443333Y-132049523D01*
X210348095Y-132144761D01*
X210252857Y-132192380D01*
X210062380Y-132192380D01*
X209967142Y-132144761D01*
X209871904Y-132049523D01*
X209824285Y-131859047D01*
X209824285Y-131525714D01*
X209871904Y-131335238D01*
X209967142Y-131240000D01*
X210062380Y-131192380D01*
X210776666Y-131192380D02*
X211348095Y-131192380D01*
X211062380Y-132192380D02*
X211062380Y-131192380D01*
X211681428Y-131811428D02*
X212443333Y-131811428D01*
X212871904Y-131287619D02*
X212919523Y-131240000D01*
X213014761Y-131192380D01*
X213252857Y-131192380D01*
X213348095Y-131240000D01*
X213395714Y-131287619D01*
X213443333Y-131382857D01*
X213443333Y-131478095D01*
X213395714Y-131620952D01*
X212824285Y-132192380D01*
X213443333Y-132192380D01*
X213824285Y-131287619D02*
X213871904Y-131240000D01*
X213967142Y-131192380D01*
X214205238Y-131192380D01*
X214300476Y-131240000D01*
X214348095Y-131287619D01*
X214395714Y-131382857D01*
X214395714Y-131478095D01*
X214348095Y-131620952D01*
X213776666Y-132192380D01*
X214395714Y-132192380D01*
X214729047Y-131192380D02*
X215348095Y-131192380D01*
X215014761Y-131573333D01*
X215157619Y-131573333D01*
X215252857Y-131620952D01*
X215300476Y-131668571D01*
X215348095Y-131763809D01*
X215348095Y-132001904D01*
X215300476Y-132097142D01*
X215252857Y-132144761D01*
X215157619Y-132192380D01*
X214871904Y-132192380D01*
X214776666Y-132144761D01*
X214729047Y-132097142D01*
%TO.C,SOT-23-5*%
X197512857Y-129760761D02*
X197655714Y-129808380D01*
X197893809Y-129808380D01*
X197989047Y-129760761D01*
X198036666Y-129713142D01*
X198084285Y-129617904D01*
X198084285Y-129522666D01*
X198036666Y-129427428D01*
X197989047Y-129379809D01*
X197893809Y-129332190D01*
X197703333Y-129284571D01*
X197608095Y-129236952D01*
X197560476Y-129189333D01*
X197512857Y-129094095D01*
X197512857Y-128998857D01*
X197560476Y-128903619D01*
X197608095Y-128856000D01*
X197703333Y-128808380D01*
X197941428Y-128808380D01*
X198084285Y-128856000D01*
X198703333Y-128808380D02*
X198893809Y-128808380D01*
X198989047Y-128856000D01*
X199084285Y-128951238D01*
X199131904Y-129141714D01*
X199131904Y-129475047D01*
X199084285Y-129665523D01*
X198989047Y-129760761D01*
X198893809Y-129808380D01*
X198703333Y-129808380D01*
X198608095Y-129760761D01*
X198512857Y-129665523D01*
X198465238Y-129475047D01*
X198465238Y-129141714D01*
X198512857Y-128951238D01*
X198608095Y-128856000D01*
X198703333Y-128808380D01*
X199417619Y-128808380D02*
X199989047Y-128808380D01*
X199703333Y-129808380D02*
X199703333Y-128808380D01*
X200322380Y-129427428D02*
X201084285Y-129427428D01*
X201512857Y-128903619D02*
X201560476Y-128856000D01*
X201655714Y-128808380D01*
X201893809Y-128808380D01*
X201989047Y-128856000D01*
X202036666Y-128903619D01*
X202084285Y-128998857D01*
X202084285Y-129094095D01*
X202036666Y-129236952D01*
X201465238Y-129808380D01*
X202084285Y-129808380D01*
X202417619Y-128808380D02*
X203036666Y-128808380D01*
X202703333Y-129189333D01*
X202846190Y-129189333D01*
X202941428Y-129236952D01*
X202989047Y-129284571D01*
X203036666Y-129379809D01*
X203036666Y-129617904D01*
X202989047Y-129713142D01*
X202941428Y-129760761D01*
X202846190Y-129808380D01*
X202560476Y-129808380D01*
X202465238Y-129760761D01*
X202417619Y-129713142D01*
X203465238Y-129427428D02*
X204227142Y-129427428D01*
X205179523Y-128808380D02*
X204703333Y-128808380D01*
X204655714Y-129284571D01*
X204703333Y-129236952D01*
X204798571Y-129189333D01*
X205036666Y-129189333D01*
X205131904Y-129236952D01*
X205179523Y-129284571D01*
X205227142Y-129379809D01*
X205227142Y-129617904D01*
X205179523Y-129713142D01*
X205131904Y-129760761D01*
X205036666Y-129808380D01*
X204798571Y-129808380D01*
X204703333Y-129760761D01*
X204655714Y-129713142D01*
%TO.C,SOT-23*%
X197592095Y-124934761D02*
X197734952Y-124982380D01*
X197973047Y-124982380D01*
X198068285Y-124934761D01*
X198115904Y-124887142D01*
X198163523Y-124791904D01*
X198163523Y-124696666D01*
X198115904Y-124601428D01*
X198068285Y-124553809D01*
X197973047Y-124506190D01*
X197782571Y-124458571D01*
X197687333Y-124410952D01*
X197639714Y-124363333D01*
X197592095Y-124268095D01*
X197592095Y-124172857D01*
X197639714Y-124077619D01*
X197687333Y-124030000D01*
X197782571Y-123982380D01*
X198020666Y-123982380D01*
X198163523Y-124030000D01*
X198782571Y-123982380D02*
X198973047Y-123982380D01*
X199068285Y-124030000D01*
X199163523Y-124125238D01*
X199211142Y-124315714D01*
X199211142Y-124649047D01*
X199163523Y-124839523D01*
X199068285Y-124934761D01*
X198973047Y-124982380D01*
X198782571Y-124982380D01*
X198687333Y-124934761D01*
X198592095Y-124839523D01*
X198544476Y-124649047D01*
X198544476Y-124315714D01*
X198592095Y-124125238D01*
X198687333Y-124030000D01*
X198782571Y-123982380D01*
X199496857Y-123982380D02*
X200068285Y-123982380D01*
X199782571Y-124982380D02*
X199782571Y-123982380D01*
X200401619Y-124601428D02*
X201163523Y-124601428D01*
X201592095Y-124077619D02*
X201639714Y-124030000D01*
X201734952Y-123982380D01*
X201973047Y-123982380D01*
X202068285Y-124030000D01*
X202115904Y-124077619D01*
X202163523Y-124172857D01*
X202163523Y-124268095D01*
X202115904Y-124410952D01*
X201544476Y-124982380D01*
X202163523Y-124982380D01*
X202496857Y-123982380D02*
X203115904Y-123982380D01*
X202782571Y-124363333D01*
X202925428Y-124363333D01*
X203020666Y-124410952D01*
X203068285Y-124458571D01*
X203115904Y-124553809D01*
X203115904Y-124791904D01*
X203068285Y-124887142D01*
X203020666Y-124934761D01*
X202925428Y-124982380D01*
X202639714Y-124982380D01*
X202544476Y-124934761D01*
X202496857Y-124887142D01*
%TO.C,6mm*%
X186257142Y-125760380D02*
X186066666Y-125760380D01*
X185971428Y-125808000D01*
X185923809Y-125855619D01*
X185828571Y-125998476D01*
X185780952Y-126188952D01*
X185780952Y-126569904D01*
X185828571Y-126665142D01*
X185876190Y-126712761D01*
X185971428Y-126760380D01*
X186161904Y-126760380D01*
X186257142Y-126712761D01*
X186304761Y-126665142D01*
X186352380Y-126569904D01*
X186352380Y-126331809D01*
X186304761Y-126236571D01*
X186257142Y-126188952D01*
X186161904Y-126141333D01*
X185971428Y-126141333D01*
X185876190Y-126188952D01*
X185828571Y-126236571D01*
X185780952Y-126331809D01*
X186780952Y-126760380D02*
X186780952Y-126093714D01*
X186780952Y-126188952D02*
X186828571Y-126141333D01*
X186923809Y-126093714D01*
X187066666Y-126093714D01*
X187161904Y-126141333D01*
X187209523Y-126236571D01*
X187209523Y-126760380D01*
X187209523Y-126236571D02*
X187257142Y-126141333D01*
X187352380Y-126093714D01*
X187495238Y-126093714D01*
X187590476Y-126141333D01*
X187638095Y-126236571D01*
X187638095Y-126760380D01*
X188114285Y-126760380D02*
X188114285Y-126093714D01*
X188114285Y-126188952D02*
X188161904Y-126141333D01*
X188257142Y-126093714D01*
X188400000Y-126093714D01*
X188495238Y-126141333D01*
X188542857Y-126236571D01*
X188542857Y-126760380D01*
X188542857Y-126236571D02*
X188590476Y-126141333D01*
X188685714Y-126093714D01*
X188828571Y-126093714D01*
X188923809Y-126141333D01*
X188971428Y-126236571D01*
X188971428Y-126760380D01*
%TO.C,1206*%
X160239380Y-124454857D02*
X160239380Y-125026285D01*
X160239380Y-124740571D02*
X159239380Y-124740571D01*
X159382238Y-124835809D01*
X159477476Y-124931047D01*
X159525095Y-125026285D01*
X159334619Y-124073904D02*
X159287000Y-124026285D01*
X159239380Y-123931047D01*
X159239380Y-123692952D01*
X159287000Y-123597714D01*
X159334619Y-123550095D01*
X159429857Y-123502476D01*
X159525095Y-123502476D01*
X159667952Y-123550095D01*
X160239380Y-124121523D01*
X160239380Y-123502476D01*
X159239380Y-122883428D02*
X159239380Y-122788190D01*
X159287000Y-122692952D01*
X159334619Y-122645333D01*
X159429857Y-122597714D01*
X159620333Y-122550095D01*
X159858428Y-122550095D01*
X160048904Y-122597714D01*
X160144142Y-122645333D01*
X160191761Y-122692952D01*
X160239380Y-122788190D01*
X160239380Y-122883428D01*
X160191761Y-122978666D01*
X160144142Y-123026285D01*
X160048904Y-123073904D01*
X159858428Y-123121523D01*
X159620333Y-123121523D01*
X159429857Y-123073904D01*
X159334619Y-123026285D01*
X159287000Y-122978666D01*
X159239380Y-122883428D01*
X159239380Y-121692952D02*
X159239380Y-121883428D01*
X159287000Y-121978666D01*
X159334619Y-122026285D01*
X159477476Y-122121523D01*
X159667952Y-122169142D01*
X160048904Y-122169142D01*
X160144142Y-122121523D01*
X160191761Y-122073904D01*
X160239380Y-121978666D01*
X160239380Y-121788190D01*
X160191761Y-121692952D01*
X160144142Y-121645333D01*
X160048904Y-121597714D01*
X159810809Y-121597714D01*
X159715571Y-121645333D01*
X159667952Y-121692952D01*
X159620333Y-121788190D01*
X159620333Y-121978666D01*
X159667952Y-122073904D01*
X159715571Y-122121523D01*
X159810809Y-122169142D01*
%TO.C,0805*%
X156174046Y-124788190D02*
X156174046Y-124692952D01*
X156221666Y-124597714D01*
X156269285Y-124550095D01*
X156364523Y-124502476D01*
X156554999Y-124454857D01*
X156793094Y-124454857D01*
X156983570Y-124502476D01*
X157078808Y-124550095D01*
X157126427Y-124597714D01*
X157174046Y-124692952D01*
X157174046Y-124788190D01*
X157126427Y-124883428D01*
X157078808Y-124931047D01*
X156983570Y-124978666D01*
X156793094Y-125026285D01*
X156554999Y-125026285D01*
X156364523Y-124978666D01*
X156269285Y-124931047D01*
X156221666Y-124883428D01*
X156174046Y-124788190D01*
X156602618Y-123883428D02*
X156554999Y-123978666D01*
X156507380Y-124026285D01*
X156412142Y-124073904D01*
X156364523Y-124073904D01*
X156269285Y-124026285D01*
X156221666Y-123978666D01*
X156174046Y-123883428D01*
X156174046Y-123692952D01*
X156221666Y-123597714D01*
X156269285Y-123550095D01*
X156364523Y-123502476D01*
X156412142Y-123502476D01*
X156507380Y-123550095D01*
X156554999Y-123597714D01*
X156602618Y-123692952D01*
X156602618Y-123883428D01*
X156650237Y-123978666D01*
X156697856Y-124026285D01*
X156793094Y-124073904D01*
X156983570Y-124073904D01*
X157078808Y-124026285D01*
X157126427Y-123978666D01*
X157174046Y-123883428D01*
X157174046Y-123692952D01*
X157126427Y-123597714D01*
X157078808Y-123550095D01*
X156983570Y-123502476D01*
X156793094Y-123502476D01*
X156697856Y-123550095D01*
X156650237Y-123597714D01*
X156602618Y-123692952D01*
X156174046Y-122883428D02*
X156174046Y-122788190D01*
X156221666Y-122692952D01*
X156269285Y-122645333D01*
X156364523Y-122597714D01*
X156554999Y-122550095D01*
X156793094Y-122550095D01*
X156983570Y-122597714D01*
X157078808Y-122645333D01*
X157126427Y-122692952D01*
X157174046Y-122788190D01*
X157174046Y-122883428D01*
X157126427Y-122978666D01*
X157078808Y-123026285D01*
X156983570Y-123073904D01*
X156793094Y-123121523D01*
X156554999Y-123121523D01*
X156364523Y-123073904D01*
X156269285Y-123026285D01*
X156221666Y-122978666D01*
X156174046Y-122883428D01*
X156174046Y-121645333D02*
X156174046Y-122121523D01*
X156650237Y-122169142D01*
X156602618Y-122121523D01*
X156554999Y-122026285D01*
X156554999Y-121788190D01*
X156602618Y-121692952D01*
X156650237Y-121645333D01*
X156745475Y-121597714D01*
X156983570Y-121597714D01*
X157078808Y-121645333D01*
X157126427Y-121692952D01*
X157174046Y-121788190D01*
X157174046Y-122026285D01*
X157126427Y-122121523D01*
X157078808Y-122169142D01*
%TO.C,0402*%
X151821380Y-124788190D02*
X151821380Y-124692952D01*
X151869000Y-124597714D01*
X151916619Y-124550095D01*
X152011857Y-124502476D01*
X152202333Y-124454857D01*
X152440428Y-124454857D01*
X152630904Y-124502476D01*
X152726142Y-124550095D01*
X152773761Y-124597714D01*
X152821380Y-124692952D01*
X152821380Y-124788190D01*
X152773761Y-124883428D01*
X152726142Y-124931047D01*
X152630904Y-124978666D01*
X152440428Y-125026285D01*
X152202333Y-125026285D01*
X152011857Y-124978666D01*
X151916619Y-124931047D01*
X151869000Y-124883428D01*
X151821380Y-124788190D01*
X152154714Y-123597714D02*
X152821380Y-123597714D01*
X151773761Y-123835809D02*
X152488047Y-124073904D01*
X152488047Y-123454857D01*
X151821380Y-122883428D02*
X151821380Y-122788190D01*
X151869000Y-122692952D01*
X151916619Y-122645333D01*
X152011857Y-122597714D01*
X152202333Y-122550095D01*
X152440428Y-122550095D01*
X152630904Y-122597714D01*
X152726142Y-122645333D01*
X152773761Y-122692952D01*
X152821380Y-122788190D01*
X152821380Y-122883428D01*
X152773761Y-122978666D01*
X152726142Y-123026285D01*
X152630904Y-123073904D01*
X152440428Y-123121523D01*
X152202333Y-123121523D01*
X152011857Y-123073904D01*
X151916619Y-123026285D01*
X151869000Y-122978666D01*
X151821380Y-122883428D01*
X151916619Y-122169142D02*
X151869000Y-122121523D01*
X151821380Y-122026285D01*
X151821380Y-121788190D01*
X151869000Y-121692952D01*
X151916619Y-121645333D01*
X152011857Y-121597714D01*
X152107095Y-121597714D01*
X152249952Y-121645333D01*
X152821380Y-122216761D01*
X152821380Y-121597714D01*
%TO.C,0603*%
X153616713Y-124788190D02*
X153616713Y-124692952D01*
X153664333Y-124597714D01*
X153711952Y-124550095D01*
X153807190Y-124502476D01*
X153997666Y-124454857D01*
X154235761Y-124454857D01*
X154426237Y-124502476D01*
X154521475Y-124550095D01*
X154569094Y-124597714D01*
X154616713Y-124692952D01*
X154616713Y-124788190D01*
X154569094Y-124883428D01*
X154521475Y-124931047D01*
X154426237Y-124978666D01*
X154235761Y-125026285D01*
X153997666Y-125026285D01*
X153807190Y-124978666D01*
X153711952Y-124931047D01*
X153664333Y-124883428D01*
X153616713Y-124788190D01*
X153616713Y-123597714D02*
X153616713Y-123788190D01*
X153664333Y-123883428D01*
X153711952Y-123931047D01*
X153854809Y-124026285D01*
X154045285Y-124073904D01*
X154426237Y-124073904D01*
X154521475Y-124026285D01*
X154569094Y-123978666D01*
X154616713Y-123883428D01*
X154616713Y-123692952D01*
X154569094Y-123597714D01*
X154521475Y-123550095D01*
X154426237Y-123502476D01*
X154188142Y-123502476D01*
X154092904Y-123550095D01*
X154045285Y-123597714D01*
X153997666Y-123692952D01*
X153997666Y-123883428D01*
X154045285Y-123978666D01*
X154092904Y-124026285D01*
X154188142Y-124073904D01*
X153616713Y-122883428D02*
X153616713Y-122788190D01*
X153664333Y-122692952D01*
X153711952Y-122645333D01*
X153807190Y-122597714D01*
X153997666Y-122550095D01*
X154235761Y-122550095D01*
X154426237Y-122597714D01*
X154521475Y-122645333D01*
X154569094Y-122692952D01*
X154616713Y-122788190D01*
X154616713Y-122883428D01*
X154569094Y-122978666D01*
X154521475Y-123026285D01*
X154426237Y-123073904D01*
X154235761Y-123121523D01*
X153997666Y-123121523D01*
X153807190Y-123073904D01*
X153711952Y-123026285D01*
X153664333Y-122978666D01*
X153616713Y-122883428D01*
X153616713Y-122216761D02*
X153616713Y-121597714D01*
X153997666Y-121931047D01*
X153997666Y-121788190D01*
X154045285Y-121692952D01*
X154092904Y-121645333D01*
X154188142Y-121597714D01*
X154426237Y-121597714D01*
X154521475Y-121645333D01*
X154569094Y-121692952D01*
X154616713Y-121788190D01*
X154616713Y-122073904D01*
X154569094Y-122169142D01*
X154521475Y-122216761D01*
%TD*%
M02*
