%TF.GenerationSoftware,KiCad,Pcbnew,(5.1.6)-1*%
%TF.CreationDate,2020-08-25T11:31:30-04:00*%
%TF.ProjectId,PCBRuler,50434252-756c-4657-922e-6b696361645f,rev?*%
%TF.SameCoordinates,Original*%
%TF.FileFunction,Paste,Bot*%
%TF.FilePolarity,Positive*%
%FSLAX46Y46*%
G04 Gerber Fmt 4.6, Leading zero omitted, Abs format (unit mm)*
G04 Created by KiCad (PCBNEW (5.1.6)-1) date 2020-08-25 11:31:30*
%MOMM*%
%LPD*%
G01*
G04 APERTURE LIST*
%ADD10C,0.300000*%
%ADD11R,1.300000X1.550000*%
%ADD12R,1.550000X0.600000*%
%ADD13R,0.900000X0.800000*%
%ADD14R,2.000000X1.500000*%
%ADD15R,2.000000X3.800000*%
%ADD16R,0.250000X1.000000*%
%ADD17R,1.000000X0.250000*%
%ADD18R,1.060000X0.650000*%
G04 APERTURE END LIST*
D10*
%TO.C,UFBGA-201*%
X204150000Y-129950000D03*
X204800000Y-129950000D03*
X205450000Y-129950000D03*
X206100000Y-129950000D03*
X206750000Y-129950000D03*
X207400000Y-129950000D03*
X208050000Y-129950000D03*
X208700000Y-129950000D03*
X209350000Y-129950000D03*
X210000000Y-129950000D03*
X210650000Y-129950000D03*
X211300000Y-129950000D03*
X211950000Y-129950000D03*
X212600000Y-129950000D03*
X213250000Y-129950000D03*
X204150000Y-129300000D03*
X204800000Y-129300000D03*
X205450000Y-129300000D03*
X206100000Y-129300000D03*
X206750000Y-129300000D03*
X207400000Y-129300000D03*
X208050000Y-129300000D03*
X208700000Y-129300000D03*
X209350000Y-129300000D03*
X210000000Y-129300000D03*
X210650000Y-129300000D03*
X211300000Y-129300000D03*
X211950000Y-129300000D03*
X212600000Y-129300000D03*
X213250000Y-129300000D03*
X204150000Y-128650000D03*
X204800000Y-128650000D03*
X205450000Y-128650000D03*
X206100000Y-128650000D03*
X206750000Y-128650000D03*
X207400000Y-128650000D03*
X208050000Y-128650000D03*
X208700000Y-128650000D03*
X209350000Y-128650000D03*
X210000000Y-128650000D03*
X210650000Y-128650000D03*
X211300000Y-128650000D03*
X211950000Y-128650000D03*
X212600000Y-128650000D03*
X213250000Y-128650000D03*
X204150000Y-128000000D03*
X204800000Y-128000000D03*
X205450000Y-128000000D03*
X206100000Y-128000000D03*
X206750000Y-128000000D03*
X207400000Y-128000000D03*
X208050000Y-128000000D03*
X208700000Y-128000000D03*
X209350000Y-128000000D03*
X210000000Y-128000000D03*
X210650000Y-128000000D03*
X211300000Y-128000000D03*
X211950000Y-128000000D03*
X212600000Y-128000000D03*
X213250000Y-128000000D03*
X204150000Y-127350000D03*
X204800000Y-127350000D03*
X205450000Y-127350000D03*
X206100000Y-127350000D03*
X211300000Y-127350000D03*
X211950000Y-127350000D03*
X212600000Y-127350000D03*
X213250000Y-127350000D03*
X204150000Y-126700000D03*
X204800000Y-126700000D03*
X205450000Y-126700000D03*
X206100000Y-126700000D03*
X207400000Y-126700000D03*
X208050000Y-126700000D03*
X208700000Y-126700000D03*
X209350000Y-126700000D03*
X210000000Y-126700000D03*
X211300000Y-126700000D03*
X211950000Y-126700000D03*
X212600000Y-126700000D03*
X213250000Y-126700000D03*
X204150000Y-126050000D03*
X204800000Y-126050000D03*
X205450000Y-126050000D03*
X206100000Y-126050000D03*
X207400000Y-126050000D03*
X208050000Y-126050000D03*
X208700000Y-126050000D03*
X209350000Y-126050000D03*
X210000000Y-126050000D03*
X211300000Y-126050000D03*
X211950000Y-126050000D03*
X212600000Y-126050000D03*
X213250000Y-126050000D03*
X204150000Y-125400000D03*
X204800000Y-125400000D03*
X205450000Y-125400000D03*
X206100000Y-125400000D03*
X207400000Y-125400000D03*
X208050000Y-125400000D03*
X208700000Y-125400000D03*
X209350000Y-125400000D03*
X210000000Y-125400000D03*
X211300000Y-125400000D03*
X211950000Y-125400000D03*
X212600000Y-125400000D03*
X213250000Y-125400000D03*
X204150000Y-124750000D03*
X204800000Y-124750000D03*
X205450000Y-124750000D03*
X206100000Y-124750000D03*
X207400000Y-124750000D03*
X208050000Y-124750000D03*
X208700000Y-124750000D03*
X209350000Y-124750000D03*
X210000000Y-124750000D03*
X211300000Y-124750000D03*
X211950000Y-124750000D03*
X212600000Y-124750000D03*
X213250000Y-124750000D03*
X204150000Y-124100000D03*
X204800000Y-124100000D03*
X205450000Y-124100000D03*
X206100000Y-124100000D03*
X207400000Y-124100000D03*
X208050000Y-124100000D03*
X208700000Y-124100000D03*
X209350000Y-124100000D03*
X210000000Y-124100000D03*
X211300000Y-124100000D03*
X211950000Y-124100000D03*
X212600000Y-124100000D03*
X213250000Y-124100000D03*
X204150000Y-123450000D03*
X204800000Y-123450000D03*
X205450000Y-123450000D03*
X206100000Y-123450000D03*
X211300000Y-123450000D03*
X211950000Y-123450000D03*
X212600000Y-123450000D03*
X213250000Y-123450000D03*
X204150000Y-122800000D03*
X204800000Y-122800000D03*
X205450000Y-122800000D03*
X206100000Y-122800000D03*
X206750000Y-122800000D03*
X207400000Y-122800000D03*
X208050000Y-122800000D03*
X208700000Y-122800000D03*
X209350000Y-122800000D03*
X210000000Y-122800000D03*
X210650000Y-122800000D03*
X211300000Y-122800000D03*
X211950000Y-122800000D03*
X212600000Y-122800000D03*
X213250000Y-122800000D03*
X204150000Y-122150000D03*
X204800000Y-122150000D03*
X205450000Y-122150000D03*
X206100000Y-122150000D03*
X206750000Y-122150000D03*
X207400000Y-122150000D03*
X208050000Y-122150000D03*
X208700000Y-122150000D03*
X209350000Y-122150000D03*
X210000000Y-122150000D03*
X210650000Y-122150000D03*
X211300000Y-122150000D03*
X211950000Y-122150000D03*
X212600000Y-122150000D03*
X213250000Y-122150000D03*
X204150000Y-121500000D03*
X204800000Y-121500000D03*
X205450000Y-121500000D03*
X206100000Y-121500000D03*
X206750000Y-121500000D03*
X207400000Y-121500000D03*
X208050000Y-121500000D03*
X208700000Y-121500000D03*
X209350000Y-121500000D03*
X210000000Y-121500000D03*
X210650000Y-121500000D03*
X211300000Y-121500000D03*
X211950000Y-121500000D03*
X212600000Y-121500000D03*
X213250000Y-121500000D03*
X204150000Y-120850000D03*
X204800000Y-120850000D03*
X205450000Y-120850000D03*
X206100000Y-120850000D03*
X206750000Y-120850000D03*
X207400000Y-120850000D03*
X208050000Y-120850000D03*
X208700000Y-120850000D03*
X209350000Y-120850000D03*
X210000000Y-120850000D03*
X210650000Y-120850000D03*
X211300000Y-120850000D03*
X211950000Y-120850000D03*
X212600000Y-120850000D03*
X213250000Y-120850000D03*
%TD*%
%TO.C,0603*%
G36*
G01*
X295421167Y-128192000D02*
X294946167Y-128192000D01*
G75*
G02*
X294708667Y-127954500I0J237500D01*
G01*
X294708667Y-127379500D01*
G75*
G02*
X294946167Y-127142000I237500J0D01*
G01*
X295421167Y-127142000D01*
G75*
G02*
X295658667Y-127379500I0J-237500D01*
G01*
X295658667Y-127954500D01*
G75*
G02*
X295421167Y-128192000I-237500J0D01*
G01*
G37*
G36*
G01*
X295421167Y-126442000D02*
X294946167Y-126442000D01*
G75*
G02*
X294708667Y-126204500I0J237500D01*
G01*
X294708667Y-125629500D01*
G75*
G02*
X294946167Y-125392000I237500J0D01*
G01*
X295421167Y-125392000D01*
G75*
G02*
X295658667Y-125629500I0J-237500D01*
G01*
X295658667Y-126204500D01*
G75*
G02*
X295421167Y-126442000I-237500J0D01*
G01*
G37*
%TD*%
%TO.C,0402*%
G36*
G01*
X297361500Y-126852000D02*
X297016500Y-126852000D01*
G75*
G02*
X296869000Y-126704500I0J147500D01*
G01*
X296869000Y-126409500D01*
G75*
G02*
X297016500Y-126262000I147500J0D01*
G01*
X297361500Y-126262000D01*
G75*
G02*
X297509000Y-126409500I0J-147500D01*
G01*
X297509000Y-126704500D01*
G75*
G02*
X297361500Y-126852000I-147500J0D01*
G01*
G37*
G36*
G01*
X297361500Y-125882000D02*
X297016500Y-125882000D01*
G75*
G02*
X296869000Y-125734500I0J147500D01*
G01*
X296869000Y-125439500D01*
G75*
G02*
X297016500Y-125292000I147500J0D01*
G01*
X297361500Y-125292000D01*
G75*
G02*
X297509000Y-125439500I0J-147500D01*
G01*
X297509000Y-125734500D01*
G75*
G02*
X297361500Y-125882000I-147500J0D01*
G01*
G37*
%TD*%
%TO.C,0805*%
G36*
G01*
X293148335Y-128592000D02*
X292248333Y-128592000D01*
G75*
G02*
X291998334Y-128342001I0J249999D01*
G01*
X291998334Y-127691999D01*
G75*
G02*
X292248333Y-127442000I249999J0D01*
G01*
X293148335Y-127442000D01*
G75*
G02*
X293398334Y-127691999I0J-249999D01*
G01*
X293398334Y-128342001D01*
G75*
G02*
X293148335Y-128592000I-249999J0D01*
G01*
G37*
G36*
G01*
X293148335Y-126542000D02*
X292248333Y-126542000D01*
G75*
G02*
X291998334Y-126292001I0J249999D01*
G01*
X291998334Y-125641999D01*
G75*
G02*
X292248333Y-125392000I249999J0D01*
G01*
X293148335Y-125392000D01*
G75*
G02*
X293398334Y-125641999I0J-249999D01*
G01*
X293398334Y-126292001D01*
G75*
G02*
X293148335Y-126542000I-249999J0D01*
G01*
G37*
%TD*%
%TO.C,1206*%
G36*
G01*
X290448000Y-129792000D02*
X289198000Y-129792000D01*
G75*
G02*
X288948000Y-129542000I0J250000D01*
G01*
X288948000Y-128617000D01*
G75*
G02*
X289198000Y-128367000I250000J0D01*
G01*
X290448000Y-128367000D01*
G75*
G02*
X290698000Y-128617000I0J-250000D01*
G01*
X290698000Y-129542000D01*
G75*
G02*
X290448000Y-129792000I-250000J0D01*
G01*
G37*
G36*
G01*
X290448000Y-126817000D02*
X289198000Y-126817000D01*
G75*
G02*
X288948000Y-126567000I0J250000D01*
G01*
X288948000Y-125642000D01*
G75*
G02*
X289198000Y-125392000I250000J0D01*
G01*
X290448000Y-125392000D01*
G75*
G02*
X290698000Y-125642000I0J-250000D01*
G01*
X290698000Y-126567000D01*
G75*
G02*
X290448000Y-126817000I-250000J0D01*
G01*
G37*
%TD*%
D11*
%TO.C,6mm*%
X266140000Y-122590000D03*
X261640000Y-122590000D03*
X261640000Y-130550000D03*
X266140000Y-130550000D03*
%TD*%
D12*
%TO.C,SOIC-8*%
X222600000Y-128105000D03*
X222600000Y-126835000D03*
X222600000Y-125565000D03*
X222600000Y-124295000D03*
X228000000Y-124295000D03*
X228000000Y-125565000D03*
X228000000Y-126835000D03*
X228000000Y-128105000D03*
%TD*%
D13*
%TO.C,SOT-23*%
X253000000Y-124950000D03*
X253000000Y-123050000D03*
X255000000Y-124000000D03*
%TD*%
D14*
%TO.C,SOT-223*%
X234450000Y-128000000D03*
X234450000Y-123400000D03*
X234450000Y-125700000D03*
D15*
X240750000Y-125700000D03*
%TD*%
D16*
%TO.C,QFP-64*%
X185150000Y-131200000D03*
X185650000Y-131200000D03*
X186150000Y-131200000D03*
X186650000Y-131200000D03*
X187150000Y-131200000D03*
X187650000Y-131200000D03*
X188150000Y-131200000D03*
X188650000Y-131200000D03*
X189150000Y-131200000D03*
X189650000Y-131200000D03*
X190150000Y-131200000D03*
X190650000Y-131200000D03*
X191150000Y-131200000D03*
X191650000Y-131200000D03*
X192150000Y-131200000D03*
X192650000Y-131200000D03*
D17*
X194600000Y-129250000D03*
X194600000Y-128750000D03*
X194600000Y-128250000D03*
X194600000Y-127750000D03*
X194600000Y-127250000D03*
X194600000Y-126750000D03*
X194600000Y-126250000D03*
X194600000Y-125750000D03*
X194600000Y-125250000D03*
X194600000Y-124750000D03*
X194600000Y-124250000D03*
X194600000Y-123750000D03*
X194600000Y-123250000D03*
X194600000Y-122750000D03*
X194600000Y-122250000D03*
X194600000Y-121750000D03*
D16*
X192650000Y-119800000D03*
X192150000Y-119800000D03*
X191650000Y-119800000D03*
X191150000Y-119800000D03*
X190650000Y-119800000D03*
X190150000Y-119800000D03*
X189650000Y-119800000D03*
X189150000Y-119800000D03*
X188650000Y-119800000D03*
X188150000Y-119800000D03*
X187650000Y-119800000D03*
X187150000Y-119800000D03*
X186650000Y-119800000D03*
X186150000Y-119800000D03*
X185650000Y-119800000D03*
X185150000Y-119800000D03*
D17*
X183200000Y-121750000D03*
X183200000Y-122250000D03*
X183200000Y-122750000D03*
X183200000Y-123250000D03*
X183200000Y-123750000D03*
X183200000Y-124250000D03*
X183200000Y-124750000D03*
X183200000Y-125250000D03*
X183200000Y-125750000D03*
X183200000Y-126250000D03*
X183200000Y-126750000D03*
X183200000Y-127250000D03*
X183200000Y-127750000D03*
X183200000Y-128250000D03*
X183200000Y-128750000D03*
X183200000Y-129250000D03*
%TD*%
D18*
%TO.C,SOT-23-5*%
X255100000Y-130000000D03*
X255100000Y-128100000D03*
X252900000Y-128100000D03*
X252900000Y-129050000D03*
X252900000Y-130000000D03*
%TD*%
M02*
