%TF.GenerationSoftware,KiCad,Pcbnew,(5.1.6)-1*%
%TF.CreationDate,2020-08-25T11:16:49-04:00*%
%TF.ProjectId,PCBRuler,50434252-756c-4657-922e-6b696361645f,rev?*%
%TF.SameCoordinates,Original*%
%TF.FileFunction,Legend,Top*%
%TF.FilePolarity,Positive*%
%FSLAX46Y46*%
G04 Gerber Fmt 4.6, Leading zero omitted, Abs format (unit mm)*
G04 Created by KiCad (PCBNEW (5.1.6)-1) date 2020-08-25 11:16:49*
%MOMM*%
%LPD*%
G01*
G04 APERTURE LIST*
%ADD10C,0.150000*%
%ADD11C,0.120000*%
%ADD12C,0.010000*%
G04 APERTURE END LIST*
D10*
X235219047Y-133752380D02*
X235219047Y-132752380D01*
X235600000Y-132752380D01*
X235695238Y-132800000D01*
X235742857Y-132847619D01*
X235790476Y-132942857D01*
X235790476Y-133085714D01*
X235742857Y-133180952D01*
X235695238Y-133228571D01*
X235600000Y-133276190D01*
X235219047Y-133276190D01*
X236219047Y-133228571D02*
X236980952Y-133228571D01*
X236980952Y-133514285D02*
X236219047Y-133514285D01*
X237647619Y-132752380D02*
X237742857Y-132752380D01*
X237838095Y-132800000D01*
X237885714Y-132847619D01*
X237933333Y-132942857D01*
X237980952Y-133133333D01*
X237980952Y-133371428D01*
X237933333Y-133561904D01*
X237885714Y-133657142D01*
X237838095Y-133704761D01*
X237742857Y-133752380D01*
X237647619Y-133752380D01*
X237552380Y-133704761D01*
X237504761Y-133657142D01*
X237457142Y-133561904D01*
X237409523Y-133371428D01*
X237409523Y-133133333D01*
X237457142Y-132942857D01*
X237504761Y-132847619D01*
X237552380Y-132800000D01*
X237647619Y-132752380D01*
X238409523Y-133657142D02*
X238457142Y-133704761D01*
X238409523Y-133752380D01*
X238361904Y-133704761D01*
X238409523Y-133657142D01*
X238409523Y-133752380D01*
X239314285Y-132752380D02*
X239123809Y-132752380D01*
X239028571Y-132800000D01*
X238980952Y-132847619D01*
X238885714Y-132990476D01*
X238838095Y-133180952D01*
X238838095Y-133561904D01*
X238885714Y-133657142D01*
X238933333Y-133704761D01*
X239028571Y-133752380D01*
X239219047Y-133752380D01*
X239314285Y-133704761D01*
X239361904Y-133657142D01*
X239409523Y-133561904D01*
X239409523Y-133323809D01*
X239361904Y-133228571D01*
X239314285Y-133180952D01*
X239219047Y-133133333D01*
X239028571Y-133133333D01*
X238933333Y-133180952D01*
X238885714Y-133228571D01*
X238838095Y-133323809D01*
X240314285Y-132752380D02*
X239838095Y-132752380D01*
X239790476Y-133228571D01*
X239838095Y-133180952D01*
X239933333Y-133133333D01*
X240171428Y-133133333D01*
X240266666Y-133180952D01*
X240314285Y-133228571D01*
X240361904Y-133323809D01*
X240361904Y-133561904D01*
X240314285Y-133657142D01*
X240266666Y-133704761D01*
X240171428Y-133752380D01*
X239933333Y-133752380D01*
X239838095Y-133704761D01*
X239790476Y-133657142D01*
X240790476Y-133752380D02*
X240790476Y-133085714D01*
X240790476Y-133180952D02*
X240838095Y-133133333D01*
X240933333Y-133085714D01*
X241076190Y-133085714D01*
X241171428Y-133133333D01*
X241219047Y-133228571D01*
X241219047Y-133752380D01*
X241219047Y-133228571D02*
X241266666Y-133133333D01*
X241361904Y-133085714D01*
X241504761Y-133085714D01*
X241600000Y-133133333D01*
X241647619Y-133228571D01*
X241647619Y-133752380D01*
X242123809Y-133752380D02*
X242123809Y-133085714D01*
X242123809Y-133180952D02*
X242171428Y-133133333D01*
X242266666Y-133085714D01*
X242409523Y-133085714D01*
X242504761Y-133133333D01*
X242552380Y-133228571D01*
X242552380Y-133752380D01*
X242552380Y-133228571D02*
X242600000Y-133133333D01*
X242695238Y-133085714D01*
X242838095Y-133085714D01*
X242933333Y-133133333D01*
X242980952Y-133228571D01*
X242980952Y-133752380D01*
X256095238Y-128352380D02*
X256095238Y-127352380D01*
X256476190Y-127352380D01*
X256571428Y-127400000D01*
X256619047Y-127447619D01*
X256666666Y-127542857D01*
X256666666Y-127685714D01*
X256619047Y-127780952D01*
X256571428Y-127828571D01*
X256476190Y-127876190D01*
X256095238Y-127876190D01*
X257095238Y-127828571D02*
X257857142Y-127828571D01*
X257857142Y-128114285D02*
X257095238Y-128114285D01*
X258523809Y-127352380D02*
X258619047Y-127352380D01*
X258714285Y-127400000D01*
X258761904Y-127447619D01*
X258809523Y-127542857D01*
X258857142Y-127733333D01*
X258857142Y-127971428D01*
X258809523Y-128161904D01*
X258761904Y-128257142D01*
X258714285Y-128304761D01*
X258619047Y-128352380D01*
X258523809Y-128352380D01*
X258428571Y-128304761D01*
X258380952Y-128257142D01*
X258333333Y-128161904D01*
X258285714Y-127971428D01*
X258285714Y-127733333D01*
X258333333Y-127542857D01*
X258380952Y-127447619D01*
X258428571Y-127400000D01*
X258523809Y-127352380D01*
X259285714Y-128257142D02*
X259333333Y-128304761D01*
X259285714Y-128352380D01*
X259238095Y-128304761D01*
X259285714Y-128257142D01*
X259285714Y-128352380D01*
X260238095Y-127352380D02*
X259761904Y-127352380D01*
X259714285Y-127828571D01*
X259761904Y-127780952D01*
X259857142Y-127733333D01*
X260095238Y-127733333D01*
X260190476Y-127780952D01*
X260238095Y-127828571D01*
X260285714Y-127923809D01*
X260285714Y-128161904D01*
X260238095Y-128257142D01*
X260190476Y-128304761D01*
X260095238Y-128352380D01*
X259857142Y-128352380D01*
X259761904Y-128304761D01*
X259714285Y-128257142D01*
X260714285Y-128352380D02*
X260714285Y-127685714D01*
X260714285Y-127780952D02*
X260761904Y-127733333D01*
X260857142Y-127685714D01*
X261000000Y-127685714D01*
X261095238Y-127733333D01*
X261142857Y-127828571D01*
X261142857Y-128352380D01*
X261142857Y-127828571D02*
X261190476Y-127733333D01*
X261285714Y-127685714D01*
X261428571Y-127685714D01*
X261523809Y-127733333D01*
X261571428Y-127828571D01*
X261571428Y-128352380D01*
X262047619Y-128352380D02*
X262047619Y-127685714D01*
X262047619Y-127780952D02*
X262095238Y-127733333D01*
X262190476Y-127685714D01*
X262333333Y-127685714D01*
X262428571Y-127733333D01*
X262476190Y-127828571D01*
X262476190Y-128352380D01*
X262476190Y-127828571D02*
X262523809Y-127733333D01*
X262619047Y-127685714D01*
X262761904Y-127685714D01*
X262857142Y-127733333D01*
X262904761Y-127828571D01*
X262904761Y-128352380D01*
X185602666Y-126674571D02*
X185745523Y-126722190D01*
X185793142Y-126769809D01*
X185840761Y-126865047D01*
X185840761Y-127007904D01*
X185793142Y-127103142D01*
X185745523Y-127150761D01*
X185650285Y-127198380D01*
X185269333Y-127198380D01*
X185269333Y-126198380D01*
X185602666Y-126198380D01*
X185697904Y-126246000D01*
X185745523Y-126293619D01*
X185793142Y-126388857D01*
X185793142Y-126484095D01*
X185745523Y-126579333D01*
X185697904Y-126626952D01*
X185602666Y-126674571D01*
X185269333Y-126674571D01*
X186126476Y-126198380D02*
X186697904Y-126198380D01*
X186412190Y-127198380D02*
X186412190Y-126198380D01*
X187031238Y-127198380D02*
X187031238Y-126198380D01*
X187602666Y-127198380D01*
X187602666Y-126198380D01*
D11*
X300482000Y-138751000D02*
X300482000Y-134306000D01*
X300482000Y-134306000D02*
X300482000Y-133671000D01*
X148082000Y-138751000D02*
X148082000Y-134941000D01*
X154432000Y-137481000D02*
X154432000Y-136211000D01*
X163957000Y-138751000D02*
X163957000Y-137481000D01*
X157607000Y-138751000D02*
X157607000Y-137481000D01*
X173482000Y-138751000D02*
X173482000Y-134306000D01*
X148082000Y-134941000D02*
X148082000Y-133671000D01*
X151257000Y-138751000D02*
X151257000Y-137481000D01*
X173482000Y-134306000D02*
X173482000Y-133671000D01*
X154432000Y-138751000D02*
X154432000Y-137481000D01*
X167132000Y-137481000D02*
X167132000Y-136211000D01*
X160782000Y-136211000D02*
X160782000Y-134941000D01*
X160782000Y-138751000D02*
X160782000Y-136211000D01*
X167132000Y-138751000D02*
X167132000Y-137481000D01*
X170307000Y-138751000D02*
X170307000Y-137481000D01*
X275082000Y-113411000D02*
X275082000Y-114411000D01*
X264082000Y-113411000D02*
X264082000Y-114411000D01*
X253082000Y-113411000D02*
X253082000Y-114411000D01*
X270082000Y-113411000D02*
X270082000Y-114411000D01*
X277082000Y-113411000D02*
X277082000Y-114411000D01*
X268082000Y-113411000D02*
X268082000Y-116411000D01*
X293082000Y-113411000D02*
X293082000Y-114411000D01*
X282082000Y-113411000D02*
X282082000Y-114411000D01*
X297082000Y-113411000D02*
X297082000Y-114411000D01*
X278082000Y-113411000D02*
X278082000Y-116411000D01*
X259082000Y-113411000D02*
X259082000Y-114411000D01*
X248082000Y-113411000D02*
X248082000Y-116411000D01*
X265082000Y-113411000D02*
X265082000Y-114411000D01*
X274082000Y-113411000D02*
X274082000Y-114411000D01*
X254082000Y-113411000D02*
X254082000Y-114411000D01*
X294082000Y-113411000D02*
X294082000Y-114411000D01*
X273082000Y-113411000D02*
X273082000Y-114411000D01*
X289082000Y-113411000D02*
X289082000Y-114411000D01*
X252082000Y-113411000D02*
X252082000Y-114411000D01*
X276082000Y-113411000D02*
X276082000Y-114411000D01*
X280082000Y-113411000D02*
X280082000Y-114411000D01*
X258082000Y-113411000D02*
X258082000Y-116411000D01*
X292082000Y-113411000D02*
X292082000Y-114411000D01*
X288082000Y-113411000D02*
X288082000Y-116411000D01*
X267082000Y-113411000D02*
X267082000Y-114411000D01*
X249082000Y-113411000D02*
X249082000Y-114411000D01*
X266082000Y-113411000D02*
X266082000Y-114411000D01*
X251082000Y-113411000D02*
X251082000Y-114411000D01*
X298082000Y-113411000D02*
X298082000Y-116411000D01*
X257082000Y-113411000D02*
X257082000Y-114411000D01*
X296082000Y-113411000D02*
X296082000Y-114411000D01*
X255082000Y-113411000D02*
X255082000Y-114411000D01*
X290082000Y-113411000D02*
X290082000Y-114411000D01*
X286082000Y-113411000D02*
X286082000Y-114411000D01*
X271082000Y-113411000D02*
X271082000Y-114411000D01*
X261082000Y-113411000D02*
X261082000Y-114411000D01*
X234082000Y-113411000D02*
X234082000Y-114411000D01*
X217082000Y-113411000D02*
X217082000Y-114411000D01*
X225082000Y-113411000D02*
X225082000Y-114411000D01*
X283082000Y-113411000D02*
X283082000Y-114411000D01*
X215082000Y-113411000D02*
X215082000Y-114411000D01*
X212082000Y-113411000D02*
X212082000Y-114411000D01*
X269082000Y-113411000D02*
X269082000Y-114411000D01*
X211082000Y-113411000D02*
X211082000Y-114411000D01*
X281082000Y-113411000D02*
X281082000Y-114411000D01*
X262082000Y-113411000D02*
X262082000Y-114411000D01*
X231082000Y-113411000D02*
X231082000Y-114411000D01*
X228082000Y-113411000D02*
X228082000Y-116411000D01*
X250082000Y-113411000D02*
X250082000Y-114411000D01*
X260082000Y-113411000D02*
X260082000Y-114411000D01*
X208082000Y-113411000D02*
X208082000Y-116411000D01*
X239082000Y-113411000D02*
X239082000Y-114411000D01*
X235082000Y-113411000D02*
X235082000Y-114411000D01*
X238082000Y-113411000D02*
X238082000Y-116411000D01*
X243082000Y-113411000D02*
X243082000Y-114411000D01*
X224082000Y-113411000D02*
X224082000Y-114411000D01*
X246082000Y-113411000D02*
X246082000Y-114411000D01*
X227082000Y-113411000D02*
X227082000Y-114411000D01*
X213082000Y-113411000D02*
X213082000Y-114411000D01*
X221082000Y-113411000D02*
X221082000Y-114411000D01*
X219082000Y-113411000D02*
X219082000Y-114411000D01*
X230082000Y-113411000D02*
X230082000Y-114411000D01*
X233082000Y-113411000D02*
X233082000Y-114411000D01*
X226082000Y-113411000D02*
X226082000Y-114411000D01*
X209082000Y-113411000D02*
X209082000Y-114411000D01*
X223082000Y-113411000D02*
X223082000Y-114411000D01*
X279082000Y-113411000D02*
X279082000Y-114411000D01*
X295082000Y-113411000D02*
X295082000Y-114411000D01*
X284082000Y-113411000D02*
X284082000Y-114411000D01*
X214082000Y-113411000D02*
X214082000Y-114411000D01*
X287082000Y-113411000D02*
X287082000Y-114411000D01*
X236082000Y-113411000D02*
X236082000Y-114411000D01*
X210082000Y-113411000D02*
X210082000Y-114411000D01*
X220082000Y-113411000D02*
X220082000Y-114411000D01*
X242082000Y-113411000D02*
X242082000Y-114411000D01*
X241082000Y-113411000D02*
X241082000Y-114411000D01*
X285082000Y-113411000D02*
X285082000Y-114411000D01*
X194082000Y-113411000D02*
X194082000Y-114411000D01*
X232082000Y-113411000D02*
X232082000Y-114411000D01*
X272082000Y-113411000D02*
X272082000Y-114411000D01*
X222082000Y-113411000D02*
X222082000Y-114411000D01*
X218082000Y-113411000D02*
X218082000Y-116411000D01*
X216082000Y-113411000D02*
X216082000Y-114411000D01*
X263082000Y-113411000D02*
X263082000Y-114411000D01*
X229082000Y-113411000D02*
X229082000Y-114411000D01*
X247082000Y-113411000D02*
X247082000Y-114411000D01*
X245082000Y-113411000D02*
X245082000Y-114411000D01*
X237082000Y-113411000D02*
X237082000Y-114411000D01*
X256082000Y-113411000D02*
X256082000Y-114411000D01*
X244082000Y-113411000D02*
X244082000Y-114411000D01*
X240082000Y-113411000D02*
X240082000Y-114411000D01*
X291082000Y-113411000D02*
X291082000Y-114411000D01*
X205082000Y-113411000D02*
X205082000Y-114411000D01*
X202082000Y-113411000D02*
X202082000Y-114411000D01*
X190082000Y-113411000D02*
X190082000Y-114411000D01*
X173082000Y-113411000D02*
X173082000Y-114411000D01*
X176082000Y-113411000D02*
X176082000Y-114411000D01*
X154082000Y-113411000D02*
X154082000Y-114411000D01*
X149082000Y-113411000D02*
X149082000Y-114411000D01*
X168082000Y-113411000D02*
X168082000Y-116411000D01*
X175082000Y-113411000D02*
X175082000Y-114411000D01*
X152082000Y-113411000D02*
X152082000Y-114411000D01*
X167082000Y-113411000D02*
X167082000Y-114411000D01*
X153082000Y-113411000D02*
X153082000Y-114411000D01*
X148082000Y-113411000D02*
X148082000Y-116411000D01*
X158082000Y-113411000D02*
X158082000Y-116411000D01*
X177082000Y-113411000D02*
X177082000Y-114411000D01*
X174082000Y-113411000D02*
X174082000Y-114411000D01*
X189082000Y-113411000D02*
X189082000Y-114411000D01*
X192082000Y-113411000D02*
X192082000Y-114411000D01*
X201082000Y-113411000D02*
X201082000Y-114411000D01*
X182082000Y-113411000D02*
X182082000Y-114411000D01*
X196082000Y-113411000D02*
X196082000Y-114411000D01*
X180082000Y-113411000D02*
X180082000Y-114411000D01*
X166082000Y-113411000D02*
X166082000Y-114411000D01*
X151082000Y-113411000D02*
X151082000Y-114411000D01*
X157082000Y-113411000D02*
X157082000Y-114411000D01*
X207082000Y-113411000D02*
X207082000Y-114411000D01*
X193082000Y-113411000D02*
X193082000Y-114411000D01*
X188082000Y-113411000D02*
X188082000Y-116411000D01*
X197082000Y-113411000D02*
X197082000Y-114411000D01*
X164082000Y-113411000D02*
X164082000Y-114411000D01*
X159082000Y-113411000D02*
X159082000Y-114411000D01*
X165082000Y-113411000D02*
X165082000Y-114411000D01*
X170082000Y-113411000D02*
X170082000Y-114411000D01*
X198082000Y-113411000D02*
X198082000Y-116411000D01*
X178082000Y-113411000D02*
X178082000Y-116411000D01*
X155082000Y-113411000D02*
X155082000Y-114411000D01*
X179082000Y-113411000D02*
X179082000Y-114411000D01*
X195082000Y-113411000D02*
X195082000Y-114411000D01*
X172082000Y-113411000D02*
X172082000Y-114411000D01*
X199082000Y-113411000D02*
X199082000Y-114411000D01*
X206082000Y-113411000D02*
X206082000Y-114411000D01*
X163082000Y-113411000D02*
X163082000Y-114411000D01*
X191082000Y-113411000D02*
X191082000Y-114411000D01*
X171082000Y-113411000D02*
X171082000Y-114411000D01*
X204082000Y-113411000D02*
X204082000Y-114411000D01*
X203082000Y-113411000D02*
X203082000Y-114411000D01*
X187082000Y-113411000D02*
X187082000Y-114411000D01*
X200082000Y-113411000D02*
X200082000Y-114411000D01*
X169082000Y-113411000D02*
X169082000Y-114411000D01*
X183082000Y-113411000D02*
X183082000Y-114411000D01*
X161082000Y-113411000D02*
X161082000Y-114411000D01*
X156082000Y-113411000D02*
X156082000Y-114411000D01*
X186082000Y-113411000D02*
X186082000Y-114411000D01*
X184082000Y-113411000D02*
X184082000Y-114411000D01*
X185082000Y-113411000D02*
X185082000Y-114411000D01*
X181082000Y-113411000D02*
X181082000Y-114411000D01*
X162082000Y-113411000D02*
X162082000Y-114411000D01*
X150082000Y-113411000D02*
X150082000Y-114411000D01*
X160082000Y-113411000D02*
X160082000Y-114411000D01*
X256032000Y-137481000D02*
X256032000Y-136211000D01*
X268732000Y-137481000D02*
X268732000Y-136211000D01*
X192532000Y-137481000D02*
X192532000Y-136211000D01*
X179832000Y-137481000D02*
X179832000Y-136211000D01*
X224282000Y-138751000D02*
X224282000Y-134306000D01*
X211582000Y-136211000D02*
X211582000Y-134941000D01*
X246507000Y-138751000D02*
X246507000Y-137481000D01*
X224282000Y-134306000D02*
X224282000Y-133671000D01*
X205232000Y-138751000D02*
X205232000Y-137481000D01*
X275082000Y-138751000D02*
X275082000Y-134306000D01*
X252857000Y-138751000D02*
X252857000Y-137481000D01*
X205232000Y-137481000D02*
X205232000Y-136211000D01*
X262382000Y-136211000D02*
X262382000Y-134941000D01*
X211582000Y-138751000D02*
X211582000Y-136211000D01*
X186182000Y-138751000D02*
X186182000Y-136211000D01*
X183007000Y-138751000D02*
X183007000Y-137481000D01*
X271907000Y-138751000D02*
X271907000Y-137481000D01*
X198882000Y-138751000D02*
X198882000Y-134306000D01*
X221107000Y-138751000D02*
X221107000Y-137481000D01*
X230632000Y-137481000D02*
X230632000Y-136211000D01*
X227457000Y-138751000D02*
X227457000Y-137481000D01*
X202057000Y-138751000D02*
X202057000Y-137481000D01*
X192532000Y-138751000D02*
X192532000Y-137481000D01*
X240157000Y-138751000D02*
X240157000Y-137481000D01*
X198882000Y-134306000D02*
X198882000Y-133671000D01*
X179832000Y-138751000D02*
X179832000Y-137481000D01*
X236982000Y-136211000D02*
X236982000Y-134941000D01*
X278257000Y-138751000D02*
X278257000Y-137481000D01*
X243332000Y-137481000D02*
X243332000Y-136211000D01*
X281432000Y-137481000D02*
X281432000Y-136211000D01*
X265557000Y-138751000D02*
X265557000Y-137481000D01*
X256032000Y-138751000D02*
X256032000Y-137481000D01*
X176657000Y-138751000D02*
X176657000Y-137481000D01*
X290957000Y-138751000D02*
X290957000Y-137481000D01*
X281432000Y-138751000D02*
X281432000Y-137481000D01*
X189357000Y-138751000D02*
X189357000Y-137481000D01*
X287782000Y-136211000D02*
X287782000Y-134941000D01*
X230632000Y-138751000D02*
X230632000Y-137481000D01*
X217932000Y-137481000D02*
X217932000Y-136211000D01*
X262382000Y-138751000D02*
X262382000Y-136211000D01*
X217932000Y-138751000D02*
X217932000Y-137481000D01*
X208407000Y-138751000D02*
X208407000Y-137481000D01*
X284607000Y-138751000D02*
X284607000Y-137481000D01*
X249682000Y-134306000D02*
X249682000Y-133671000D01*
X186182000Y-136211000D02*
X186182000Y-134941000D01*
X294132000Y-137481000D02*
X294132000Y-136211000D01*
X243332000Y-138751000D02*
X243332000Y-137481000D01*
X233807000Y-138751000D02*
X233807000Y-137481000D01*
X195707000Y-138751000D02*
X195707000Y-137481000D01*
X297307000Y-138751000D02*
X297307000Y-137481000D01*
X268732000Y-138751000D02*
X268732000Y-137481000D01*
X249682000Y-138751000D02*
X249682000Y-134306000D01*
X236982000Y-138751000D02*
X236982000Y-136211000D01*
X275082000Y-134306000D02*
X275082000Y-133671000D01*
X259207000Y-138751000D02*
X259207000Y-137481000D01*
X214757000Y-138751000D02*
X214757000Y-137481000D01*
X287782000Y-138751000D02*
X287782000Y-136211000D01*
X294132000Y-138751000D02*
X294132000Y-137481000D01*
%TO.C,UFBGA-201*%
X235575000Y-121375000D02*
X244825000Y-121375000D01*
X244825000Y-121375000D02*
X244825000Y-131625000D01*
X244825000Y-131625000D02*
X234575000Y-131625000D01*
X234575000Y-131625000D02*
X234575000Y-122375000D01*
D12*
%TO.C,G\u002A\u002A\u002A*%
G36*
X296666942Y-124241984D02*
G01*
X297154060Y-124689806D01*
X297180476Y-125712971D01*
X297184881Y-126111943D01*
X297177444Y-126446069D01*
X297159713Y-126680808D01*
X297133235Y-126781621D01*
X297132605Y-126782048D01*
X297026237Y-126764623D01*
X296833985Y-126670249D01*
X296690391Y-126580857D01*
X296395078Y-126378845D01*
X296220109Y-126244651D01*
X296143199Y-126154827D01*
X296142058Y-126085925D01*
X296174221Y-126037810D01*
X296214954Y-125909466D01*
X296109184Y-125834343D01*
X296013722Y-125825296D01*
X295931044Y-125843559D01*
X295989507Y-125896270D01*
X296052887Y-125973992D01*
X295975461Y-126068764D01*
X295870438Y-126119281D01*
X295805090Y-126023743D01*
X295795811Y-125995888D01*
X295772761Y-125783910D01*
X295795418Y-125568097D01*
X295815117Y-125385186D01*
X295755228Y-125318882D01*
X295722057Y-125316000D01*
X295578251Y-125365152D01*
X295520428Y-125470888D01*
X295577396Y-125566330D01*
X295648904Y-125692363D01*
X295622107Y-125865012D01*
X295522974Y-126015874D01*
X295383655Y-126076703D01*
X295266420Y-126062704D01*
X295304447Y-126011336D01*
X295326881Y-125996640D01*
X295409687Y-125903370D01*
X295357536Y-125851729D01*
X295209585Y-125875266D01*
X295107776Y-125969761D01*
X295106551Y-126037230D01*
X295049853Y-126100952D01*
X294840359Y-126159349D01*
X294494576Y-126210300D01*
X294029011Y-126251684D01*
X293460171Y-126281379D01*
X293128000Y-126291521D01*
X292702095Y-126310960D01*
X292197978Y-126347727D01*
X291705037Y-126394976D01*
X291561667Y-126411505D01*
X291082823Y-126467354D01*
X290555705Y-126525208D01*
X290074337Y-126574835D01*
X289953000Y-126586579D01*
X289563368Y-126629903D01*
X289195616Y-126681783D01*
X288913256Y-126732941D01*
X288852333Y-126747374D01*
X288585746Y-126794320D01*
X288233527Y-126827205D01*
X287928441Y-126837980D01*
X287547352Y-126857944D01*
X287160027Y-126907601D01*
X286912441Y-126960476D01*
X286522139Y-127053633D01*
X286019430Y-127150234D01*
X285460727Y-127240513D01*
X284902440Y-127314705D01*
X284798198Y-127326491D01*
X284384730Y-127371716D01*
X284581287Y-127105858D01*
X284745551Y-126933506D01*
X284903081Y-126843684D01*
X284931255Y-126840000D01*
X285029290Y-126808105D01*
X285074729Y-126685116D01*
X285084667Y-126469272D01*
X285086501Y-126416667D01*
X285846667Y-126416667D01*
X285911096Y-126498873D01*
X285931333Y-126501333D01*
X286013540Y-126436904D01*
X286016000Y-126416667D01*
X285951571Y-126334460D01*
X285931333Y-126332000D01*
X286439333Y-126332000D01*
X286470311Y-126401690D01*
X286495778Y-126388444D01*
X286505911Y-126287965D01*
X286495778Y-126275555D01*
X286445443Y-126287178D01*
X286439333Y-126332000D01*
X285931333Y-126332000D01*
X285849127Y-126396429D01*
X285846667Y-126416667D01*
X285086501Y-126416667D01*
X285091210Y-126281672D01*
X285101528Y-126247333D01*
X286693333Y-126247333D01*
X286757762Y-126329540D01*
X286778000Y-126332000D01*
X286860206Y-126267571D01*
X286862667Y-126247333D01*
X286843326Y-126222655D01*
X287405110Y-126222655D01*
X287416616Y-126253183D01*
X287498349Y-126328258D01*
X287538344Y-126242750D01*
X287540000Y-126200003D01*
X287498343Y-126112800D01*
X287453952Y-126121187D01*
X287405110Y-126222655D01*
X286843326Y-126222655D01*
X286798237Y-126165127D01*
X286778000Y-126162667D01*
X286695793Y-126227096D01*
X286693333Y-126247333D01*
X285101528Y-126247333D01*
X285130448Y-126151096D01*
X285207669Y-126078000D01*
X288217333Y-126078000D01*
X288281762Y-126160206D01*
X288302000Y-126162667D01*
X288384206Y-126098237D01*
X288386667Y-126078000D01*
X288322237Y-125995793D01*
X288302000Y-125993333D01*
X288219793Y-126057762D01*
X288217333Y-126078000D01*
X285207669Y-126078000D01*
X285231786Y-126055172D01*
X285424634Y-125971527D01*
X285493341Y-125951000D01*
X288979333Y-125951000D01*
X289047106Y-126063248D01*
X289106333Y-126078000D01*
X289218582Y-126010227D01*
X289233333Y-125951000D01*
X289165560Y-125838751D01*
X289106333Y-125824000D01*
X290249333Y-125824000D01*
X290313762Y-125906206D01*
X290334000Y-125908667D01*
X290416206Y-125844237D01*
X290418667Y-125824000D01*
X290354237Y-125741793D01*
X290334000Y-125739333D01*
X290251793Y-125803762D01*
X290249333Y-125824000D01*
X289106333Y-125824000D01*
X288994085Y-125891773D01*
X288979333Y-125951000D01*
X285493341Y-125951000D01*
X285738400Y-125877786D01*
X285931333Y-125825143D01*
X286387945Y-125659663D01*
X291858000Y-125659663D01*
X291922579Y-125737053D01*
X291942667Y-125739333D01*
X292016971Y-125670418D01*
X292027333Y-125607336D01*
X291986287Y-125519702D01*
X291942667Y-125527667D01*
X291861229Y-125635909D01*
X291858000Y-125659663D01*
X286387945Y-125659663D01*
X286509237Y-125615706D01*
X286923265Y-125358333D01*
X294228667Y-125358333D01*
X294274384Y-125471005D01*
X294313333Y-125485333D01*
X294388448Y-125416757D01*
X294398000Y-125358333D01*
X294352282Y-125245661D01*
X294313333Y-125231333D01*
X294238219Y-125299910D01*
X294228667Y-125358333D01*
X286923265Y-125358333D01*
X286952405Y-125340219D01*
X287000696Y-125298552D01*
X287220060Y-125162221D01*
X287537803Y-125033239D01*
X287883756Y-124935239D01*
X288187750Y-124891848D01*
X288209623Y-124891434D01*
X288432681Y-124862525D01*
X288707475Y-124792544D01*
X288767667Y-124772737D01*
X289015319Y-124711088D01*
X289364784Y-124654090D01*
X289748644Y-124612329D01*
X289826000Y-124606574D01*
X290192736Y-124577732D01*
X290667744Y-124534612D01*
X291191145Y-124482913D01*
X291703061Y-124428337D01*
X291731000Y-124425219D01*
X292213237Y-124373091D01*
X292684054Y-124325437D01*
X293093675Y-124287090D01*
X293392322Y-124262883D01*
X293424333Y-124260779D01*
X293780821Y-124216413D01*
X294196908Y-124133006D01*
X294525000Y-124045393D01*
X294918831Y-123943253D01*
X295343349Y-123863357D01*
X295648745Y-123827976D01*
X296179823Y-123794163D01*
X296666942Y-124241984D01*
G37*
X296666942Y-124241984D02*
X297154060Y-124689806D01*
X297180476Y-125712971D01*
X297184881Y-126111943D01*
X297177444Y-126446069D01*
X297159713Y-126680808D01*
X297133235Y-126781621D01*
X297132605Y-126782048D01*
X297026237Y-126764623D01*
X296833985Y-126670249D01*
X296690391Y-126580857D01*
X296395078Y-126378845D01*
X296220109Y-126244651D01*
X296143199Y-126154827D01*
X296142058Y-126085925D01*
X296174221Y-126037810D01*
X296214954Y-125909466D01*
X296109184Y-125834343D01*
X296013722Y-125825296D01*
X295931044Y-125843559D01*
X295989507Y-125896270D01*
X296052887Y-125973992D01*
X295975461Y-126068764D01*
X295870438Y-126119281D01*
X295805090Y-126023743D01*
X295795811Y-125995888D01*
X295772761Y-125783910D01*
X295795418Y-125568097D01*
X295815117Y-125385186D01*
X295755228Y-125318882D01*
X295722057Y-125316000D01*
X295578251Y-125365152D01*
X295520428Y-125470888D01*
X295577396Y-125566330D01*
X295648904Y-125692363D01*
X295622107Y-125865012D01*
X295522974Y-126015874D01*
X295383655Y-126076703D01*
X295266420Y-126062704D01*
X295304447Y-126011336D01*
X295326881Y-125996640D01*
X295409687Y-125903370D01*
X295357536Y-125851729D01*
X295209585Y-125875266D01*
X295107776Y-125969761D01*
X295106551Y-126037230D01*
X295049853Y-126100952D01*
X294840359Y-126159349D01*
X294494576Y-126210300D01*
X294029011Y-126251684D01*
X293460171Y-126281379D01*
X293128000Y-126291521D01*
X292702095Y-126310960D01*
X292197978Y-126347727D01*
X291705037Y-126394976D01*
X291561667Y-126411505D01*
X291082823Y-126467354D01*
X290555705Y-126525208D01*
X290074337Y-126574835D01*
X289953000Y-126586579D01*
X289563368Y-126629903D01*
X289195616Y-126681783D01*
X288913256Y-126732941D01*
X288852333Y-126747374D01*
X288585746Y-126794320D01*
X288233527Y-126827205D01*
X287928441Y-126837980D01*
X287547352Y-126857944D01*
X287160027Y-126907601D01*
X286912441Y-126960476D01*
X286522139Y-127053633D01*
X286019430Y-127150234D01*
X285460727Y-127240513D01*
X284902440Y-127314705D01*
X284798198Y-127326491D01*
X284384730Y-127371716D01*
X284581287Y-127105858D01*
X284745551Y-126933506D01*
X284903081Y-126843684D01*
X284931255Y-126840000D01*
X285029290Y-126808105D01*
X285074729Y-126685116D01*
X285084667Y-126469272D01*
X285086501Y-126416667D01*
X285846667Y-126416667D01*
X285911096Y-126498873D01*
X285931333Y-126501333D01*
X286013540Y-126436904D01*
X286016000Y-126416667D01*
X285951571Y-126334460D01*
X285931333Y-126332000D01*
X286439333Y-126332000D01*
X286470311Y-126401690D01*
X286495778Y-126388444D01*
X286505911Y-126287965D01*
X286495778Y-126275555D01*
X286445443Y-126287178D01*
X286439333Y-126332000D01*
X285931333Y-126332000D01*
X285849127Y-126396429D01*
X285846667Y-126416667D01*
X285086501Y-126416667D01*
X285091210Y-126281672D01*
X285101528Y-126247333D01*
X286693333Y-126247333D01*
X286757762Y-126329540D01*
X286778000Y-126332000D01*
X286860206Y-126267571D01*
X286862667Y-126247333D01*
X286843326Y-126222655D01*
X287405110Y-126222655D01*
X287416616Y-126253183D01*
X287498349Y-126328258D01*
X287538344Y-126242750D01*
X287540000Y-126200003D01*
X287498343Y-126112800D01*
X287453952Y-126121187D01*
X287405110Y-126222655D01*
X286843326Y-126222655D01*
X286798237Y-126165127D01*
X286778000Y-126162667D01*
X286695793Y-126227096D01*
X286693333Y-126247333D01*
X285101528Y-126247333D01*
X285130448Y-126151096D01*
X285207669Y-126078000D01*
X288217333Y-126078000D01*
X288281762Y-126160206D01*
X288302000Y-126162667D01*
X288384206Y-126098237D01*
X288386667Y-126078000D01*
X288322237Y-125995793D01*
X288302000Y-125993333D01*
X288219793Y-126057762D01*
X288217333Y-126078000D01*
X285207669Y-126078000D01*
X285231786Y-126055172D01*
X285424634Y-125971527D01*
X285493341Y-125951000D01*
X288979333Y-125951000D01*
X289047106Y-126063248D01*
X289106333Y-126078000D01*
X289218582Y-126010227D01*
X289233333Y-125951000D01*
X289165560Y-125838751D01*
X289106333Y-125824000D01*
X290249333Y-125824000D01*
X290313762Y-125906206D01*
X290334000Y-125908667D01*
X290416206Y-125844237D01*
X290418667Y-125824000D01*
X290354237Y-125741793D01*
X290334000Y-125739333D01*
X290251793Y-125803762D01*
X290249333Y-125824000D01*
X289106333Y-125824000D01*
X288994085Y-125891773D01*
X288979333Y-125951000D01*
X285493341Y-125951000D01*
X285738400Y-125877786D01*
X285931333Y-125825143D01*
X286387945Y-125659663D01*
X291858000Y-125659663D01*
X291922579Y-125737053D01*
X291942667Y-125739333D01*
X292016971Y-125670418D01*
X292027333Y-125607336D01*
X291986287Y-125519702D01*
X291942667Y-125527667D01*
X291861229Y-125635909D01*
X291858000Y-125659663D01*
X286387945Y-125659663D01*
X286509237Y-125615706D01*
X286923265Y-125358333D01*
X294228667Y-125358333D01*
X294274384Y-125471005D01*
X294313333Y-125485333D01*
X294388448Y-125416757D01*
X294398000Y-125358333D01*
X294352282Y-125245661D01*
X294313333Y-125231333D01*
X294238219Y-125299910D01*
X294228667Y-125358333D01*
X286923265Y-125358333D01*
X286952405Y-125340219D01*
X287000696Y-125298552D01*
X287220060Y-125162221D01*
X287537803Y-125033239D01*
X287883756Y-124935239D01*
X288187750Y-124891848D01*
X288209623Y-124891434D01*
X288432681Y-124862525D01*
X288707475Y-124792544D01*
X288767667Y-124772737D01*
X289015319Y-124711088D01*
X289364784Y-124654090D01*
X289748644Y-124612329D01*
X289826000Y-124606574D01*
X290192736Y-124577732D01*
X290667744Y-124534612D01*
X291191145Y-124482913D01*
X291703061Y-124428337D01*
X291731000Y-124425219D01*
X292213237Y-124373091D01*
X292684054Y-124325437D01*
X293093675Y-124287090D01*
X293392322Y-124262883D01*
X293424333Y-124260779D01*
X293780821Y-124216413D01*
X294196908Y-124133006D01*
X294525000Y-124045393D01*
X294918831Y-123943253D01*
X295343349Y-123863357D01*
X295648745Y-123827976D01*
X296179823Y-123794163D01*
X296666942Y-124241984D01*
G36*
X298357232Y-120643899D02*
G01*
X298377333Y-120731322D01*
X298325067Y-120836860D01*
X298182056Y-121044583D01*
X297968978Y-121329171D01*
X297706514Y-121665302D01*
X297415344Y-122027653D01*
X297116146Y-122390903D01*
X296829601Y-122729731D01*
X296576387Y-123018814D01*
X296377186Y-123232831D01*
X296252675Y-123346460D01*
X296232815Y-123357239D01*
X296096871Y-123446089D01*
X296036994Y-123509060D01*
X295903142Y-123592317D01*
X295664536Y-123674975D01*
X295486661Y-123716461D01*
X295160297Y-123770439D01*
X294772700Y-123822157D01*
X294363628Y-123867860D01*
X293972842Y-123903793D01*
X293640100Y-123926201D01*
X293405162Y-123931327D01*
X293316685Y-123921430D01*
X293172509Y-123900015D01*
X292894045Y-123885171D01*
X292516196Y-123876565D01*
X292073865Y-123873863D01*
X291601956Y-123876732D01*
X291135373Y-123884838D01*
X290709018Y-123897848D01*
X290357797Y-123915429D01*
X290116612Y-123937248D01*
X290037667Y-123952750D01*
X289848031Y-123996333D01*
X289537973Y-124046254D01*
X289155867Y-124095351D01*
X288871833Y-124125355D01*
X288471197Y-124172597D01*
X288112015Y-124230926D01*
X287841341Y-124291837D01*
X287728833Y-124331919D01*
X287544547Y-124404813D01*
X287246573Y-124499232D01*
X286886395Y-124599389D01*
X286714500Y-124642920D01*
X285931333Y-124834712D01*
X285931333Y-125160023D01*
X285949158Y-125370202D01*
X286022631Y-125469315D01*
X286181748Y-125467593D01*
X286456504Y-125375268D01*
X286505493Y-125355860D01*
X286768686Y-125198613D01*
X286968871Y-124988795D01*
X286980206Y-124970549D01*
X287201894Y-124727781D01*
X287561128Y-124521668D01*
X288062339Y-124351392D01*
X288709962Y-124216137D01*
X289508429Y-124115084D01*
X290462173Y-124047416D01*
X291575628Y-124012316D01*
X292207745Y-124006689D01*
X292841323Y-124006402D01*
X293321162Y-124009467D01*
X293662838Y-124016789D01*
X293881926Y-124029274D01*
X293994002Y-124047826D01*
X294014643Y-124073352D01*
X293959425Y-124106755D01*
X293955831Y-124108279D01*
X293764878Y-124171553D01*
X293647346Y-124179739D01*
X293644391Y-124178186D01*
X293545391Y-124175351D01*
X293305603Y-124189404D01*
X292952488Y-124218115D01*
X292513510Y-124259253D01*
X292023305Y-124309817D01*
X291496792Y-124362763D01*
X291000579Y-124405958D01*
X290570332Y-124436804D01*
X290241714Y-124452702D01*
X290066795Y-124452388D01*
X289844924Y-124449546D01*
X289721581Y-124470742D01*
X289711959Y-124490500D01*
X289661765Y-124529449D01*
X289489290Y-124553984D01*
X289386497Y-124557716D01*
X289056430Y-124591469D01*
X288724401Y-124669373D01*
X288683000Y-124683441D01*
X288408569Y-124762770D01*
X288157753Y-124804787D01*
X288114459Y-124806725D01*
X287799223Y-124851411D01*
X287431766Y-124963949D01*
X287088308Y-125116446D01*
X286862667Y-125264840D01*
X286400952Y-125560780D01*
X286016000Y-125695649D01*
X285655809Y-125787608D01*
X285429282Y-125839241D01*
X285306902Y-125855447D01*
X285259149Y-125841123D01*
X285254000Y-125822103D01*
X285285795Y-125683165D01*
X285455622Y-125683165D01*
X285554318Y-125718003D01*
X285591497Y-125716142D01*
X285757392Y-125628829D01*
X285814315Y-125518037D01*
X285839840Y-125278785D01*
X285831516Y-125134112D01*
X285802332Y-124935000D01*
X285663982Y-125146667D01*
X285540923Y-125369578D01*
X285470348Y-125543883D01*
X285455622Y-125683165D01*
X285285795Y-125683165D01*
X285303464Y-125605956D01*
X285432783Y-125331952D01*
X285613343Y-125040858D01*
X285816535Y-124773438D01*
X286013745Y-124570458D01*
X286176361Y-124472684D01*
X286203462Y-124469333D01*
X286334101Y-124412184D01*
X286511537Y-124269966D01*
X286562191Y-124219656D01*
X286785251Y-124048913D01*
X287116852Y-123870618D01*
X287424698Y-123742649D01*
X288048000Y-123515318D01*
X288048000Y-122722326D01*
X288050626Y-122351621D01*
X288063005Y-122118600D01*
X288080381Y-122042222D01*
X288160889Y-122042222D01*
X288172511Y-122092556D01*
X288217333Y-122098667D01*
X288287023Y-122067688D01*
X288273778Y-122042222D01*
X288173298Y-122032089D01*
X288160889Y-122042222D01*
X288080381Y-122042222D01*
X288091890Y-121991636D01*
X288144035Y-121939107D01*
X288217333Y-121929333D01*
X288297785Y-121942066D01*
X288347777Y-122001749D01*
X288374470Y-122140613D01*
X288385027Y-122390886D01*
X288386667Y-122691333D01*
X288386667Y-123453333D01*
X288791161Y-123453333D01*
X289070262Y-123429852D01*
X289300475Y-123370662D01*
X289362661Y-123338965D01*
X289456625Y-123281854D01*
X289566807Y-123235287D01*
X289710546Y-123198160D01*
X289905176Y-123169369D01*
X290168035Y-123147809D01*
X290516458Y-123132376D01*
X290967782Y-123121966D01*
X291539344Y-123115474D01*
X292248479Y-123111797D01*
X292955674Y-123110087D01*
X295931257Y-123104908D01*
X296244128Y-122753456D01*
X296771273Y-122165361D01*
X297233146Y-121658306D01*
X297620840Y-121241716D01*
X297925452Y-120925018D01*
X298138074Y-120717638D01*
X298249802Y-120629001D01*
X298252233Y-120627986D01*
X298357232Y-120643899D01*
G37*
X298357232Y-120643899D02*
X298377333Y-120731322D01*
X298325067Y-120836860D01*
X298182056Y-121044583D01*
X297968978Y-121329171D01*
X297706514Y-121665302D01*
X297415344Y-122027653D01*
X297116146Y-122390903D01*
X296829601Y-122729731D01*
X296576387Y-123018814D01*
X296377186Y-123232831D01*
X296252675Y-123346460D01*
X296232815Y-123357239D01*
X296096871Y-123446089D01*
X296036994Y-123509060D01*
X295903142Y-123592317D01*
X295664536Y-123674975D01*
X295486661Y-123716461D01*
X295160297Y-123770439D01*
X294772700Y-123822157D01*
X294363628Y-123867860D01*
X293972842Y-123903793D01*
X293640100Y-123926201D01*
X293405162Y-123931327D01*
X293316685Y-123921430D01*
X293172509Y-123900015D01*
X292894045Y-123885171D01*
X292516196Y-123876565D01*
X292073865Y-123873863D01*
X291601956Y-123876732D01*
X291135373Y-123884838D01*
X290709018Y-123897848D01*
X290357797Y-123915429D01*
X290116612Y-123937248D01*
X290037667Y-123952750D01*
X289848031Y-123996333D01*
X289537973Y-124046254D01*
X289155867Y-124095351D01*
X288871833Y-124125355D01*
X288471197Y-124172597D01*
X288112015Y-124230926D01*
X287841341Y-124291837D01*
X287728833Y-124331919D01*
X287544547Y-124404813D01*
X287246573Y-124499232D01*
X286886395Y-124599389D01*
X286714500Y-124642920D01*
X285931333Y-124834712D01*
X285931333Y-125160023D01*
X285949158Y-125370202D01*
X286022631Y-125469315D01*
X286181748Y-125467593D01*
X286456504Y-125375268D01*
X286505493Y-125355860D01*
X286768686Y-125198613D01*
X286968871Y-124988795D01*
X286980206Y-124970549D01*
X287201894Y-124727781D01*
X287561128Y-124521668D01*
X288062339Y-124351392D01*
X288709962Y-124216137D01*
X289508429Y-124115084D01*
X290462173Y-124047416D01*
X291575628Y-124012316D01*
X292207745Y-124006689D01*
X292841323Y-124006402D01*
X293321162Y-124009467D01*
X293662838Y-124016789D01*
X293881926Y-124029274D01*
X293994002Y-124047826D01*
X294014643Y-124073352D01*
X293959425Y-124106755D01*
X293955831Y-124108279D01*
X293764878Y-124171553D01*
X293647346Y-124179739D01*
X293644391Y-124178186D01*
X293545391Y-124175351D01*
X293305603Y-124189404D01*
X292952488Y-124218115D01*
X292513510Y-124259253D01*
X292023305Y-124309817D01*
X291496792Y-124362763D01*
X291000579Y-124405958D01*
X290570332Y-124436804D01*
X290241714Y-124452702D01*
X290066795Y-124452388D01*
X289844924Y-124449546D01*
X289721581Y-124470742D01*
X289711959Y-124490500D01*
X289661765Y-124529449D01*
X289489290Y-124553984D01*
X289386497Y-124557716D01*
X289056430Y-124591469D01*
X288724401Y-124669373D01*
X288683000Y-124683441D01*
X288408569Y-124762770D01*
X288157753Y-124804787D01*
X288114459Y-124806725D01*
X287799223Y-124851411D01*
X287431766Y-124963949D01*
X287088308Y-125116446D01*
X286862667Y-125264840D01*
X286400952Y-125560780D01*
X286016000Y-125695649D01*
X285655809Y-125787608D01*
X285429282Y-125839241D01*
X285306902Y-125855447D01*
X285259149Y-125841123D01*
X285254000Y-125822103D01*
X285285795Y-125683165D01*
X285455622Y-125683165D01*
X285554318Y-125718003D01*
X285591497Y-125716142D01*
X285757392Y-125628829D01*
X285814315Y-125518037D01*
X285839840Y-125278785D01*
X285831516Y-125134112D01*
X285802332Y-124935000D01*
X285663982Y-125146667D01*
X285540923Y-125369578D01*
X285470348Y-125543883D01*
X285455622Y-125683165D01*
X285285795Y-125683165D01*
X285303464Y-125605956D01*
X285432783Y-125331952D01*
X285613343Y-125040858D01*
X285816535Y-124773438D01*
X286013745Y-124570458D01*
X286176361Y-124472684D01*
X286203462Y-124469333D01*
X286334101Y-124412184D01*
X286511537Y-124269966D01*
X286562191Y-124219656D01*
X286785251Y-124048913D01*
X287116852Y-123870618D01*
X287424698Y-123742649D01*
X288048000Y-123515318D01*
X288048000Y-122722326D01*
X288050626Y-122351621D01*
X288063005Y-122118600D01*
X288080381Y-122042222D01*
X288160889Y-122042222D01*
X288172511Y-122092556D01*
X288217333Y-122098667D01*
X288287023Y-122067688D01*
X288273778Y-122042222D01*
X288173298Y-122032089D01*
X288160889Y-122042222D01*
X288080381Y-122042222D01*
X288091890Y-121991636D01*
X288144035Y-121939107D01*
X288217333Y-121929333D01*
X288297785Y-121942066D01*
X288347777Y-122001749D01*
X288374470Y-122140613D01*
X288385027Y-122390886D01*
X288386667Y-122691333D01*
X288386667Y-123453333D01*
X288791161Y-123453333D01*
X289070262Y-123429852D01*
X289300475Y-123370662D01*
X289362661Y-123338965D01*
X289456625Y-123281854D01*
X289566807Y-123235287D01*
X289710546Y-123198160D01*
X289905176Y-123169369D01*
X290168035Y-123147809D01*
X290516458Y-123132376D01*
X290967782Y-123121966D01*
X291539344Y-123115474D01*
X292248479Y-123111797D01*
X292955674Y-123110087D01*
X295931257Y-123104908D01*
X296244128Y-122753456D01*
X296771273Y-122165361D01*
X297233146Y-121658306D01*
X297620840Y-121241716D01*
X297925452Y-120925018D01*
X298138074Y-120717638D01*
X298249802Y-120629001D01*
X298252233Y-120627986D01*
X298357232Y-120643899D01*
G36*
X291908397Y-118400614D02*
G01*
X291962499Y-118409017D01*
X292245197Y-118479049D01*
X292382839Y-118587729D01*
X292398885Y-118757092D01*
X292387512Y-118808216D01*
X292420070Y-118997176D01*
X292536095Y-119135994D01*
X292727078Y-119301633D01*
X292504206Y-119593834D01*
X292358140Y-119831789D01*
X292293211Y-120090352D01*
X292282630Y-120336184D01*
X292301852Y-120700524D01*
X292356704Y-120900817D01*
X292446823Y-120936496D01*
X292571845Y-120806991D01*
X292578136Y-120797500D01*
X292724990Y-120619428D01*
X292827677Y-120589013D01*
X292872962Y-120708646D01*
X292874000Y-120744000D01*
X292919537Y-120873148D01*
X293082232Y-120915700D01*
X293106833Y-120916312D01*
X293490203Y-120930226D01*
X293882632Y-120959411D01*
X294242277Y-120999042D01*
X294527295Y-121044290D01*
X294695843Y-121090329D01*
X294715500Y-121101894D01*
X294794656Y-121245207D01*
X294821333Y-121421373D01*
X294895651Y-121667763D01*
X295005498Y-121776960D01*
X295126475Y-121918839D01*
X295133993Y-122064859D01*
X295042016Y-122158845D01*
X294910288Y-122159923D01*
X294816761Y-122150943D01*
X294773809Y-122212884D01*
X294769561Y-122382749D01*
X294781402Y-122561682D01*
X294815503Y-123006064D01*
X292316757Y-123022222D01*
X291679432Y-123027673D01*
X291094825Y-123035214D01*
X290585014Y-123044358D01*
X290172078Y-123054619D01*
X289878095Y-123065511D01*
X289725144Y-123076548D01*
X289710545Y-123079618D01*
X289651930Y-123061308D01*
X289626384Y-122930931D01*
X289627901Y-122818333D01*
X294059333Y-122818333D01*
X294101667Y-122860667D01*
X294144000Y-122818333D01*
X294101667Y-122776000D01*
X294059333Y-122818333D01*
X289627901Y-122818333D01*
X289629990Y-122663339D01*
X289634011Y-122588595D01*
X289638212Y-122531737D01*
X289826000Y-122531737D01*
X289845846Y-122723082D01*
X289920563Y-122761283D01*
X290072918Y-122655171D01*
X290094500Y-122635878D01*
X290210499Y-122448477D01*
X290249333Y-122252926D01*
X290241134Y-122098667D01*
X290757333Y-122098667D01*
X290795197Y-122300319D01*
X290884333Y-122352667D01*
X290985159Y-122276938D01*
X291011333Y-122098667D01*
X291180667Y-122098667D01*
X291207277Y-122284587D01*
X291306288Y-122350046D01*
X291350000Y-122352667D01*
X291473947Y-122312751D01*
X291517586Y-122164234D01*
X291519333Y-122098667D01*
X291688667Y-122098667D01*
X291715277Y-122284587D01*
X291814288Y-122350046D01*
X291858000Y-122352667D01*
X291981947Y-122312751D01*
X292025586Y-122164234D01*
X292027333Y-122098667D01*
X292196667Y-122098667D01*
X292223277Y-122284587D01*
X292322288Y-122350046D01*
X292366000Y-122352667D01*
X292489947Y-122312751D01*
X292533586Y-122164234D01*
X292535333Y-122098667D01*
X292704667Y-122098667D01*
X292742531Y-122300319D01*
X292831667Y-122352667D01*
X292932493Y-122276938D01*
X292958667Y-122098667D01*
X293128000Y-122098667D01*
X293165864Y-122300319D01*
X293255000Y-122352667D01*
X293355826Y-122276938D01*
X293382000Y-122098667D01*
X293551333Y-122098667D01*
X293577944Y-122284587D01*
X293676955Y-122350046D01*
X293720667Y-122352667D01*
X293844613Y-122312751D01*
X293888253Y-122164234D01*
X293890000Y-122098667D01*
X294059333Y-122098667D01*
X294082114Y-122280193D01*
X294178954Y-122346601D01*
X294271000Y-122352667D01*
X294422272Y-122325329D01*
X294477612Y-122209121D01*
X294482667Y-122098667D01*
X294459885Y-121917140D01*
X294363045Y-121850732D01*
X294271000Y-121844667D01*
X294119728Y-121872004D01*
X294064388Y-121988212D01*
X294059333Y-122098667D01*
X293890000Y-122098667D01*
X293863389Y-121912746D01*
X293764378Y-121847287D01*
X293720667Y-121844667D01*
X293596720Y-121884582D01*
X293553080Y-122033099D01*
X293551333Y-122098667D01*
X293382000Y-122098667D01*
X293344136Y-121897014D01*
X293255000Y-121844667D01*
X293154174Y-121920395D01*
X293128000Y-122098667D01*
X292958667Y-122098667D01*
X292920802Y-121897014D01*
X292831667Y-121844667D01*
X292730840Y-121920395D01*
X292704667Y-122098667D01*
X292535333Y-122098667D01*
X292508723Y-121912746D01*
X292409711Y-121847287D01*
X292366000Y-121844667D01*
X292242053Y-121884582D01*
X292198413Y-122033099D01*
X292196667Y-122098667D01*
X292027333Y-122098667D01*
X292000723Y-121912746D01*
X291901711Y-121847287D01*
X291858000Y-121844667D01*
X291734053Y-121884582D01*
X291690413Y-122033099D01*
X291688667Y-122098667D01*
X291519333Y-122098667D01*
X291492723Y-121912746D01*
X291393711Y-121847287D01*
X291350000Y-121844667D01*
X291226053Y-121884582D01*
X291182413Y-122033099D01*
X291180667Y-122098667D01*
X291011333Y-122098667D01*
X290973469Y-121897014D01*
X290884333Y-121844667D01*
X290783507Y-121920395D01*
X290757333Y-122098667D01*
X290241134Y-122098667D01*
X290240565Y-122087965D01*
X290183078Y-122062574D01*
X290037667Y-122148786D01*
X289861175Y-122346461D01*
X289826000Y-122531737D01*
X289638212Y-122531737D01*
X289664933Y-122170125D01*
X289703925Y-121895840D01*
X289757313Y-121740601D01*
X289831423Y-121679267D01*
X289863801Y-121675333D01*
X289995353Y-121613791D01*
X290148339Y-121465138D01*
X290152973Y-121459302D01*
X290282686Y-121311287D01*
X290366817Y-121245328D01*
X290369695Y-121245094D01*
X290468920Y-121215619D01*
X290666342Y-121138916D01*
X290777410Y-121092384D01*
X291040745Y-120984112D01*
X291268017Y-120898025D01*
X291324284Y-120878997D01*
X291483963Y-120747625D01*
X291573279Y-120507212D01*
X291580175Y-120363000D01*
X291858000Y-120363000D01*
X291900333Y-120405333D01*
X291942667Y-120363000D01*
X291900333Y-120320667D01*
X291858000Y-120363000D01*
X291580175Y-120363000D01*
X291587745Y-120204710D01*
X291559553Y-120066667D01*
X291871368Y-120066667D01*
X291884674Y-120186862D01*
X291914073Y-120172500D01*
X291925256Y-119999158D01*
X291914073Y-119960833D01*
X291883170Y-119950197D01*
X291871368Y-120066667D01*
X291559553Y-120066667D01*
X291522874Y-119887072D01*
X291437251Y-119696832D01*
X291317647Y-119408062D01*
X291268863Y-119154001D01*
X291307667Y-119154001D01*
X291582833Y-119271910D01*
X291783293Y-119393844D01*
X291858646Y-119558201D01*
X291863367Y-119622409D01*
X291868733Y-119855000D01*
X291949852Y-119652208D01*
X291986134Y-119516333D01*
X292112000Y-119516333D01*
X292154333Y-119558667D01*
X292196667Y-119516333D01*
X292154333Y-119474000D01*
X292112000Y-119516333D01*
X291986134Y-119516333D01*
X291994789Y-119483923D01*
X291984163Y-119402608D01*
X292012365Y-119333412D01*
X292130511Y-119248567D01*
X292236731Y-119170804D01*
X292217833Y-119138333D01*
X292137255Y-119062774D01*
X292100470Y-118902500D01*
X292087921Y-118762981D01*
X292067781Y-118785129D01*
X292053570Y-118850076D01*
X291981086Y-118981515D01*
X291800808Y-119063112D01*
X291662934Y-119092243D01*
X291307667Y-119154001D01*
X291268863Y-119154001D01*
X291257096Y-119092721D01*
X291260436Y-118808308D01*
X291332504Y-118612322D01*
X291344856Y-118598611D01*
X291422370Y-118563604D01*
X291440033Y-118631567D01*
X291468345Y-118658373D01*
X291516224Y-118570889D01*
X292140222Y-118570889D01*
X292151844Y-118621223D01*
X292196667Y-118627333D01*
X292266357Y-118596355D01*
X292253111Y-118570889D01*
X292152631Y-118560756D01*
X292140222Y-118570889D01*
X291516224Y-118570889D01*
X291525903Y-118553205D01*
X291594897Y-118428613D01*
X291703279Y-118384062D01*
X291908397Y-118400614D01*
G37*
X291908397Y-118400614D02*
X291962499Y-118409017D01*
X292245197Y-118479049D01*
X292382839Y-118587729D01*
X292398885Y-118757092D01*
X292387512Y-118808216D01*
X292420070Y-118997176D01*
X292536095Y-119135994D01*
X292727078Y-119301633D01*
X292504206Y-119593834D01*
X292358140Y-119831789D01*
X292293211Y-120090352D01*
X292282630Y-120336184D01*
X292301852Y-120700524D01*
X292356704Y-120900817D01*
X292446823Y-120936496D01*
X292571845Y-120806991D01*
X292578136Y-120797500D01*
X292724990Y-120619428D01*
X292827677Y-120589013D01*
X292872962Y-120708646D01*
X292874000Y-120744000D01*
X292919537Y-120873148D01*
X293082232Y-120915700D01*
X293106833Y-120916312D01*
X293490203Y-120930226D01*
X293882632Y-120959411D01*
X294242277Y-120999042D01*
X294527295Y-121044290D01*
X294695843Y-121090329D01*
X294715500Y-121101894D01*
X294794656Y-121245207D01*
X294821333Y-121421373D01*
X294895651Y-121667763D01*
X295005498Y-121776960D01*
X295126475Y-121918839D01*
X295133993Y-122064859D01*
X295042016Y-122158845D01*
X294910288Y-122159923D01*
X294816761Y-122150943D01*
X294773809Y-122212884D01*
X294769561Y-122382749D01*
X294781402Y-122561682D01*
X294815503Y-123006064D01*
X292316757Y-123022222D01*
X291679432Y-123027673D01*
X291094825Y-123035214D01*
X290585014Y-123044358D01*
X290172078Y-123054619D01*
X289878095Y-123065511D01*
X289725144Y-123076548D01*
X289710545Y-123079618D01*
X289651930Y-123061308D01*
X289626384Y-122930931D01*
X289627901Y-122818333D01*
X294059333Y-122818333D01*
X294101667Y-122860667D01*
X294144000Y-122818333D01*
X294101667Y-122776000D01*
X294059333Y-122818333D01*
X289627901Y-122818333D01*
X289629990Y-122663339D01*
X289634011Y-122588595D01*
X289638212Y-122531737D01*
X289826000Y-122531737D01*
X289845846Y-122723082D01*
X289920563Y-122761283D01*
X290072918Y-122655171D01*
X290094500Y-122635878D01*
X290210499Y-122448477D01*
X290249333Y-122252926D01*
X290241134Y-122098667D01*
X290757333Y-122098667D01*
X290795197Y-122300319D01*
X290884333Y-122352667D01*
X290985159Y-122276938D01*
X291011333Y-122098667D01*
X291180667Y-122098667D01*
X291207277Y-122284587D01*
X291306288Y-122350046D01*
X291350000Y-122352667D01*
X291473947Y-122312751D01*
X291517586Y-122164234D01*
X291519333Y-122098667D01*
X291688667Y-122098667D01*
X291715277Y-122284587D01*
X291814288Y-122350046D01*
X291858000Y-122352667D01*
X291981947Y-122312751D01*
X292025586Y-122164234D01*
X292027333Y-122098667D01*
X292196667Y-122098667D01*
X292223277Y-122284587D01*
X292322288Y-122350046D01*
X292366000Y-122352667D01*
X292489947Y-122312751D01*
X292533586Y-122164234D01*
X292535333Y-122098667D01*
X292704667Y-122098667D01*
X292742531Y-122300319D01*
X292831667Y-122352667D01*
X292932493Y-122276938D01*
X292958667Y-122098667D01*
X293128000Y-122098667D01*
X293165864Y-122300319D01*
X293255000Y-122352667D01*
X293355826Y-122276938D01*
X293382000Y-122098667D01*
X293551333Y-122098667D01*
X293577944Y-122284587D01*
X293676955Y-122350046D01*
X293720667Y-122352667D01*
X293844613Y-122312751D01*
X293888253Y-122164234D01*
X293890000Y-122098667D01*
X294059333Y-122098667D01*
X294082114Y-122280193D01*
X294178954Y-122346601D01*
X294271000Y-122352667D01*
X294422272Y-122325329D01*
X294477612Y-122209121D01*
X294482667Y-122098667D01*
X294459885Y-121917140D01*
X294363045Y-121850732D01*
X294271000Y-121844667D01*
X294119728Y-121872004D01*
X294064388Y-121988212D01*
X294059333Y-122098667D01*
X293890000Y-122098667D01*
X293863389Y-121912746D01*
X293764378Y-121847287D01*
X293720667Y-121844667D01*
X293596720Y-121884582D01*
X293553080Y-122033099D01*
X293551333Y-122098667D01*
X293382000Y-122098667D01*
X293344136Y-121897014D01*
X293255000Y-121844667D01*
X293154174Y-121920395D01*
X293128000Y-122098667D01*
X292958667Y-122098667D01*
X292920802Y-121897014D01*
X292831667Y-121844667D01*
X292730840Y-121920395D01*
X292704667Y-122098667D01*
X292535333Y-122098667D01*
X292508723Y-121912746D01*
X292409711Y-121847287D01*
X292366000Y-121844667D01*
X292242053Y-121884582D01*
X292198413Y-122033099D01*
X292196667Y-122098667D01*
X292027333Y-122098667D01*
X292000723Y-121912746D01*
X291901711Y-121847287D01*
X291858000Y-121844667D01*
X291734053Y-121884582D01*
X291690413Y-122033099D01*
X291688667Y-122098667D01*
X291519333Y-122098667D01*
X291492723Y-121912746D01*
X291393711Y-121847287D01*
X291350000Y-121844667D01*
X291226053Y-121884582D01*
X291182413Y-122033099D01*
X291180667Y-122098667D01*
X291011333Y-122098667D01*
X290973469Y-121897014D01*
X290884333Y-121844667D01*
X290783507Y-121920395D01*
X290757333Y-122098667D01*
X290241134Y-122098667D01*
X290240565Y-122087965D01*
X290183078Y-122062574D01*
X290037667Y-122148786D01*
X289861175Y-122346461D01*
X289826000Y-122531737D01*
X289638212Y-122531737D01*
X289664933Y-122170125D01*
X289703925Y-121895840D01*
X289757313Y-121740601D01*
X289831423Y-121679267D01*
X289863801Y-121675333D01*
X289995353Y-121613791D01*
X290148339Y-121465138D01*
X290152973Y-121459302D01*
X290282686Y-121311287D01*
X290366817Y-121245328D01*
X290369695Y-121245094D01*
X290468920Y-121215619D01*
X290666342Y-121138916D01*
X290777410Y-121092384D01*
X291040745Y-120984112D01*
X291268017Y-120898025D01*
X291324284Y-120878997D01*
X291483963Y-120747625D01*
X291573279Y-120507212D01*
X291580175Y-120363000D01*
X291858000Y-120363000D01*
X291900333Y-120405333D01*
X291942667Y-120363000D01*
X291900333Y-120320667D01*
X291858000Y-120363000D01*
X291580175Y-120363000D01*
X291587745Y-120204710D01*
X291559553Y-120066667D01*
X291871368Y-120066667D01*
X291884674Y-120186862D01*
X291914073Y-120172500D01*
X291925256Y-119999158D01*
X291914073Y-119960833D01*
X291883170Y-119950197D01*
X291871368Y-120066667D01*
X291559553Y-120066667D01*
X291522874Y-119887072D01*
X291437251Y-119696832D01*
X291317647Y-119408062D01*
X291268863Y-119154001D01*
X291307667Y-119154001D01*
X291582833Y-119271910D01*
X291783293Y-119393844D01*
X291858646Y-119558201D01*
X291863367Y-119622409D01*
X291868733Y-119855000D01*
X291949852Y-119652208D01*
X291986134Y-119516333D01*
X292112000Y-119516333D01*
X292154333Y-119558667D01*
X292196667Y-119516333D01*
X292154333Y-119474000D01*
X292112000Y-119516333D01*
X291986134Y-119516333D01*
X291994789Y-119483923D01*
X291984163Y-119402608D01*
X292012365Y-119333412D01*
X292130511Y-119248567D01*
X292236731Y-119170804D01*
X292217833Y-119138333D01*
X292137255Y-119062774D01*
X292100470Y-118902500D01*
X292087921Y-118762981D01*
X292067781Y-118785129D01*
X292053570Y-118850076D01*
X291981086Y-118981515D01*
X291800808Y-119063112D01*
X291662934Y-119092243D01*
X291307667Y-119154001D01*
X291268863Y-119154001D01*
X291257096Y-119092721D01*
X291260436Y-118808308D01*
X291332504Y-118612322D01*
X291344856Y-118598611D01*
X291422370Y-118563604D01*
X291440033Y-118631567D01*
X291468345Y-118658373D01*
X291516224Y-118570889D01*
X292140222Y-118570889D01*
X292151844Y-118621223D01*
X292196667Y-118627333D01*
X292266357Y-118596355D01*
X292253111Y-118570889D01*
X292152631Y-118560756D01*
X292140222Y-118570889D01*
X291516224Y-118570889D01*
X291525903Y-118553205D01*
X291594897Y-118428613D01*
X291703279Y-118384062D01*
X291908397Y-118400614D01*
D11*
X295100000Y-126130000D02*
X294660000Y-126120000D01*
X294660000Y-126120000D02*
X295070000Y-126080000D01*
X295070000Y-126080000D02*
X295050000Y-126080000D01*
X295050000Y-126080000D02*
X295050000Y-126090000D01*
D10*
X295970000Y-125850000D02*
X296040000Y-125790000D01*
X296040000Y-125790000D02*
X296160000Y-125750000D01*
X295930000Y-125920000D02*
X295950000Y-125920000D01*
X296280000Y-125910000D02*
X296270000Y-125900000D01*
X295360000Y-126010000D02*
X295300000Y-126010000D01*
X295580000Y-125660000D02*
X295600000Y-125550000D01*
X295600000Y-125550000D02*
X295540000Y-125480000D01*
X295540000Y-125480000D02*
X295520000Y-125360000D01*
X295520000Y-125360000D02*
X295610000Y-125280000D01*
X295610000Y-125280000D02*
X295600000Y-125240000D01*
X295890000Y-126050000D02*
X295920000Y-126070000D01*
X295920000Y-126070000D02*
X295950000Y-126050000D01*
X295950000Y-126050000D02*
X295970000Y-126030000D01*
X295970000Y-126030000D02*
X296000000Y-126010000D01*
X296000000Y-126010000D02*
X296000000Y-126020000D01*
X296000000Y-126020000D02*
X295990000Y-126040000D01*
X295990000Y-126040000D02*
X295970000Y-126060000D01*
X295970000Y-126060000D02*
X295960000Y-126070000D01*
X295960000Y-126070000D02*
X295950000Y-126070000D01*
X295950000Y-126070000D02*
X295870000Y-126020000D01*
X295870000Y-126020000D02*
X295940000Y-125710000D01*
X295940000Y-125710000D02*
X296200000Y-125560000D01*
X295920000Y-125530000D02*
X295840000Y-125500000D01*
X295840000Y-125500000D02*
X295840000Y-125570000D01*
X295840000Y-125570000D02*
X295850000Y-125610000D01*
X295850000Y-125610000D02*
X295840000Y-125610000D01*
X295840000Y-125610000D02*
X295840000Y-125670000D01*
X295840000Y-125670000D02*
X295830000Y-125750000D01*
X295830000Y-125750000D02*
X295820000Y-125830000D01*
X295820000Y-125830000D02*
X295810000Y-125910000D01*
X295810000Y-125910000D02*
X295810000Y-125980000D01*
X295810000Y-125980000D02*
X295850000Y-126020000D01*
X295850000Y-126020000D02*
X295890000Y-126060000D01*
X295890000Y-126060000D02*
X295890000Y-125800000D01*
X295450000Y-125930000D02*
X295470000Y-125810000D01*
X296210000Y-126050000D02*
X296230000Y-125940000D01*
X296230000Y-125940000D02*
X296210000Y-125840000D01*
X296210000Y-125840000D02*
X296110000Y-125790000D01*
X296110000Y-125790000D02*
X296060000Y-125800000D01*
X295350000Y-125950000D02*
X295380000Y-125860000D01*
X295380000Y-125860000D02*
X295350000Y-125830000D01*
X295350000Y-125830000D02*
X295520000Y-125750000D01*
X295520000Y-125750000D02*
X295420000Y-125690000D01*
%TO.C,SOIC-8*%
X223225000Y-123525000D02*
X223225000Y-123575000D01*
X227375000Y-123525000D02*
X227375000Y-123670000D01*
X227375000Y-128675000D02*
X227375000Y-128530000D01*
X223225000Y-128675000D02*
X223225000Y-128530000D01*
X223225000Y-123525000D02*
X227375000Y-123525000D01*
X223225000Y-128675000D02*
X227375000Y-128675000D01*
X223225000Y-123575000D02*
X221825000Y-123575000D01*
%TO.C,QFP-64*%
X253825000Y-122125000D02*
X252800000Y-122125000D01*
X264175000Y-121125000D02*
X263100000Y-121125000D01*
X264175000Y-131475000D02*
X263100000Y-131475000D01*
X253825000Y-131475000D02*
X254900000Y-131475000D01*
X253825000Y-121125000D02*
X254900000Y-121125000D01*
X253825000Y-131475000D02*
X253825000Y-130400000D01*
X264175000Y-131475000D02*
X264175000Y-130400000D01*
X264175000Y-121125000D02*
X264175000Y-122200000D01*
X253825000Y-121125000D02*
X253825000Y-122125000D01*
D11*
%TO.C,SOT-223*%
X215500000Y-129310000D02*
X209490000Y-129310000D01*
X213250000Y-122490000D02*
X209490000Y-122490000D01*
X209490000Y-129310000D02*
X209490000Y-128050000D01*
X209490000Y-122490000D02*
X209490000Y-123750000D01*
%TO.C,SOT-23-5*%
X195210000Y-126660000D02*
X192760000Y-126660000D01*
X193410000Y-129880000D02*
X195210000Y-129880000D01*
%TO.C,SOT-23*%
X194870000Y-124770000D02*
X194870000Y-123840000D01*
X194870000Y-121610000D02*
X194870000Y-122540000D01*
X194870000Y-121610000D02*
X192710000Y-121610000D01*
X194870000Y-124770000D02*
X193410000Y-124770000D01*
%TO.C,6mm*%
X183460000Y-122500000D02*
X183490000Y-122500000D01*
X189920000Y-122500000D02*
X189890000Y-122500000D01*
X189920000Y-128960000D02*
X189890000Y-128960000D01*
X183490000Y-128960000D02*
X183460000Y-128960000D01*
X185390000Y-122500000D02*
X187990000Y-122500000D01*
X183460000Y-128960000D02*
X183460000Y-122500000D01*
X185390000Y-128960000D02*
X187990000Y-128960000D01*
X189920000Y-128960000D02*
X189920000Y-122500000D01*
%TO.C,1206*%
X157967000Y-127694064D02*
X157967000Y-126489936D01*
X159787000Y-127694064D02*
X159787000Y-126489936D01*
%TO.C,0805*%
X155291666Y-126753252D02*
X155291666Y-126230748D01*
X156711666Y-126753252D02*
X156711666Y-126230748D01*
%TO.C,0603*%
X153006333Y-126463267D02*
X153006333Y-126120733D01*
X154026333Y-126463267D02*
X154026333Y-126120733D01*
%TO.C,UFBGA-201*%
D10*
X235609523Y-119152380D02*
X235609523Y-119961904D01*
X235657142Y-120057142D01*
X235704761Y-120104761D01*
X235800000Y-120152380D01*
X235990476Y-120152380D01*
X236085714Y-120104761D01*
X236133333Y-120057142D01*
X236180952Y-119961904D01*
X236180952Y-119152380D01*
X236990476Y-119628571D02*
X236657142Y-119628571D01*
X236657142Y-120152380D02*
X236657142Y-119152380D01*
X237133333Y-119152380D01*
X237847619Y-119628571D02*
X237990476Y-119676190D01*
X238038095Y-119723809D01*
X238085714Y-119819047D01*
X238085714Y-119961904D01*
X238038095Y-120057142D01*
X237990476Y-120104761D01*
X237895238Y-120152380D01*
X237514285Y-120152380D01*
X237514285Y-119152380D01*
X237847619Y-119152380D01*
X237942857Y-119200000D01*
X237990476Y-119247619D01*
X238038095Y-119342857D01*
X238038095Y-119438095D01*
X237990476Y-119533333D01*
X237942857Y-119580952D01*
X237847619Y-119628571D01*
X237514285Y-119628571D01*
X239038095Y-119200000D02*
X238942857Y-119152380D01*
X238800000Y-119152380D01*
X238657142Y-119200000D01*
X238561904Y-119295238D01*
X238514285Y-119390476D01*
X238466666Y-119580952D01*
X238466666Y-119723809D01*
X238514285Y-119914285D01*
X238561904Y-120009523D01*
X238657142Y-120104761D01*
X238800000Y-120152380D01*
X238895238Y-120152380D01*
X239038095Y-120104761D01*
X239085714Y-120057142D01*
X239085714Y-119723809D01*
X238895238Y-119723809D01*
X239466666Y-119866666D02*
X239942857Y-119866666D01*
X239371428Y-120152380D02*
X239704761Y-119152380D01*
X240038095Y-120152380D01*
X240371428Y-119771428D02*
X241133333Y-119771428D01*
X241561904Y-119247619D02*
X241609523Y-119200000D01*
X241704761Y-119152380D01*
X241942857Y-119152380D01*
X242038095Y-119200000D01*
X242085714Y-119247619D01*
X242133333Y-119342857D01*
X242133333Y-119438095D01*
X242085714Y-119580952D01*
X241514285Y-120152380D01*
X242133333Y-120152380D01*
X242752380Y-119152380D02*
X242847619Y-119152380D01*
X242942857Y-119200000D01*
X242990476Y-119247619D01*
X243038095Y-119342857D01*
X243085714Y-119533333D01*
X243085714Y-119771428D01*
X243038095Y-119961904D01*
X242990476Y-120057142D01*
X242942857Y-120104761D01*
X242847619Y-120152380D01*
X242752380Y-120152380D01*
X242657142Y-120104761D01*
X242609523Y-120057142D01*
X242561904Y-119961904D01*
X242514285Y-119771428D01*
X242514285Y-119533333D01*
X242561904Y-119342857D01*
X242609523Y-119247619D01*
X242657142Y-119200000D01*
X242752380Y-119152380D01*
X244038095Y-120152380D02*
X243466666Y-120152380D01*
X243752380Y-120152380D02*
X243752380Y-119152380D01*
X243657142Y-119295238D01*
X243561904Y-119390476D01*
X243466666Y-119438095D01*
%TO.C,SOIC-8*%
X222657142Y-123004761D02*
X222800000Y-123052380D01*
X223038095Y-123052380D01*
X223133333Y-123004761D01*
X223180952Y-122957142D01*
X223228571Y-122861904D01*
X223228571Y-122766666D01*
X223180952Y-122671428D01*
X223133333Y-122623809D01*
X223038095Y-122576190D01*
X222847619Y-122528571D01*
X222752380Y-122480952D01*
X222704761Y-122433333D01*
X222657142Y-122338095D01*
X222657142Y-122242857D01*
X222704761Y-122147619D01*
X222752380Y-122100000D01*
X222847619Y-122052380D01*
X223085714Y-122052380D01*
X223228571Y-122100000D01*
X223847619Y-122052380D02*
X224038095Y-122052380D01*
X224133333Y-122100000D01*
X224228571Y-122195238D01*
X224276190Y-122385714D01*
X224276190Y-122719047D01*
X224228571Y-122909523D01*
X224133333Y-123004761D01*
X224038095Y-123052380D01*
X223847619Y-123052380D01*
X223752380Y-123004761D01*
X223657142Y-122909523D01*
X223609523Y-122719047D01*
X223609523Y-122385714D01*
X223657142Y-122195238D01*
X223752380Y-122100000D01*
X223847619Y-122052380D01*
X224704761Y-123052380D02*
X224704761Y-122052380D01*
X225752380Y-122957142D02*
X225704761Y-123004761D01*
X225561904Y-123052380D01*
X225466666Y-123052380D01*
X225323809Y-123004761D01*
X225228571Y-122909523D01*
X225180952Y-122814285D01*
X225133333Y-122623809D01*
X225133333Y-122480952D01*
X225180952Y-122290476D01*
X225228571Y-122195238D01*
X225323809Y-122100000D01*
X225466666Y-122052380D01*
X225561904Y-122052380D01*
X225704761Y-122100000D01*
X225752380Y-122147619D01*
X226180952Y-122671428D02*
X226942857Y-122671428D01*
X227561904Y-122480952D02*
X227466666Y-122433333D01*
X227419047Y-122385714D01*
X227371428Y-122290476D01*
X227371428Y-122242857D01*
X227419047Y-122147619D01*
X227466666Y-122100000D01*
X227561904Y-122052380D01*
X227752380Y-122052380D01*
X227847619Y-122100000D01*
X227895238Y-122147619D01*
X227942857Y-122242857D01*
X227942857Y-122290476D01*
X227895238Y-122385714D01*
X227847619Y-122433333D01*
X227752380Y-122480952D01*
X227561904Y-122480952D01*
X227466666Y-122528571D01*
X227419047Y-122576190D01*
X227371428Y-122671428D01*
X227371428Y-122861904D01*
X227419047Y-122957142D01*
X227466666Y-123004761D01*
X227561904Y-123052380D01*
X227752380Y-123052380D01*
X227847619Y-123004761D01*
X227895238Y-122957142D01*
X227942857Y-122861904D01*
X227942857Y-122671428D01*
X227895238Y-122576190D01*
X227847619Y-122528571D01*
X227752380Y-122480952D01*
%TO.C,QFP-64*%
X257146952Y-126961619D02*
X257051714Y-126914000D01*
X256956476Y-126818761D01*
X256813619Y-126675904D01*
X256718380Y-126628285D01*
X256623142Y-126628285D01*
X256670761Y-126866380D02*
X256575523Y-126818761D01*
X256480285Y-126723523D01*
X256432666Y-126533047D01*
X256432666Y-126199714D01*
X256480285Y-126009238D01*
X256575523Y-125914000D01*
X256670761Y-125866380D01*
X256861238Y-125866380D01*
X256956476Y-125914000D01*
X257051714Y-126009238D01*
X257099333Y-126199714D01*
X257099333Y-126533047D01*
X257051714Y-126723523D01*
X256956476Y-126818761D01*
X256861238Y-126866380D01*
X256670761Y-126866380D01*
X257861238Y-126342571D02*
X257527904Y-126342571D01*
X257527904Y-126866380D02*
X257527904Y-125866380D01*
X258004095Y-125866380D01*
X258385047Y-126866380D02*
X258385047Y-125866380D01*
X258766000Y-125866380D01*
X258861238Y-125914000D01*
X258908857Y-125961619D01*
X258956476Y-126056857D01*
X258956476Y-126199714D01*
X258908857Y-126294952D01*
X258861238Y-126342571D01*
X258766000Y-126390190D01*
X258385047Y-126390190D01*
X259385047Y-126485428D02*
X260146952Y-126485428D01*
X261051714Y-125866380D02*
X260861238Y-125866380D01*
X260766000Y-125914000D01*
X260718380Y-125961619D01*
X260623142Y-126104476D01*
X260575523Y-126294952D01*
X260575523Y-126675904D01*
X260623142Y-126771142D01*
X260670761Y-126818761D01*
X260766000Y-126866380D01*
X260956476Y-126866380D01*
X261051714Y-126818761D01*
X261099333Y-126771142D01*
X261146952Y-126675904D01*
X261146952Y-126437809D01*
X261099333Y-126342571D01*
X261051714Y-126294952D01*
X260956476Y-126247333D01*
X260766000Y-126247333D01*
X260670761Y-126294952D01*
X260623142Y-126342571D01*
X260575523Y-126437809D01*
X262004095Y-126199714D02*
X262004095Y-126866380D01*
X261766000Y-125818761D02*
X261527904Y-126533047D01*
X262146952Y-126533047D01*
%TO.C,SOT-223*%
X208161904Y-130804761D02*
X208304761Y-130852380D01*
X208542857Y-130852380D01*
X208638095Y-130804761D01*
X208685714Y-130757142D01*
X208733333Y-130661904D01*
X208733333Y-130566666D01*
X208685714Y-130471428D01*
X208638095Y-130423809D01*
X208542857Y-130376190D01*
X208352380Y-130328571D01*
X208257142Y-130280952D01*
X208209523Y-130233333D01*
X208161904Y-130138095D01*
X208161904Y-130042857D01*
X208209523Y-129947619D01*
X208257142Y-129900000D01*
X208352380Y-129852380D01*
X208590476Y-129852380D01*
X208733333Y-129900000D01*
X209352380Y-129852380D02*
X209542857Y-129852380D01*
X209638095Y-129900000D01*
X209733333Y-129995238D01*
X209780952Y-130185714D01*
X209780952Y-130519047D01*
X209733333Y-130709523D01*
X209638095Y-130804761D01*
X209542857Y-130852380D01*
X209352380Y-130852380D01*
X209257142Y-130804761D01*
X209161904Y-130709523D01*
X209114285Y-130519047D01*
X209114285Y-130185714D01*
X209161904Y-129995238D01*
X209257142Y-129900000D01*
X209352380Y-129852380D01*
X210066666Y-129852380D02*
X210638095Y-129852380D01*
X210352380Y-130852380D02*
X210352380Y-129852380D01*
X210971428Y-130471428D02*
X211733333Y-130471428D01*
X212161904Y-129947619D02*
X212209523Y-129900000D01*
X212304761Y-129852380D01*
X212542857Y-129852380D01*
X212638095Y-129900000D01*
X212685714Y-129947619D01*
X212733333Y-130042857D01*
X212733333Y-130138095D01*
X212685714Y-130280952D01*
X212114285Y-130852380D01*
X212733333Y-130852380D01*
X213114285Y-129947619D02*
X213161904Y-129900000D01*
X213257142Y-129852380D01*
X213495238Y-129852380D01*
X213590476Y-129900000D01*
X213638095Y-129947619D01*
X213685714Y-130042857D01*
X213685714Y-130138095D01*
X213638095Y-130280952D01*
X213066666Y-130852380D01*
X213685714Y-130852380D01*
X214019047Y-129852380D02*
X214638095Y-129852380D01*
X214304761Y-130233333D01*
X214447619Y-130233333D01*
X214542857Y-130280952D01*
X214590476Y-130328571D01*
X214638095Y-130423809D01*
X214638095Y-130661904D01*
X214590476Y-130757142D01*
X214542857Y-130804761D01*
X214447619Y-130852380D01*
X214161904Y-130852380D01*
X214066666Y-130804761D01*
X214019047Y-130757142D01*
%TO.C,SOT-23-5*%
X196802857Y-128420761D02*
X196945714Y-128468380D01*
X197183809Y-128468380D01*
X197279047Y-128420761D01*
X197326666Y-128373142D01*
X197374285Y-128277904D01*
X197374285Y-128182666D01*
X197326666Y-128087428D01*
X197279047Y-128039809D01*
X197183809Y-127992190D01*
X196993333Y-127944571D01*
X196898095Y-127896952D01*
X196850476Y-127849333D01*
X196802857Y-127754095D01*
X196802857Y-127658857D01*
X196850476Y-127563619D01*
X196898095Y-127516000D01*
X196993333Y-127468380D01*
X197231428Y-127468380D01*
X197374285Y-127516000D01*
X197993333Y-127468380D02*
X198183809Y-127468380D01*
X198279047Y-127516000D01*
X198374285Y-127611238D01*
X198421904Y-127801714D01*
X198421904Y-128135047D01*
X198374285Y-128325523D01*
X198279047Y-128420761D01*
X198183809Y-128468380D01*
X197993333Y-128468380D01*
X197898095Y-128420761D01*
X197802857Y-128325523D01*
X197755238Y-128135047D01*
X197755238Y-127801714D01*
X197802857Y-127611238D01*
X197898095Y-127516000D01*
X197993333Y-127468380D01*
X198707619Y-127468380D02*
X199279047Y-127468380D01*
X198993333Y-128468380D02*
X198993333Y-127468380D01*
X199612380Y-128087428D02*
X200374285Y-128087428D01*
X200802857Y-127563619D02*
X200850476Y-127516000D01*
X200945714Y-127468380D01*
X201183809Y-127468380D01*
X201279047Y-127516000D01*
X201326666Y-127563619D01*
X201374285Y-127658857D01*
X201374285Y-127754095D01*
X201326666Y-127896952D01*
X200755238Y-128468380D01*
X201374285Y-128468380D01*
X201707619Y-127468380D02*
X202326666Y-127468380D01*
X201993333Y-127849333D01*
X202136190Y-127849333D01*
X202231428Y-127896952D01*
X202279047Y-127944571D01*
X202326666Y-128039809D01*
X202326666Y-128277904D01*
X202279047Y-128373142D01*
X202231428Y-128420761D01*
X202136190Y-128468380D01*
X201850476Y-128468380D01*
X201755238Y-128420761D01*
X201707619Y-128373142D01*
X202755238Y-128087428D02*
X203517142Y-128087428D01*
X204469523Y-127468380D02*
X203993333Y-127468380D01*
X203945714Y-127944571D01*
X203993333Y-127896952D01*
X204088571Y-127849333D01*
X204326666Y-127849333D01*
X204421904Y-127896952D01*
X204469523Y-127944571D01*
X204517142Y-128039809D01*
X204517142Y-128277904D01*
X204469523Y-128373142D01*
X204421904Y-128420761D01*
X204326666Y-128468380D01*
X204088571Y-128468380D01*
X203993333Y-128420761D01*
X203945714Y-128373142D01*
%TO.C,SOT-23*%
X196882095Y-123594761D02*
X197024952Y-123642380D01*
X197263047Y-123642380D01*
X197358285Y-123594761D01*
X197405904Y-123547142D01*
X197453523Y-123451904D01*
X197453523Y-123356666D01*
X197405904Y-123261428D01*
X197358285Y-123213809D01*
X197263047Y-123166190D01*
X197072571Y-123118571D01*
X196977333Y-123070952D01*
X196929714Y-123023333D01*
X196882095Y-122928095D01*
X196882095Y-122832857D01*
X196929714Y-122737619D01*
X196977333Y-122690000D01*
X197072571Y-122642380D01*
X197310666Y-122642380D01*
X197453523Y-122690000D01*
X198072571Y-122642380D02*
X198263047Y-122642380D01*
X198358285Y-122690000D01*
X198453523Y-122785238D01*
X198501142Y-122975714D01*
X198501142Y-123309047D01*
X198453523Y-123499523D01*
X198358285Y-123594761D01*
X198263047Y-123642380D01*
X198072571Y-123642380D01*
X197977333Y-123594761D01*
X197882095Y-123499523D01*
X197834476Y-123309047D01*
X197834476Y-122975714D01*
X197882095Y-122785238D01*
X197977333Y-122690000D01*
X198072571Y-122642380D01*
X198786857Y-122642380D02*
X199358285Y-122642380D01*
X199072571Y-123642380D02*
X199072571Y-122642380D01*
X199691619Y-123261428D02*
X200453523Y-123261428D01*
X200882095Y-122737619D02*
X200929714Y-122690000D01*
X201024952Y-122642380D01*
X201263047Y-122642380D01*
X201358285Y-122690000D01*
X201405904Y-122737619D01*
X201453523Y-122832857D01*
X201453523Y-122928095D01*
X201405904Y-123070952D01*
X200834476Y-123642380D01*
X201453523Y-123642380D01*
X201786857Y-122642380D02*
X202405904Y-122642380D01*
X202072571Y-123023333D01*
X202215428Y-123023333D01*
X202310666Y-123070952D01*
X202358285Y-123118571D01*
X202405904Y-123213809D01*
X202405904Y-123451904D01*
X202358285Y-123547142D01*
X202310666Y-123594761D01*
X202215428Y-123642380D01*
X201929714Y-123642380D01*
X201834476Y-123594761D01*
X201786857Y-123547142D01*
%TO.C,6mm*%
X185547142Y-124420380D02*
X185356666Y-124420380D01*
X185261428Y-124468000D01*
X185213809Y-124515619D01*
X185118571Y-124658476D01*
X185070952Y-124848952D01*
X185070952Y-125229904D01*
X185118571Y-125325142D01*
X185166190Y-125372761D01*
X185261428Y-125420380D01*
X185451904Y-125420380D01*
X185547142Y-125372761D01*
X185594761Y-125325142D01*
X185642380Y-125229904D01*
X185642380Y-124991809D01*
X185594761Y-124896571D01*
X185547142Y-124848952D01*
X185451904Y-124801333D01*
X185261428Y-124801333D01*
X185166190Y-124848952D01*
X185118571Y-124896571D01*
X185070952Y-124991809D01*
X186070952Y-125420380D02*
X186070952Y-124753714D01*
X186070952Y-124848952D02*
X186118571Y-124801333D01*
X186213809Y-124753714D01*
X186356666Y-124753714D01*
X186451904Y-124801333D01*
X186499523Y-124896571D01*
X186499523Y-125420380D01*
X186499523Y-124896571D02*
X186547142Y-124801333D01*
X186642380Y-124753714D01*
X186785238Y-124753714D01*
X186880476Y-124801333D01*
X186928095Y-124896571D01*
X186928095Y-125420380D01*
X187404285Y-125420380D02*
X187404285Y-124753714D01*
X187404285Y-124848952D02*
X187451904Y-124801333D01*
X187547142Y-124753714D01*
X187690000Y-124753714D01*
X187785238Y-124801333D01*
X187832857Y-124896571D01*
X187832857Y-125420380D01*
X187832857Y-124896571D02*
X187880476Y-124801333D01*
X187975714Y-124753714D01*
X188118571Y-124753714D01*
X188213809Y-124801333D01*
X188261428Y-124896571D01*
X188261428Y-125420380D01*
%TO.C,1206*%
X159529380Y-123114857D02*
X159529380Y-123686285D01*
X159529380Y-123400571D02*
X158529380Y-123400571D01*
X158672238Y-123495809D01*
X158767476Y-123591047D01*
X158815095Y-123686285D01*
X158624619Y-122733904D02*
X158577000Y-122686285D01*
X158529380Y-122591047D01*
X158529380Y-122352952D01*
X158577000Y-122257714D01*
X158624619Y-122210095D01*
X158719857Y-122162476D01*
X158815095Y-122162476D01*
X158957952Y-122210095D01*
X159529380Y-122781523D01*
X159529380Y-122162476D01*
X158529380Y-121543428D02*
X158529380Y-121448190D01*
X158577000Y-121352952D01*
X158624619Y-121305333D01*
X158719857Y-121257714D01*
X158910333Y-121210095D01*
X159148428Y-121210095D01*
X159338904Y-121257714D01*
X159434142Y-121305333D01*
X159481761Y-121352952D01*
X159529380Y-121448190D01*
X159529380Y-121543428D01*
X159481761Y-121638666D01*
X159434142Y-121686285D01*
X159338904Y-121733904D01*
X159148428Y-121781523D01*
X158910333Y-121781523D01*
X158719857Y-121733904D01*
X158624619Y-121686285D01*
X158577000Y-121638666D01*
X158529380Y-121543428D01*
X158529380Y-120352952D02*
X158529380Y-120543428D01*
X158577000Y-120638666D01*
X158624619Y-120686285D01*
X158767476Y-120781523D01*
X158957952Y-120829142D01*
X159338904Y-120829142D01*
X159434142Y-120781523D01*
X159481761Y-120733904D01*
X159529380Y-120638666D01*
X159529380Y-120448190D01*
X159481761Y-120352952D01*
X159434142Y-120305333D01*
X159338904Y-120257714D01*
X159100809Y-120257714D01*
X159005571Y-120305333D01*
X158957952Y-120352952D01*
X158910333Y-120448190D01*
X158910333Y-120638666D01*
X158957952Y-120733904D01*
X159005571Y-120781523D01*
X159100809Y-120829142D01*
%TO.C,0805*%
X155464046Y-123448190D02*
X155464046Y-123352952D01*
X155511666Y-123257714D01*
X155559285Y-123210095D01*
X155654523Y-123162476D01*
X155844999Y-123114857D01*
X156083094Y-123114857D01*
X156273570Y-123162476D01*
X156368808Y-123210095D01*
X156416427Y-123257714D01*
X156464046Y-123352952D01*
X156464046Y-123448190D01*
X156416427Y-123543428D01*
X156368808Y-123591047D01*
X156273570Y-123638666D01*
X156083094Y-123686285D01*
X155844999Y-123686285D01*
X155654523Y-123638666D01*
X155559285Y-123591047D01*
X155511666Y-123543428D01*
X155464046Y-123448190D01*
X155892618Y-122543428D02*
X155844999Y-122638666D01*
X155797380Y-122686285D01*
X155702142Y-122733904D01*
X155654523Y-122733904D01*
X155559285Y-122686285D01*
X155511666Y-122638666D01*
X155464046Y-122543428D01*
X155464046Y-122352952D01*
X155511666Y-122257714D01*
X155559285Y-122210095D01*
X155654523Y-122162476D01*
X155702142Y-122162476D01*
X155797380Y-122210095D01*
X155844999Y-122257714D01*
X155892618Y-122352952D01*
X155892618Y-122543428D01*
X155940237Y-122638666D01*
X155987856Y-122686285D01*
X156083094Y-122733904D01*
X156273570Y-122733904D01*
X156368808Y-122686285D01*
X156416427Y-122638666D01*
X156464046Y-122543428D01*
X156464046Y-122352952D01*
X156416427Y-122257714D01*
X156368808Y-122210095D01*
X156273570Y-122162476D01*
X156083094Y-122162476D01*
X155987856Y-122210095D01*
X155940237Y-122257714D01*
X155892618Y-122352952D01*
X155464046Y-121543428D02*
X155464046Y-121448190D01*
X155511666Y-121352952D01*
X155559285Y-121305333D01*
X155654523Y-121257714D01*
X155844999Y-121210095D01*
X156083094Y-121210095D01*
X156273570Y-121257714D01*
X156368808Y-121305333D01*
X156416427Y-121352952D01*
X156464046Y-121448190D01*
X156464046Y-121543428D01*
X156416427Y-121638666D01*
X156368808Y-121686285D01*
X156273570Y-121733904D01*
X156083094Y-121781523D01*
X155844999Y-121781523D01*
X155654523Y-121733904D01*
X155559285Y-121686285D01*
X155511666Y-121638666D01*
X155464046Y-121543428D01*
X155464046Y-120305333D02*
X155464046Y-120781523D01*
X155940237Y-120829142D01*
X155892618Y-120781523D01*
X155844999Y-120686285D01*
X155844999Y-120448190D01*
X155892618Y-120352952D01*
X155940237Y-120305333D01*
X156035475Y-120257714D01*
X156273570Y-120257714D01*
X156368808Y-120305333D01*
X156416427Y-120352952D01*
X156464046Y-120448190D01*
X156464046Y-120686285D01*
X156416427Y-120781523D01*
X156368808Y-120829142D01*
%TO.C,0402*%
X151111380Y-123448190D02*
X151111380Y-123352952D01*
X151159000Y-123257714D01*
X151206619Y-123210095D01*
X151301857Y-123162476D01*
X151492333Y-123114857D01*
X151730428Y-123114857D01*
X151920904Y-123162476D01*
X152016142Y-123210095D01*
X152063761Y-123257714D01*
X152111380Y-123352952D01*
X152111380Y-123448190D01*
X152063761Y-123543428D01*
X152016142Y-123591047D01*
X151920904Y-123638666D01*
X151730428Y-123686285D01*
X151492333Y-123686285D01*
X151301857Y-123638666D01*
X151206619Y-123591047D01*
X151159000Y-123543428D01*
X151111380Y-123448190D01*
X151444714Y-122257714D02*
X152111380Y-122257714D01*
X151063761Y-122495809D02*
X151778047Y-122733904D01*
X151778047Y-122114857D01*
X151111380Y-121543428D02*
X151111380Y-121448190D01*
X151159000Y-121352952D01*
X151206619Y-121305333D01*
X151301857Y-121257714D01*
X151492333Y-121210095D01*
X151730428Y-121210095D01*
X151920904Y-121257714D01*
X152016142Y-121305333D01*
X152063761Y-121352952D01*
X152111380Y-121448190D01*
X152111380Y-121543428D01*
X152063761Y-121638666D01*
X152016142Y-121686285D01*
X151920904Y-121733904D01*
X151730428Y-121781523D01*
X151492333Y-121781523D01*
X151301857Y-121733904D01*
X151206619Y-121686285D01*
X151159000Y-121638666D01*
X151111380Y-121543428D01*
X151206619Y-120829142D02*
X151159000Y-120781523D01*
X151111380Y-120686285D01*
X151111380Y-120448190D01*
X151159000Y-120352952D01*
X151206619Y-120305333D01*
X151301857Y-120257714D01*
X151397095Y-120257714D01*
X151539952Y-120305333D01*
X152111380Y-120876761D01*
X152111380Y-120257714D01*
%TO.C,0603*%
X152906713Y-123448190D02*
X152906713Y-123352952D01*
X152954333Y-123257714D01*
X153001952Y-123210095D01*
X153097190Y-123162476D01*
X153287666Y-123114857D01*
X153525761Y-123114857D01*
X153716237Y-123162476D01*
X153811475Y-123210095D01*
X153859094Y-123257714D01*
X153906713Y-123352952D01*
X153906713Y-123448190D01*
X153859094Y-123543428D01*
X153811475Y-123591047D01*
X153716237Y-123638666D01*
X153525761Y-123686285D01*
X153287666Y-123686285D01*
X153097190Y-123638666D01*
X153001952Y-123591047D01*
X152954333Y-123543428D01*
X152906713Y-123448190D01*
X152906713Y-122257714D02*
X152906713Y-122448190D01*
X152954333Y-122543428D01*
X153001952Y-122591047D01*
X153144809Y-122686285D01*
X153335285Y-122733904D01*
X153716237Y-122733904D01*
X153811475Y-122686285D01*
X153859094Y-122638666D01*
X153906713Y-122543428D01*
X153906713Y-122352952D01*
X153859094Y-122257714D01*
X153811475Y-122210095D01*
X153716237Y-122162476D01*
X153478142Y-122162476D01*
X153382904Y-122210095D01*
X153335285Y-122257714D01*
X153287666Y-122352952D01*
X153287666Y-122543428D01*
X153335285Y-122638666D01*
X153382904Y-122686285D01*
X153478142Y-122733904D01*
X152906713Y-121543428D02*
X152906713Y-121448190D01*
X152954333Y-121352952D01*
X153001952Y-121305333D01*
X153097190Y-121257714D01*
X153287666Y-121210095D01*
X153525761Y-121210095D01*
X153716237Y-121257714D01*
X153811475Y-121305333D01*
X153859094Y-121352952D01*
X153906713Y-121448190D01*
X153906713Y-121543428D01*
X153859094Y-121638666D01*
X153811475Y-121686285D01*
X153716237Y-121733904D01*
X153525761Y-121781523D01*
X153287666Y-121781523D01*
X153097190Y-121733904D01*
X153001952Y-121686285D01*
X152954333Y-121638666D01*
X152906713Y-121543428D01*
X152906713Y-120876761D02*
X152906713Y-120257714D01*
X153287666Y-120591047D01*
X153287666Y-120448190D01*
X153335285Y-120352952D01*
X153382904Y-120305333D01*
X153478142Y-120257714D01*
X153716237Y-120257714D01*
X153811475Y-120305333D01*
X153859094Y-120352952D01*
X153906713Y-120448190D01*
X153906713Y-120733904D01*
X153859094Y-120829142D01*
X153811475Y-120876761D01*
%TD*%
M02*
