%TF.GenerationSoftware,KiCad,Pcbnew,(5.1.6)-1*%
%TF.CreationDate,2020-08-25T11:31:30-04:00*%
%TF.ProjectId,PCBRuler,50434252-756c-4657-922e-6b696361645f,rev?*%
%TF.SameCoordinates,Original*%
%TF.FileFunction,Paste,Top*%
%TF.FilePolarity,Positive*%
%FSLAX46Y46*%
G04 Gerber Fmt 4.6, Leading zero omitted, Abs format (unit mm)*
G04 Created by KiCad (PCBNEW (5.1.6)-1) date 2020-08-25 11:31:30*
%MOMM*%
%LPD*%
G01*
G04 APERTURE LIST*
%ADD10C,0.300000*%
%ADD11R,1.550000X0.600000*%
%ADD12R,1.000000X0.250000*%
%ADD13R,0.250000X1.000000*%
%ADD14R,2.000000X3.800000*%
%ADD15R,2.000000X1.500000*%
%ADD16R,1.060000X0.650000*%
%ADD17R,0.900000X0.800000*%
%ADD18R,1.300000X1.550000*%
G04 APERTURE END LIST*
D10*
%TO.C,UFBGA-201*%
X244960000Y-132390000D03*
X244310000Y-132390000D03*
X243660000Y-132390000D03*
X243010000Y-132390000D03*
X242360000Y-132390000D03*
X241710000Y-132390000D03*
X241060000Y-132390000D03*
X240410000Y-132390000D03*
X239760000Y-132390000D03*
X239110000Y-132390000D03*
X238460000Y-132390000D03*
X237810000Y-132390000D03*
X237160000Y-132390000D03*
X236510000Y-132390000D03*
X235860000Y-132390000D03*
X244960000Y-131740000D03*
X244310000Y-131740000D03*
X243660000Y-131740000D03*
X243010000Y-131740000D03*
X242360000Y-131740000D03*
X241710000Y-131740000D03*
X241060000Y-131740000D03*
X240410000Y-131740000D03*
X239760000Y-131740000D03*
X239110000Y-131740000D03*
X238460000Y-131740000D03*
X237810000Y-131740000D03*
X237160000Y-131740000D03*
X236510000Y-131740000D03*
X235860000Y-131740000D03*
X244960000Y-131090000D03*
X244310000Y-131090000D03*
X243660000Y-131090000D03*
X243010000Y-131090000D03*
X242360000Y-131090000D03*
X241710000Y-131090000D03*
X241060000Y-131090000D03*
X240410000Y-131090000D03*
X239760000Y-131090000D03*
X239110000Y-131090000D03*
X238460000Y-131090000D03*
X237810000Y-131090000D03*
X237160000Y-131090000D03*
X236510000Y-131090000D03*
X235860000Y-131090000D03*
X244960000Y-130440000D03*
X244310000Y-130440000D03*
X243660000Y-130440000D03*
X243010000Y-130440000D03*
X242360000Y-130440000D03*
X241710000Y-130440000D03*
X241060000Y-130440000D03*
X240410000Y-130440000D03*
X239760000Y-130440000D03*
X239110000Y-130440000D03*
X238460000Y-130440000D03*
X237810000Y-130440000D03*
X237160000Y-130440000D03*
X236510000Y-130440000D03*
X235860000Y-130440000D03*
X244960000Y-129790000D03*
X244310000Y-129790000D03*
X243660000Y-129790000D03*
X243010000Y-129790000D03*
X237810000Y-129790000D03*
X237160000Y-129790000D03*
X236510000Y-129790000D03*
X235860000Y-129790000D03*
X244960000Y-129140000D03*
X244310000Y-129140000D03*
X243660000Y-129140000D03*
X243010000Y-129140000D03*
X241710000Y-129140000D03*
X241060000Y-129140000D03*
X240410000Y-129140000D03*
X239760000Y-129140000D03*
X239110000Y-129140000D03*
X237810000Y-129140000D03*
X237160000Y-129140000D03*
X236510000Y-129140000D03*
X235860000Y-129140000D03*
X244960000Y-128490000D03*
X244310000Y-128490000D03*
X243660000Y-128490000D03*
X243010000Y-128490000D03*
X241710000Y-128490000D03*
X241060000Y-128490000D03*
X240410000Y-128490000D03*
X239760000Y-128490000D03*
X239110000Y-128490000D03*
X237810000Y-128490000D03*
X237160000Y-128490000D03*
X236510000Y-128490000D03*
X235860000Y-128490000D03*
X244960000Y-127840000D03*
X244310000Y-127840000D03*
X243660000Y-127840000D03*
X243010000Y-127840000D03*
X241710000Y-127840000D03*
X241060000Y-127840000D03*
X240410000Y-127840000D03*
X239760000Y-127840000D03*
X239110000Y-127840000D03*
X237810000Y-127840000D03*
X237160000Y-127840000D03*
X236510000Y-127840000D03*
X235860000Y-127840000D03*
X244960000Y-127190000D03*
X244310000Y-127190000D03*
X243660000Y-127190000D03*
X243010000Y-127190000D03*
X241710000Y-127190000D03*
X241060000Y-127190000D03*
X240410000Y-127190000D03*
X239760000Y-127190000D03*
X239110000Y-127190000D03*
X237810000Y-127190000D03*
X237160000Y-127190000D03*
X236510000Y-127190000D03*
X235860000Y-127190000D03*
X244960000Y-126540000D03*
X244310000Y-126540000D03*
X243660000Y-126540000D03*
X243010000Y-126540000D03*
X241710000Y-126540000D03*
X241060000Y-126540000D03*
X240410000Y-126540000D03*
X239760000Y-126540000D03*
X239110000Y-126540000D03*
X237810000Y-126540000D03*
X237160000Y-126540000D03*
X236510000Y-126540000D03*
X235860000Y-126540000D03*
X244960000Y-125890000D03*
X244310000Y-125890000D03*
X243660000Y-125890000D03*
X243010000Y-125890000D03*
X237810000Y-125890000D03*
X237160000Y-125890000D03*
X236510000Y-125890000D03*
X235860000Y-125890000D03*
X244960000Y-125240000D03*
X244310000Y-125240000D03*
X243660000Y-125240000D03*
X243010000Y-125240000D03*
X242360000Y-125240000D03*
X241710000Y-125240000D03*
X241060000Y-125240000D03*
X240410000Y-125240000D03*
X239760000Y-125240000D03*
X239110000Y-125240000D03*
X238460000Y-125240000D03*
X237810000Y-125240000D03*
X237160000Y-125240000D03*
X236510000Y-125240000D03*
X235860000Y-125240000D03*
X244960000Y-124590000D03*
X244310000Y-124590000D03*
X243660000Y-124590000D03*
X243010000Y-124590000D03*
X242360000Y-124590000D03*
X241710000Y-124590000D03*
X241060000Y-124590000D03*
X240410000Y-124590000D03*
X239760000Y-124590000D03*
X239110000Y-124590000D03*
X238460000Y-124590000D03*
X237810000Y-124590000D03*
X237160000Y-124590000D03*
X236510000Y-124590000D03*
X235860000Y-124590000D03*
X244960000Y-123940000D03*
X244310000Y-123940000D03*
X243660000Y-123940000D03*
X243010000Y-123940000D03*
X242360000Y-123940000D03*
X241710000Y-123940000D03*
X241060000Y-123940000D03*
X240410000Y-123940000D03*
X239760000Y-123940000D03*
X239110000Y-123940000D03*
X238460000Y-123940000D03*
X237810000Y-123940000D03*
X237160000Y-123940000D03*
X236510000Y-123940000D03*
X235860000Y-123940000D03*
X244960000Y-123290000D03*
X244310000Y-123290000D03*
X243660000Y-123290000D03*
X243010000Y-123290000D03*
X242360000Y-123290000D03*
X241710000Y-123290000D03*
X241060000Y-123290000D03*
X240410000Y-123290000D03*
X239760000Y-123290000D03*
X239110000Y-123290000D03*
X238460000Y-123290000D03*
X237810000Y-123290000D03*
X237160000Y-123290000D03*
X236510000Y-123290000D03*
X235860000Y-123290000D03*
%TD*%
D11*
%TO.C,SOIC-8*%
X228710000Y-125535000D03*
X228710000Y-126805000D03*
X228710000Y-128075000D03*
X228710000Y-129345000D03*
X223310000Y-129345000D03*
X223310000Y-128075000D03*
X223310000Y-126805000D03*
X223310000Y-125535000D03*
%TD*%
D12*
%TO.C,QFP-64*%
X254010000Y-123890000D03*
X254010000Y-124390000D03*
X254010000Y-124890000D03*
X254010000Y-125390000D03*
X254010000Y-125890000D03*
X254010000Y-126390000D03*
X254010000Y-126890000D03*
X254010000Y-127390000D03*
X254010000Y-127890000D03*
X254010000Y-128390000D03*
X254010000Y-128890000D03*
X254010000Y-129390000D03*
X254010000Y-129890000D03*
X254010000Y-130390000D03*
X254010000Y-130890000D03*
X254010000Y-131390000D03*
D13*
X255960000Y-133340000D03*
X256460000Y-133340000D03*
X256960000Y-133340000D03*
X257460000Y-133340000D03*
X257960000Y-133340000D03*
X258460000Y-133340000D03*
X258960000Y-133340000D03*
X259460000Y-133340000D03*
X259960000Y-133340000D03*
X260460000Y-133340000D03*
X260960000Y-133340000D03*
X261460000Y-133340000D03*
X261960000Y-133340000D03*
X262460000Y-133340000D03*
X262960000Y-133340000D03*
X263460000Y-133340000D03*
D12*
X265410000Y-131390000D03*
X265410000Y-130890000D03*
X265410000Y-130390000D03*
X265410000Y-129890000D03*
X265410000Y-129390000D03*
X265410000Y-128890000D03*
X265410000Y-128390000D03*
X265410000Y-127890000D03*
X265410000Y-127390000D03*
X265410000Y-126890000D03*
X265410000Y-126390000D03*
X265410000Y-125890000D03*
X265410000Y-125390000D03*
X265410000Y-124890000D03*
X265410000Y-124390000D03*
X265410000Y-123890000D03*
D13*
X263460000Y-121940000D03*
X262960000Y-121940000D03*
X262460000Y-121940000D03*
X261960000Y-121940000D03*
X261460000Y-121940000D03*
X260960000Y-121940000D03*
X260460000Y-121940000D03*
X259960000Y-121940000D03*
X259460000Y-121940000D03*
X258960000Y-121940000D03*
X258460000Y-121940000D03*
X257960000Y-121940000D03*
X257460000Y-121940000D03*
X256960000Y-121940000D03*
X256460000Y-121940000D03*
X255960000Y-121940000D03*
%TD*%
D14*
%TO.C,SOT-223*%
X208960000Y-127240000D03*
D15*
X215260000Y-127240000D03*
X215260000Y-124940000D03*
X215260000Y-129540000D03*
%TD*%
D16*
%TO.C,SOT-23-5*%
X193920000Y-128660000D03*
X193920000Y-129610000D03*
X193920000Y-130560000D03*
X196120000Y-130560000D03*
X196120000Y-128660000D03*
%TD*%
D17*
%TO.C,SOT-23*%
X195820000Y-124530000D03*
X193820000Y-125480000D03*
X193820000Y-123580000D03*
%TD*%
D18*
%TO.C,6mm*%
X189650000Y-123090000D03*
X185150000Y-123090000D03*
X185150000Y-131050000D03*
X189650000Y-131050000D03*
%TD*%
%TO.C,1206*%
G36*
G01*
X160212000Y-127657000D02*
X158962000Y-127657000D01*
G75*
G02*
X158712000Y-127407000I0J250000D01*
G01*
X158712000Y-126482000D01*
G75*
G02*
X158962000Y-126232000I250000J0D01*
G01*
X160212000Y-126232000D01*
G75*
G02*
X160462000Y-126482000I0J-250000D01*
G01*
X160462000Y-127407000D01*
G75*
G02*
X160212000Y-127657000I-250000J0D01*
G01*
G37*
G36*
G01*
X160212000Y-130632000D02*
X158962000Y-130632000D01*
G75*
G02*
X158712000Y-130382000I0J250000D01*
G01*
X158712000Y-129457000D01*
G75*
G02*
X158962000Y-129207000I250000J0D01*
G01*
X160212000Y-129207000D01*
G75*
G02*
X160462000Y-129457000I0J-250000D01*
G01*
X160462000Y-130382000D01*
G75*
G02*
X160212000Y-130632000I-250000J0D01*
G01*
G37*
%TD*%
%TO.C,0805*%
G36*
G01*
X157161667Y-127382000D02*
X156261665Y-127382000D01*
G75*
G02*
X156011666Y-127132001I0J249999D01*
G01*
X156011666Y-126481999D01*
G75*
G02*
X156261665Y-126232000I249999J0D01*
G01*
X157161667Y-126232000D01*
G75*
G02*
X157411666Y-126481999I0J-249999D01*
G01*
X157411666Y-127132001D01*
G75*
G02*
X157161667Y-127382000I-249999J0D01*
G01*
G37*
G36*
G01*
X157161667Y-129432000D02*
X156261665Y-129432000D01*
G75*
G02*
X156011666Y-129182001I0J249999D01*
G01*
X156011666Y-128531999D01*
G75*
G02*
X156261665Y-128282000I249999J0D01*
G01*
X157161667Y-128282000D01*
G75*
G02*
X157411666Y-128531999I0J-249999D01*
G01*
X157411666Y-129182001D01*
G75*
G02*
X157161667Y-129432000I-249999J0D01*
G01*
G37*
%TD*%
%TO.C,0402*%
G36*
G01*
X152393500Y-126722000D02*
X152048500Y-126722000D01*
G75*
G02*
X151901000Y-126574500I0J147500D01*
G01*
X151901000Y-126279500D01*
G75*
G02*
X152048500Y-126132000I147500J0D01*
G01*
X152393500Y-126132000D01*
G75*
G02*
X152541000Y-126279500I0J-147500D01*
G01*
X152541000Y-126574500D01*
G75*
G02*
X152393500Y-126722000I-147500J0D01*
G01*
G37*
G36*
G01*
X152393500Y-127692000D02*
X152048500Y-127692000D01*
G75*
G02*
X151901000Y-127544500I0J147500D01*
G01*
X151901000Y-127249500D01*
G75*
G02*
X152048500Y-127102000I147500J0D01*
G01*
X152393500Y-127102000D01*
G75*
G02*
X152541000Y-127249500I0J-147500D01*
G01*
X152541000Y-127544500D01*
G75*
G02*
X152393500Y-127692000I-147500J0D01*
G01*
G37*
%TD*%
%TO.C,0603*%
G36*
G01*
X154463833Y-127282000D02*
X153988833Y-127282000D01*
G75*
G02*
X153751333Y-127044500I0J237500D01*
G01*
X153751333Y-126469500D01*
G75*
G02*
X153988833Y-126232000I237500J0D01*
G01*
X154463833Y-126232000D01*
G75*
G02*
X154701333Y-126469500I0J-237500D01*
G01*
X154701333Y-127044500D01*
G75*
G02*
X154463833Y-127282000I-237500J0D01*
G01*
G37*
G36*
G01*
X154463833Y-129032000D02*
X153988833Y-129032000D01*
G75*
G02*
X153751333Y-128794500I0J237500D01*
G01*
X153751333Y-128219500D01*
G75*
G02*
X153988833Y-127982000I237500J0D01*
G01*
X154463833Y-127982000D01*
G75*
G02*
X154701333Y-128219500I0J-237500D01*
G01*
X154701333Y-128794500D01*
G75*
G02*
X154463833Y-129032000I-237500J0D01*
G01*
G37*
%TD*%
M02*
