%TF.GenerationSoftware,KiCad,Pcbnew,(5.1.6)-1*%
%TF.CreationDate,2020-08-25T11:31:31-04:00*%
%TF.ProjectId,PCBRuler,50434252-756c-4657-922e-6b696361645f,rev?*%
%TF.SameCoordinates,Original*%
%TF.FileFunction,Soldermask,Top*%
%TF.FilePolarity,Negative*%
%FSLAX46Y46*%
G04 Gerber Fmt 4.6, Leading zero omitted, Abs format (unit mm)*
G04 Created by KiCad (PCBNEW (5.1.6)-1) date 2020-08-25 11:31:31*
%MOMM*%
%LPD*%
G01*
G04 APERTURE LIST*
%ADD10C,0.150000*%
%ADD11C,0.250000*%
%ADD12C,0.010000*%
%ADD13C,0.400000*%
%ADD14R,1.650000X0.700000*%
%ADD15R,1.100000X0.350000*%
%ADD16R,0.350000X1.100000*%
%ADD17R,2.100000X3.900000*%
%ADD18R,2.100000X1.600000*%
%ADD19R,1.160000X0.750000*%
%ADD20R,1.000000X0.900000*%
%ADD21R,1.400000X1.650000*%
%ADD22C,0.254000*%
G04 APERTURE END LIST*
D10*
X300692000Y-133189880D02*
X300501523Y-133189880D01*
X300406285Y-133237500D01*
X300358666Y-133285119D01*
X300263428Y-133427976D01*
X300215809Y-133618452D01*
X300215809Y-133999404D01*
X300263428Y-134094642D01*
X300311047Y-134142261D01*
X300406285Y-134189880D01*
X300596761Y-134189880D01*
X300692000Y-134142261D01*
X300739619Y-134094642D01*
X300787238Y-133999404D01*
X300787238Y-133761309D01*
X300739619Y-133666071D01*
X300692000Y-133618452D01*
X300596761Y-133570833D01*
X300406285Y-133570833D01*
X300311047Y-133618452D01*
X300263428Y-133666071D01*
X300215809Y-133761309D01*
X301215809Y-134189880D02*
X301215809Y-133523214D01*
X301215809Y-133189880D02*
X301168190Y-133237500D01*
X301215809Y-133285119D01*
X301263428Y-133237500D01*
X301215809Y-133189880D01*
X301215809Y-133285119D01*
X301692000Y-133523214D02*
X301692000Y-134189880D01*
X301692000Y-133618452D02*
X301739619Y-133570833D01*
X301834857Y-133523214D01*
X301977714Y-133523214D01*
X302072952Y-133570833D01*
X302120571Y-133666071D01*
X302120571Y-134189880D01*
X275339619Y-133189880D02*
X274863428Y-133189880D01*
X274815809Y-133666071D01*
X274863428Y-133618452D01*
X274958666Y-133570833D01*
X275196761Y-133570833D01*
X275292000Y-133618452D01*
X275339619Y-133666071D01*
X275387238Y-133761309D01*
X275387238Y-133999404D01*
X275339619Y-134094642D01*
X275292000Y-134142261D01*
X275196761Y-134189880D01*
X274958666Y-134189880D01*
X274863428Y-134142261D01*
X274815809Y-134094642D01*
X275815809Y-134189880D02*
X275815809Y-133523214D01*
X275815809Y-133189880D02*
X275768190Y-133237500D01*
X275815809Y-133285119D01*
X275863428Y-133237500D01*
X275815809Y-133189880D01*
X275815809Y-133285119D01*
X276292000Y-133523214D02*
X276292000Y-134189880D01*
X276292000Y-133618452D02*
X276339619Y-133570833D01*
X276434857Y-133523214D01*
X276577714Y-133523214D01*
X276672952Y-133570833D01*
X276720571Y-133666071D01*
X276720571Y-134189880D01*
X249892000Y-133523214D02*
X249892000Y-134189880D01*
X249653904Y-133142261D02*
X249415809Y-133856547D01*
X250034857Y-133856547D01*
X250415809Y-134189880D02*
X250415809Y-133523214D01*
X250415809Y-133189880D02*
X250368190Y-133237500D01*
X250415809Y-133285119D01*
X250463428Y-133237500D01*
X250415809Y-133189880D01*
X250415809Y-133285119D01*
X250892000Y-133523214D02*
X250892000Y-134189880D01*
X250892000Y-133618452D02*
X250939619Y-133570833D01*
X251034857Y-133523214D01*
X251177714Y-133523214D01*
X251272952Y-133570833D01*
X251320571Y-133666071D01*
X251320571Y-134189880D01*
X223968190Y-133189880D02*
X224587238Y-133189880D01*
X224253904Y-133570833D01*
X224396761Y-133570833D01*
X224492000Y-133618452D01*
X224539619Y-133666071D01*
X224587238Y-133761309D01*
X224587238Y-133999404D01*
X224539619Y-134094642D01*
X224492000Y-134142261D01*
X224396761Y-134189880D01*
X224111047Y-134189880D01*
X224015809Y-134142261D01*
X223968190Y-134094642D01*
X225015809Y-134189880D02*
X225015809Y-133523214D01*
X225015809Y-133189880D02*
X224968190Y-133237500D01*
X225015809Y-133285119D01*
X225063428Y-133237500D01*
X225015809Y-133189880D01*
X225015809Y-133285119D01*
X225492000Y-133523214D02*
X225492000Y-134189880D01*
X225492000Y-133618452D02*
X225539619Y-133570833D01*
X225634857Y-133523214D01*
X225777714Y-133523214D01*
X225872952Y-133570833D01*
X225920571Y-133666071D01*
X225920571Y-134189880D01*
X198615809Y-133285119D02*
X198663428Y-133237500D01*
X198758666Y-133189880D01*
X198996761Y-133189880D01*
X199092000Y-133237500D01*
X199139619Y-133285119D01*
X199187238Y-133380357D01*
X199187238Y-133475595D01*
X199139619Y-133618452D01*
X198568190Y-134189880D01*
X199187238Y-134189880D01*
X199615809Y-134189880D02*
X199615809Y-133523214D01*
X199615809Y-133189880D02*
X199568190Y-133237500D01*
X199615809Y-133285119D01*
X199663428Y-133237500D01*
X199615809Y-133189880D01*
X199615809Y-133285119D01*
X200092000Y-133523214D02*
X200092000Y-134189880D01*
X200092000Y-133618452D02*
X200139619Y-133570833D01*
X200234857Y-133523214D01*
X200377714Y-133523214D01*
X200472952Y-133570833D01*
X200520571Y-133666071D01*
X200520571Y-134189880D01*
X173787238Y-134189880D02*
X173215809Y-134189880D01*
X173501523Y-134189880D02*
X173501523Y-133189880D01*
X173406285Y-133332738D01*
X173311047Y-133427976D01*
X173215809Y-133475595D01*
X174215809Y-134189880D02*
X174215809Y-133523214D01*
X174215809Y-133189880D02*
X174168190Y-133237500D01*
X174215809Y-133285119D01*
X174263428Y-133237500D01*
X174215809Y-133189880D01*
X174215809Y-133285119D01*
X174692000Y-133523214D02*
X174692000Y-134189880D01*
X174692000Y-133618452D02*
X174739619Y-133570833D01*
X174834857Y-133523214D01*
X174977714Y-133523214D01*
X175072952Y-133570833D01*
X175120571Y-133666071D01*
X175120571Y-134189880D01*
X280788928Y-133565880D02*
X280788928Y-132565880D01*
X281027023Y-132565880D01*
X281169880Y-132613500D01*
X281265119Y-132708738D01*
X281312738Y-132803976D01*
X281360357Y-132994452D01*
X281360357Y-133137309D01*
X281312738Y-133327785D01*
X281265119Y-133423023D01*
X281169880Y-133518261D01*
X281027023Y-133565880D01*
X280788928Y-133565880D01*
X282169880Y-133518261D02*
X282074642Y-133565880D01*
X281884166Y-133565880D01*
X281788928Y-133518261D01*
X281741309Y-133423023D01*
X281741309Y-133042071D01*
X281788928Y-132946833D01*
X281884166Y-132899214D01*
X282074642Y-132899214D01*
X282169880Y-132946833D01*
X282217500Y-133042071D01*
X282217500Y-133137309D01*
X281741309Y-133232547D01*
X282598452Y-133518261D02*
X282693690Y-133565880D01*
X282884166Y-133565880D01*
X282979404Y-133518261D01*
X283027023Y-133423023D01*
X283027023Y-133375404D01*
X282979404Y-133280166D01*
X282884166Y-133232547D01*
X282741309Y-133232547D01*
X282646071Y-133184928D01*
X282598452Y-133089690D01*
X282598452Y-133042071D01*
X282646071Y-132946833D01*
X282741309Y-132899214D01*
X282884166Y-132899214D01*
X282979404Y-132946833D01*
X283455595Y-133565880D02*
X283455595Y-132899214D01*
X283455595Y-132565880D02*
X283407976Y-132613500D01*
X283455595Y-132661119D01*
X283503214Y-132613500D01*
X283455595Y-132565880D01*
X283455595Y-132661119D01*
X284360357Y-132899214D02*
X284360357Y-133708738D01*
X284312738Y-133803976D01*
X284265119Y-133851595D01*
X284169880Y-133899214D01*
X284027023Y-133899214D01*
X283931785Y-133851595D01*
X284360357Y-133518261D02*
X284265119Y-133565880D01*
X284074642Y-133565880D01*
X283979404Y-133518261D01*
X283931785Y-133470642D01*
X283884166Y-133375404D01*
X283884166Y-133089690D01*
X283931785Y-132994452D01*
X283979404Y-132946833D01*
X284074642Y-132899214D01*
X284265119Y-132899214D01*
X284360357Y-132946833D01*
X284836547Y-132899214D02*
X284836547Y-133565880D01*
X284836547Y-132994452D02*
X284884166Y-132946833D01*
X284979404Y-132899214D01*
X285122261Y-132899214D01*
X285217500Y-132946833D01*
X285265119Y-133042071D01*
X285265119Y-133565880D01*
X286122261Y-133518261D02*
X286027023Y-133565880D01*
X285836547Y-133565880D01*
X285741309Y-133518261D01*
X285693690Y-133423023D01*
X285693690Y-133042071D01*
X285741309Y-132946833D01*
X285836547Y-132899214D01*
X286027023Y-132899214D01*
X286122261Y-132946833D01*
X286169880Y-133042071D01*
X286169880Y-133137309D01*
X285693690Y-133232547D01*
X287027023Y-133565880D02*
X287027023Y-132565880D01*
X287027023Y-133518261D02*
X286931785Y-133565880D01*
X286741309Y-133565880D01*
X286646071Y-133518261D01*
X286598452Y-133470642D01*
X286550833Y-133375404D01*
X286550833Y-133089690D01*
X286598452Y-132994452D01*
X286646071Y-132946833D01*
X286741309Y-132899214D01*
X286931785Y-132899214D01*
X287027023Y-132946833D01*
X288598452Y-133042071D02*
X288741309Y-133089690D01*
X288788928Y-133137309D01*
X288836547Y-133232547D01*
X288836547Y-133375404D01*
X288788928Y-133470642D01*
X288741309Y-133518261D01*
X288646071Y-133565880D01*
X288265119Y-133565880D01*
X288265119Y-132565880D01*
X288598452Y-132565880D01*
X288693690Y-132613500D01*
X288741309Y-132661119D01*
X288788928Y-132756357D01*
X288788928Y-132851595D01*
X288741309Y-132946833D01*
X288693690Y-132994452D01*
X288598452Y-133042071D01*
X288265119Y-133042071D01*
X289169880Y-132899214D02*
X289407976Y-133565880D01*
X289646071Y-132899214D02*
X289407976Y-133565880D01*
X289312738Y-133803976D01*
X289265119Y-133851595D01*
X289169880Y-133899214D01*
X290027023Y-133470642D02*
X290074642Y-133518261D01*
X290027023Y-133565880D01*
X289979404Y-133518261D01*
X290027023Y-133470642D01*
X290027023Y-133565880D01*
X290027023Y-132946833D02*
X290074642Y-132994452D01*
X290027023Y-133042071D01*
X289979404Y-132994452D01*
X290027023Y-132946833D01*
X290027023Y-133042071D01*
X291550833Y-132565880D02*
X291550833Y-133280166D01*
X291503214Y-133423023D01*
X291407976Y-133518261D01*
X291265119Y-133565880D01*
X291169880Y-133565880D01*
X292169880Y-133565880D02*
X292074642Y-133518261D01*
X292027023Y-133470642D01*
X291979404Y-133375404D01*
X291979404Y-133089690D01*
X292027023Y-132994452D01*
X292074642Y-132946833D01*
X292169880Y-132899214D01*
X292312738Y-132899214D01*
X292407976Y-132946833D01*
X292455595Y-132994452D01*
X292503214Y-133089690D01*
X292503214Y-133375404D01*
X292455595Y-133470642D01*
X292407976Y-133518261D01*
X292312738Y-133565880D01*
X292169880Y-133565880D01*
X293312738Y-133518261D02*
X293217500Y-133565880D01*
X293027023Y-133565880D01*
X292931785Y-133518261D01*
X292884166Y-133423023D01*
X292884166Y-133042071D01*
X292931785Y-132946833D01*
X293027023Y-132899214D01*
X293217500Y-132899214D01*
X293312738Y-132946833D01*
X293360357Y-133042071D01*
X293360357Y-133137309D01*
X292884166Y-133232547D01*
X294550833Y-133565880D02*
X294550833Y-132565880D01*
X294931785Y-132565880D01*
X295027023Y-132613500D01*
X295074642Y-132661119D01*
X295122261Y-132756357D01*
X295122261Y-132899214D01*
X295074642Y-132994452D01*
X295027023Y-133042071D01*
X294931785Y-133089690D01*
X294550833Y-133089690D01*
X295931785Y-133518261D02*
X295836547Y-133565880D01*
X295646071Y-133565880D01*
X295550833Y-133518261D01*
X295503214Y-133423023D01*
X295503214Y-133042071D01*
X295550833Y-132946833D01*
X295646071Y-132899214D01*
X295836547Y-132899214D01*
X295931785Y-132946833D01*
X295979404Y-133042071D01*
X295979404Y-133137309D01*
X295503214Y-133232547D01*
X296407976Y-133565880D02*
X296407976Y-132899214D01*
X296407976Y-133089690D02*
X296455595Y-132994452D01*
X296503214Y-132946833D01*
X296598452Y-132899214D01*
X296693690Y-132899214D01*
X297027023Y-133565880D02*
X297027023Y-132899214D01*
X297027023Y-133089690D02*
X297074642Y-132994452D01*
X297122261Y-132946833D01*
X297217500Y-132899214D01*
X297312738Y-132899214D01*
X297646071Y-133565880D02*
X297646071Y-132899214D01*
X297646071Y-132565880D02*
X297598452Y-132613500D01*
X297646071Y-132661119D01*
X297693690Y-132613500D01*
X297646071Y-132565880D01*
X297646071Y-132661119D01*
X297366285Y-119330880D02*
X296794857Y-119330880D01*
X297080571Y-119330880D02*
X297080571Y-118330880D01*
X296985333Y-118473738D01*
X296890095Y-118568976D01*
X296794857Y-118616595D01*
X298271047Y-118330880D02*
X297794857Y-118330880D01*
X297747238Y-118807071D01*
X297794857Y-118759452D01*
X297890095Y-118711833D01*
X298128190Y-118711833D01*
X298223428Y-118759452D01*
X298271047Y-118807071D01*
X298318666Y-118902309D01*
X298318666Y-119140404D01*
X298271047Y-119235642D01*
X298223428Y-119283261D01*
X298128190Y-119330880D01*
X297890095Y-119330880D01*
X297794857Y-119283261D01*
X297747238Y-119235642D01*
X299175809Y-119283261D02*
X299080571Y-119330880D01*
X298890095Y-119330880D01*
X298794857Y-119283261D01*
X298747238Y-119235642D01*
X298699619Y-119140404D01*
X298699619Y-118854690D01*
X298747238Y-118759452D01*
X298794857Y-118711833D01*
X298890095Y-118664214D01*
X299080571Y-118664214D01*
X299175809Y-118711833D01*
X299604380Y-119330880D02*
X299604380Y-118664214D01*
X299604380Y-118759452D02*
X299652000Y-118711833D01*
X299747238Y-118664214D01*
X299890095Y-118664214D01*
X299985333Y-118711833D01*
X300032952Y-118807071D01*
X300032952Y-119330880D01*
X300032952Y-118807071D02*
X300080571Y-118711833D01*
X300175809Y-118664214D01*
X300318666Y-118664214D01*
X300413904Y-118711833D01*
X300461523Y-118807071D01*
X300461523Y-119330880D01*
X287460285Y-119330880D02*
X286888857Y-119330880D01*
X287174571Y-119330880D02*
X287174571Y-118330880D01*
X287079333Y-118473738D01*
X286984095Y-118568976D01*
X286888857Y-118616595D01*
X288317428Y-118664214D02*
X288317428Y-119330880D01*
X288079333Y-118283261D02*
X287841238Y-118997547D01*
X288460285Y-118997547D01*
X289269809Y-119283261D02*
X289174571Y-119330880D01*
X288984095Y-119330880D01*
X288888857Y-119283261D01*
X288841238Y-119235642D01*
X288793619Y-119140404D01*
X288793619Y-118854690D01*
X288841238Y-118759452D01*
X288888857Y-118711833D01*
X288984095Y-118664214D01*
X289174571Y-118664214D01*
X289269809Y-118711833D01*
X289698380Y-119330880D02*
X289698380Y-118664214D01*
X289698380Y-118759452D02*
X289746000Y-118711833D01*
X289841238Y-118664214D01*
X289984095Y-118664214D01*
X290079333Y-118711833D01*
X290126952Y-118807071D01*
X290126952Y-119330880D01*
X290126952Y-118807071D02*
X290174571Y-118711833D01*
X290269809Y-118664214D01*
X290412666Y-118664214D01*
X290507904Y-118711833D01*
X290555523Y-118807071D01*
X290555523Y-119330880D01*
X277427285Y-119330880D02*
X276855857Y-119330880D01*
X277141571Y-119330880D02*
X277141571Y-118330880D01*
X277046333Y-118473738D01*
X276951095Y-118568976D01*
X276855857Y-118616595D01*
X277760619Y-118330880D02*
X278379666Y-118330880D01*
X278046333Y-118711833D01*
X278189190Y-118711833D01*
X278284428Y-118759452D01*
X278332047Y-118807071D01*
X278379666Y-118902309D01*
X278379666Y-119140404D01*
X278332047Y-119235642D01*
X278284428Y-119283261D01*
X278189190Y-119330880D01*
X277903476Y-119330880D01*
X277808238Y-119283261D01*
X277760619Y-119235642D01*
X279236809Y-119283261D02*
X279141571Y-119330880D01*
X278951095Y-119330880D01*
X278855857Y-119283261D01*
X278808238Y-119235642D01*
X278760619Y-119140404D01*
X278760619Y-118854690D01*
X278808238Y-118759452D01*
X278855857Y-118711833D01*
X278951095Y-118664214D01*
X279141571Y-118664214D01*
X279236809Y-118711833D01*
X279665380Y-119330880D02*
X279665380Y-118664214D01*
X279665380Y-118759452D02*
X279713000Y-118711833D01*
X279808238Y-118664214D01*
X279951095Y-118664214D01*
X280046333Y-118711833D01*
X280093952Y-118807071D01*
X280093952Y-119330880D01*
X280093952Y-118807071D02*
X280141571Y-118711833D01*
X280236809Y-118664214D01*
X280379666Y-118664214D01*
X280474904Y-118711833D01*
X280522523Y-118807071D01*
X280522523Y-119330880D01*
X267394285Y-119330880D02*
X266822857Y-119330880D01*
X267108571Y-119330880D02*
X267108571Y-118330880D01*
X267013333Y-118473738D01*
X266918095Y-118568976D01*
X266822857Y-118616595D01*
X267775238Y-118426119D02*
X267822857Y-118378500D01*
X267918095Y-118330880D01*
X268156190Y-118330880D01*
X268251428Y-118378500D01*
X268299047Y-118426119D01*
X268346666Y-118521357D01*
X268346666Y-118616595D01*
X268299047Y-118759452D01*
X267727619Y-119330880D01*
X268346666Y-119330880D01*
X269203809Y-119283261D02*
X269108571Y-119330880D01*
X268918095Y-119330880D01*
X268822857Y-119283261D01*
X268775238Y-119235642D01*
X268727619Y-119140404D01*
X268727619Y-118854690D01*
X268775238Y-118759452D01*
X268822857Y-118711833D01*
X268918095Y-118664214D01*
X269108571Y-118664214D01*
X269203809Y-118711833D01*
X269632380Y-119330880D02*
X269632380Y-118664214D01*
X269632380Y-118759452D02*
X269680000Y-118711833D01*
X269775238Y-118664214D01*
X269918095Y-118664214D01*
X270013333Y-118711833D01*
X270060952Y-118807071D01*
X270060952Y-119330880D01*
X270060952Y-118807071D02*
X270108571Y-118711833D01*
X270203809Y-118664214D01*
X270346666Y-118664214D01*
X270441904Y-118711833D01*
X270489523Y-118807071D01*
X270489523Y-119330880D01*
X257361285Y-119330880D02*
X256789857Y-119330880D01*
X257075571Y-119330880D02*
X257075571Y-118330880D01*
X256980333Y-118473738D01*
X256885095Y-118568976D01*
X256789857Y-118616595D01*
X258313666Y-119330880D02*
X257742238Y-119330880D01*
X258027952Y-119330880D02*
X258027952Y-118330880D01*
X257932714Y-118473738D01*
X257837476Y-118568976D01*
X257742238Y-118616595D01*
X259170809Y-119283261D02*
X259075571Y-119330880D01*
X258885095Y-119330880D01*
X258789857Y-119283261D01*
X258742238Y-119235642D01*
X258694619Y-119140404D01*
X258694619Y-118854690D01*
X258742238Y-118759452D01*
X258789857Y-118711833D01*
X258885095Y-118664214D01*
X259075571Y-118664214D01*
X259170809Y-118711833D01*
X259599380Y-119330880D02*
X259599380Y-118664214D01*
X259599380Y-118759452D02*
X259647000Y-118711833D01*
X259742238Y-118664214D01*
X259885095Y-118664214D01*
X259980333Y-118711833D01*
X260027952Y-118807071D01*
X260027952Y-119330880D01*
X260027952Y-118807071D02*
X260075571Y-118711833D01*
X260170809Y-118664214D01*
X260313666Y-118664214D01*
X260408904Y-118711833D01*
X260456523Y-118807071D01*
X260456523Y-119330880D01*
X247709285Y-119267380D02*
X247137857Y-119267380D01*
X247423571Y-119267380D02*
X247423571Y-118267380D01*
X247328333Y-118410238D01*
X247233095Y-118505476D01*
X247137857Y-118553095D01*
X248328333Y-118267380D02*
X248423571Y-118267380D01*
X248518809Y-118315000D01*
X248566428Y-118362619D01*
X248614047Y-118457857D01*
X248661666Y-118648333D01*
X248661666Y-118886428D01*
X248614047Y-119076904D01*
X248566428Y-119172142D01*
X248518809Y-119219761D01*
X248423571Y-119267380D01*
X248328333Y-119267380D01*
X248233095Y-119219761D01*
X248185476Y-119172142D01*
X248137857Y-119076904D01*
X248090238Y-118886428D01*
X248090238Y-118648333D01*
X248137857Y-118457857D01*
X248185476Y-118362619D01*
X248233095Y-118315000D01*
X248328333Y-118267380D01*
X249518809Y-119219761D02*
X249423571Y-119267380D01*
X249233095Y-119267380D01*
X249137857Y-119219761D01*
X249090238Y-119172142D01*
X249042619Y-119076904D01*
X249042619Y-118791190D01*
X249090238Y-118695952D01*
X249137857Y-118648333D01*
X249233095Y-118600714D01*
X249423571Y-118600714D01*
X249518809Y-118648333D01*
X249947380Y-119267380D02*
X249947380Y-118600714D01*
X249947380Y-118695952D02*
X249995000Y-118648333D01*
X250090238Y-118600714D01*
X250233095Y-118600714D01*
X250328333Y-118648333D01*
X250375952Y-118743571D01*
X250375952Y-119267380D01*
X250375952Y-118743571D02*
X250423571Y-118648333D01*
X250518809Y-118600714D01*
X250661666Y-118600714D01*
X250756904Y-118648333D01*
X250804523Y-118743571D01*
X250804523Y-119267380D01*
X237549285Y-119267380D02*
X237739761Y-119267380D01*
X237835000Y-119219761D01*
X237882619Y-119172142D01*
X237977857Y-119029285D01*
X238025476Y-118838809D01*
X238025476Y-118457857D01*
X237977857Y-118362619D01*
X237930238Y-118315000D01*
X237835000Y-118267380D01*
X237644523Y-118267380D01*
X237549285Y-118315000D01*
X237501666Y-118362619D01*
X237454047Y-118457857D01*
X237454047Y-118695952D01*
X237501666Y-118791190D01*
X237549285Y-118838809D01*
X237644523Y-118886428D01*
X237835000Y-118886428D01*
X237930238Y-118838809D01*
X237977857Y-118791190D01*
X238025476Y-118695952D01*
X238882619Y-119219761D02*
X238787380Y-119267380D01*
X238596904Y-119267380D01*
X238501666Y-119219761D01*
X238454047Y-119172142D01*
X238406428Y-119076904D01*
X238406428Y-118791190D01*
X238454047Y-118695952D01*
X238501666Y-118648333D01*
X238596904Y-118600714D01*
X238787380Y-118600714D01*
X238882619Y-118648333D01*
X239311190Y-119267380D02*
X239311190Y-118600714D01*
X239311190Y-118695952D02*
X239358809Y-118648333D01*
X239454047Y-118600714D01*
X239596904Y-118600714D01*
X239692142Y-118648333D01*
X239739761Y-118743571D01*
X239739761Y-119267380D01*
X239739761Y-118743571D02*
X239787380Y-118648333D01*
X239882619Y-118600714D01*
X240025476Y-118600714D01*
X240120714Y-118648333D01*
X240168333Y-118743571D01*
X240168333Y-119267380D01*
X227484523Y-118695952D02*
X227389285Y-118648333D01*
X227341666Y-118600714D01*
X227294047Y-118505476D01*
X227294047Y-118457857D01*
X227341666Y-118362619D01*
X227389285Y-118315000D01*
X227484523Y-118267380D01*
X227675000Y-118267380D01*
X227770238Y-118315000D01*
X227817857Y-118362619D01*
X227865476Y-118457857D01*
X227865476Y-118505476D01*
X227817857Y-118600714D01*
X227770238Y-118648333D01*
X227675000Y-118695952D01*
X227484523Y-118695952D01*
X227389285Y-118743571D01*
X227341666Y-118791190D01*
X227294047Y-118886428D01*
X227294047Y-119076904D01*
X227341666Y-119172142D01*
X227389285Y-119219761D01*
X227484523Y-119267380D01*
X227675000Y-119267380D01*
X227770238Y-119219761D01*
X227817857Y-119172142D01*
X227865476Y-119076904D01*
X227865476Y-118886428D01*
X227817857Y-118791190D01*
X227770238Y-118743571D01*
X227675000Y-118695952D01*
X228722619Y-119219761D02*
X228627380Y-119267380D01*
X228436904Y-119267380D01*
X228341666Y-119219761D01*
X228294047Y-119172142D01*
X228246428Y-119076904D01*
X228246428Y-118791190D01*
X228294047Y-118695952D01*
X228341666Y-118648333D01*
X228436904Y-118600714D01*
X228627380Y-118600714D01*
X228722619Y-118648333D01*
X229151190Y-119267380D02*
X229151190Y-118600714D01*
X229151190Y-118695952D02*
X229198809Y-118648333D01*
X229294047Y-118600714D01*
X229436904Y-118600714D01*
X229532142Y-118648333D01*
X229579761Y-118743571D01*
X229579761Y-119267380D01*
X229579761Y-118743571D02*
X229627380Y-118648333D01*
X229722619Y-118600714D01*
X229865476Y-118600714D01*
X229960714Y-118648333D01*
X230008333Y-118743571D01*
X230008333Y-119267380D01*
X217340428Y-118267380D02*
X218007095Y-118267380D01*
X217578523Y-119267380D01*
X218816619Y-119219761D02*
X218721380Y-119267380D01*
X218530904Y-119267380D01*
X218435666Y-119219761D01*
X218388047Y-119172142D01*
X218340428Y-119076904D01*
X218340428Y-118791190D01*
X218388047Y-118695952D01*
X218435666Y-118648333D01*
X218530904Y-118600714D01*
X218721380Y-118600714D01*
X218816619Y-118648333D01*
X219245190Y-119267380D02*
X219245190Y-118600714D01*
X219245190Y-118695952D02*
X219292809Y-118648333D01*
X219388047Y-118600714D01*
X219530904Y-118600714D01*
X219626142Y-118648333D01*
X219673761Y-118743571D01*
X219673761Y-119267380D01*
X219673761Y-118743571D02*
X219721380Y-118648333D01*
X219816619Y-118600714D01*
X219959476Y-118600714D01*
X220054714Y-118648333D01*
X220102333Y-118743571D01*
X220102333Y-119267380D01*
X207958238Y-118267380D02*
X207767761Y-118267380D01*
X207672523Y-118315000D01*
X207624904Y-118362619D01*
X207529666Y-118505476D01*
X207482047Y-118695952D01*
X207482047Y-119076904D01*
X207529666Y-119172142D01*
X207577285Y-119219761D01*
X207672523Y-119267380D01*
X207863000Y-119267380D01*
X207958238Y-119219761D01*
X208005857Y-119172142D01*
X208053476Y-119076904D01*
X208053476Y-118838809D01*
X208005857Y-118743571D01*
X207958238Y-118695952D01*
X207863000Y-118648333D01*
X207672523Y-118648333D01*
X207577285Y-118695952D01*
X207529666Y-118743571D01*
X207482047Y-118838809D01*
X208910619Y-119219761D02*
X208815380Y-119267380D01*
X208624904Y-119267380D01*
X208529666Y-119219761D01*
X208482047Y-119172142D01*
X208434428Y-119076904D01*
X208434428Y-118791190D01*
X208482047Y-118695952D01*
X208529666Y-118648333D01*
X208624904Y-118600714D01*
X208815380Y-118600714D01*
X208910619Y-118648333D01*
X209339190Y-119267380D02*
X209339190Y-118600714D01*
X209339190Y-118695952D02*
X209386809Y-118648333D01*
X209482047Y-118600714D01*
X209624904Y-118600714D01*
X209720142Y-118648333D01*
X209767761Y-118743571D01*
X209767761Y-119267380D01*
X209767761Y-118743571D02*
X209815380Y-118648333D01*
X209910619Y-118600714D01*
X210053476Y-118600714D01*
X210148714Y-118648333D01*
X210196333Y-118743571D01*
X210196333Y-119267380D01*
X197972857Y-118267380D02*
X197496666Y-118267380D01*
X197449047Y-118743571D01*
X197496666Y-118695952D01*
X197591904Y-118648333D01*
X197830000Y-118648333D01*
X197925238Y-118695952D01*
X197972857Y-118743571D01*
X198020476Y-118838809D01*
X198020476Y-119076904D01*
X197972857Y-119172142D01*
X197925238Y-119219761D01*
X197830000Y-119267380D01*
X197591904Y-119267380D01*
X197496666Y-119219761D01*
X197449047Y-119172142D01*
X198877619Y-119219761D02*
X198782380Y-119267380D01*
X198591904Y-119267380D01*
X198496666Y-119219761D01*
X198449047Y-119172142D01*
X198401428Y-119076904D01*
X198401428Y-118791190D01*
X198449047Y-118695952D01*
X198496666Y-118648333D01*
X198591904Y-118600714D01*
X198782380Y-118600714D01*
X198877619Y-118648333D01*
X199306190Y-119267380D02*
X199306190Y-118600714D01*
X199306190Y-118695952D02*
X199353809Y-118648333D01*
X199449047Y-118600714D01*
X199591904Y-118600714D01*
X199687142Y-118648333D01*
X199734761Y-118743571D01*
X199734761Y-119267380D01*
X199734761Y-118743571D02*
X199782380Y-118648333D01*
X199877619Y-118600714D01*
X200020476Y-118600714D01*
X200115714Y-118648333D01*
X200163333Y-118743571D01*
X200163333Y-119267380D01*
X187892238Y-118600714D02*
X187892238Y-119267380D01*
X187654142Y-118219761D02*
X187416047Y-118934047D01*
X188035095Y-118934047D01*
X188844619Y-119219761D02*
X188749380Y-119267380D01*
X188558904Y-119267380D01*
X188463666Y-119219761D01*
X188416047Y-119172142D01*
X188368428Y-119076904D01*
X188368428Y-118791190D01*
X188416047Y-118695952D01*
X188463666Y-118648333D01*
X188558904Y-118600714D01*
X188749380Y-118600714D01*
X188844619Y-118648333D01*
X189273190Y-119267380D02*
X189273190Y-118600714D01*
X189273190Y-118695952D02*
X189320809Y-118648333D01*
X189416047Y-118600714D01*
X189558904Y-118600714D01*
X189654142Y-118648333D01*
X189701761Y-118743571D01*
X189701761Y-119267380D01*
X189701761Y-118743571D02*
X189749380Y-118648333D01*
X189844619Y-118600714D01*
X189987476Y-118600714D01*
X190082714Y-118648333D01*
X190130333Y-118743571D01*
X190130333Y-119267380D01*
X177335428Y-118394380D02*
X177954476Y-118394380D01*
X177621142Y-118775333D01*
X177764000Y-118775333D01*
X177859238Y-118822952D01*
X177906857Y-118870571D01*
X177954476Y-118965809D01*
X177954476Y-119203904D01*
X177906857Y-119299142D01*
X177859238Y-119346761D01*
X177764000Y-119394380D01*
X177478285Y-119394380D01*
X177383047Y-119346761D01*
X177335428Y-119299142D01*
X178811619Y-119346761D02*
X178716380Y-119394380D01*
X178525904Y-119394380D01*
X178430666Y-119346761D01*
X178383047Y-119299142D01*
X178335428Y-119203904D01*
X178335428Y-118918190D01*
X178383047Y-118822952D01*
X178430666Y-118775333D01*
X178525904Y-118727714D01*
X178716380Y-118727714D01*
X178811619Y-118775333D01*
X179240190Y-119394380D02*
X179240190Y-118727714D01*
X179240190Y-118822952D02*
X179287809Y-118775333D01*
X179383047Y-118727714D01*
X179525904Y-118727714D01*
X179621142Y-118775333D01*
X179668761Y-118870571D01*
X179668761Y-119394380D01*
X179668761Y-118870571D02*
X179716380Y-118775333D01*
X179811619Y-118727714D01*
X179954476Y-118727714D01*
X180049714Y-118775333D01*
X180097333Y-118870571D01*
X180097333Y-119394380D01*
X167350047Y-118489619D02*
X167397666Y-118442000D01*
X167492904Y-118394380D01*
X167731000Y-118394380D01*
X167826238Y-118442000D01*
X167873857Y-118489619D01*
X167921476Y-118584857D01*
X167921476Y-118680095D01*
X167873857Y-118822952D01*
X167302428Y-119394380D01*
X167921476Y-119394380D01*
X168778619Y-119346761D02*
X168683380Y-119394380D01*
X168492904Y-119394380D01*
X168397666Y-119346761D01*
X168350047Y-119299142D01*
X168302428Y-119203904D01*
X168302428Y-118918190D01*
X168350047Y-118822952D01*
X168397666Y-118775333D01*
X168492904Y-118727714D01*
X168683380Y-118727714D01*
X168778619Y-118775333D01*
X169207190Y-119394380D02*
X169207190Y-118727714D01*
X169207190Y-118822952D02*
X169254809Y-118775333D01*
X169350047Y-118727714D01*
X169492904Y-118727714D01*
X169588142Y-118775333D01*
X169635761Y-118870571D01*
X169635761Y-119394380D01*
X169635761Y-118870571D02*
X169683380Y-118775333D01*
X169778619Y-118727714D01*
X169921476Y-118727714D01*
X170016714Y-118775333D01*
X170064333Y-118870571D01*
X170064333Y-119394380D01*
X157888476Y-119394380D02*
X157317047Y-119394380D01*
X157602761Y-119394380D02*
X157602761Y-118394380D01*
X157507523Y-118537238D01*
X157412285Y-118632476D01*
X157317047Y-118680095D01*
X158745619Y-119346761D02*
X158650380Y-119394380D01*
X158459904Y-119394380D01*
X158364666Y-119346761D01*
X158317047Y-119299142D01*
X158269428Y-119203904D01*
X158269428Y-118918190D01*
X158317047Y-118822952D01*
X158364666Y-118775333D01*
X158459904Y-118727714D01*
X158650380Y-118727714D01*
X158745619Y-118775333D01*
X159174190Y-119394380D02*
X159174190Y-118727714D01*
X159174190Y-118822952D02*
X159221809Y-118775333D01*
X159317047Y-118727714D01*
X159459904Y-118727714D01*
X159555142Y-118775333D01*
X159602761Y-118870571D01*
X159602761Y-119394380D01*
X159602761Y-118870571D02*
X159650380Y-118775333D01*
X159745619Y-118727714D01*
X159888476Y-118727714D01*
X159983714Y-118775333D01*
X160031333Y-118870571D01*
X160031333Y-119394380D01*
D11*
X177017904Y-123022380D02*
X177113142Y-123022380D01*
X177208380Y-123070000D01*
X177256000Y-123117619D01*
X177303619Y-123212857D01*
X177351238Y-123403333D01*
X177351238Y-123641428D01*
X177303619Y-123831904D01*
X177256000Y-123927142D01*
X177208380Y-123974761D01*
X177113142Y-124022380D01*
X177017904Y-124022380D01*
X176922666Y-123974761D01*
X176875047Y-123927142D01*
X176827428Y-123831904D01*
X176779809Y-123641428D01*
X176779809Y-123403333D01*
X176827428Y-123212857D01*
X176875047Y-123117619D01*
X176922666Y-123070000D01*
X177017904Y-123022380D01*
X177779809Y-123927142D02*
X177827428Y-123974761D01*
X177779809Y-124022380D01*
X177732190Y-123974761D01*
X177779809Y-123927142D01*
X177779809Y-124022380D01*
X178208380Y-123117619D02*
X178256000Y-123070000D01*
X178351238Y-123022380D01*
X178589333Y-123022380D01*
X178684571Y-123070000D01*
X178732190Y-123117619D01*
X178779809Y-123212857D01*
X178779809Y-123308095D01*
X178732190Y-123450952D01*
X178160761Y-124022380D01*
X178779809Y-124022380D01*
X179684571Y-123022380D02*
X179208380Y-123022380D01*
X179160761Y-123498571D01*
X179208380Y-123450952D01*
X179303619Y-123403333D01*
X179541714Y-123403333D01*
X179636952Y-123450952D01*
X179684571Y-123498571D01*
X179732190Y-123593809D01*
X179732190Y-123831904D01*
X179684571Y-123927142D01*
X179636952Y-123974761D01*
X179541714Y-124022380D01*
X179303619Y-124022380D01*
X179208380Y-123974761D01*
X179160761Y-123927142D01*
X177494095Y-124772380D02*
X177589333Y-124772380D01*
X177684571Y-124820000D01*
X177732190Y-124867619D01*
X177779809Y-124962857D01*
X177827428Y-125153333D01*
X177827428Y-125391428D01*
X177779809Y-125581904D01*
X177732190Y-125677142D01*
X177684571Y-125724761D01*
X177589333Y-125772380D01*
X177494095Y-125772380D01*
X177398857Y-125724761D01*
X177351238Y-125677142D01*
X177303619Y-125581904D01*
X177256000Y-125391428D01*
X177256000Y-125153333D01*
X177303619Y-124962857D01*
X177351238Y-124867619D01*
X177398857Y-124820000D01*
X177494095Y-124772380D01*
X178256000Y-125677142D02*
X178303619Y-125724761D01*
X178256000Y-125772380D01*
X178208380Y-125724761D01*
X178256000Y-125677142D01*
X178256000Y-125772380D01*
X178636952Y-124772380D02*
X179256000Y-124772380D01*
X178922666Y-125153333D01*
X179065523Y-125153333D01*
X179160761Y-125200952D01*
X179208380Y-125248571D01*
X179256000Y-125343809D01*
X179256000Y-125581904D01*
X179208380Y-125677142D01*
X179160761Y-125724761D01*
X179065523Y-125772380D01*
X178779809Y-125772380D01*
X178684571Y-125724761D01*
X178636952Y-125677142D01*
X177494095Y-126522380D02*
X177589333Y-126522380D01*
X177684571Y-126570000D01*
X177732190Y-126617619D01*
X177779809Y-126712857D01*
X177827428Y-126903333D01*
X177827428Y-127141428D01*
X177779809Y-127331904D01*
X177732190Y-127427142D01*
X177684571Y-127474761D01*
X177589333Y-127522380D01*
X177494095Y-127522380D01*
X177398857Y-127474761D01*
X177351238Y-127427142D01*
X177303619Y-127331904D01*
X177256000Y-127141428D01*
X177256000Y-126903333D01*
X177303619Y-126712857D01*
X177351238Y-126617619D01*
X177398857Y-126570000D01*
X177494095Y-126522380D01*
X178256000Y-127427142D02*
X178303619Y-127474761D01*
X178256000Y-127522380D01*
X178208380Y-127474761D01*
X178256000Y-127427142D01*
X178256000Y-127522380D01*
X179160761Y-126855714D02*
X179160761Y-127522380D01*
X178922666Y-126474761D02*
X178684571Y-127189047D01*
X179303619Y-127189047D01*
X177494095Y-128272380D02*
X177589333Y-128272380D01*
X177684571Y-128320000D01*
X177732190Y-128367619D01*
X177779809Y-128462857D01*
X177827428Y-128653333D01*
X177827428Y-128891428D01*
X177779809Y-129081904D01*
X177732190Y-129177142D01*
X177684571Y-129224761D01*
X177589333Y-129272380D01*
X177494095Y-129272380D01*
X177398857Y-129224761D01*
X177351238Y-129177142D01*
X177303619Y-129081904D01*
X177256000Y-128891428D01*
X177256000Y-128653333D01*
X177303619Y-128462857D01*
X177351238Y-128367619D01*
X177398857Y-128320000D01*
X177494095Y-128272380D01*
X178256000Y-129177142D02*
X178303619Y-129224761D01*
X178256000Y-129272380D01*
X178208380Y-129224761D01*
X178256000Y-129177142D01*
X178256000Y-129272380D01*
X179208380Y-128272380D02*
X178732190Y-128272380D01*
X178684571Y-128748571D01*
X178732190Y-128700952D01*
X178827428Y-128653333D01*
X179065523Y-128653333D01*
X179160761Y-128700952D01*
X179208380Y-128748571D01*
X179256000Y-128843809D01*
X179256000Y-129081904D01*
X179208380Y-129177142D01*
X179160761Y-129224761D01*
X179065523Y-129272380D01*
X178827428Y-129272380D01*
X178732190Y-129224761D01*
X178684571Y-129177142D01*
X177208380Y-131022380D02*
X176636952Y-131022380D01*
X176922666Y-131022380D02*
X176922666Y-130022380D01*
X176827428Y-130165238D01*
X176732190Y-130260476D01*
X176636952Y-130308095D01*
X177636952Y-131022380D02*
X177636952Y-130355714D01*
X177636952Y-130450952D02*
X177684571Y-130403333D01*
X177779809Y-130355714D01*
X177922666Y-130355714D01*
X178017904Y-130403333D01*
X178065523Y-130498571D01*
X178065523Y-131022380D01*
X178065523Y-130498571D02*
X178113142Y-130403333D01*
X178208380Y-130355714D01*
X178351238Y-130355714D01*
X178446476Y-130403333D01*
X178494095Y-130498571D01*
X178494095Y-131022380D01*
X178970285Y-131022380D02*
X178970285Y-130355714D01*
X178970285Y-130450952D02*
X179017904Y-130403333D01*
X179113142Y-130355714D01*
X179256000Y-130355714D01*
X179351238Y-130403333D01*
X179398857Y-130498571D01*
X179398857Y-131022380D01*
X179398857Y-130498571D02*
X179446476Y-130403333D01*
X179541714Y-130355714D01*
X179684571Y-130355714D01*
X179779809Y-130403333D01*
X179827428Y-130498571D01*
X179827428Y-131022380D01*
D12*
%TO.C,G\u002A\u002A\u002A*%
G36*
X296408884Y-127606121D02*
G01*
X296686086Y-127646701D01*
X296929608Y-127738675D01*
X297184395Y-127893624D01*
X297495392Y-128123129D01*
X297504939Y-128130430D01*
X297827510Y-128377193D01*
X297801255Y-129922750D01*
X297790691Y-130416611D01*
X297777292Y-130849564D01*
X297762247Y-131194163D01*
X297746742Y-131422963D01*
X297732667Y-131508068D01*
X297621826Y-131533011D01*
X297356077Y-131554062D01*
X296949800Y-131571116D01*
X296417380Y-131584069D01*
X295773196Y-131592817D01*
X295031632Y-131597255D01*
X294207069Y-131597280D01*
X293313890Y-131592787D01*
X292366477Y-131583671D01*
X291379211Y-131569829D01*
X290747667Y-131558719D01*
X289817027Y-131538139D01*
X288825958Y-131511027D01*
X287811304Y-131478732D01*
X286809911Y-131442601D01*
X285858625Y-131403982D01*
X284994292Y-131364224D01*
X284253757Y-131324676D01*
X284101333Y-131315536D01*
X283173166Y-131264983D01*
X282105661Y-131218328D01*
X280928790Y-131176530D01*
X279672523Y-131140549D01*
X278366830Y-131111344D01*
X277052852Y-131090018D01*
X275959732Y-131074183D01*
X275031613Y-131057416D01*
X274264164Y-131039570D01*
X273653055Y-131020496D01*
X273193955Y-131000047D01*
X272882533Y-130978074D01*
X272714458Y-130954429D01*
X272681305Y-130940364D01*
X272634847Y-130820463D01*
X272571551Y-130575253D01*
X272501577Y-130246594D01*
X272463376Y-130042347D01*
X272398601Y-129663403D01*
X272387264Y-129571947D01*
X273010000Y-129571947D01*
X273036765Y-129758811D01*
X273144471Y-129848630D01*
X273374238Y-129873230D01*
X273399405Y-129873333D01*
X273619750Y-129837970D01*
X273725059Y-129717613D01*
X273726767Y-129712582D01*
X273985590Y-129712582D01*
X274012362Y-129761630D01*
X274136634Y-129778591D01*
X274389821Y-129773527D01*
X274487566Y-129769554D01*
X274769058Y-129751865D01*
X274968716Y-129728061D01*
X275042282Y-129704000D01*
X275119838Y-129680170D01*
X275323036Y-129658110D01*
X275608214Y-129642531D01*
X275613805Y-129642340D01*
X276198713Y-129620946D01*
X293922667Y-129620946D01*
X293940491Y-129934719D01*
X293991026Y-130103762D01*
X294069860Y-130119290D01*
X294134333Y-130042667D01*
X294239395Y-130000411D01*
X294465457Y-129970065D01*
X294764275Y-129958012D01*
X294774330Y-129958000D01*
X295100210Y-129952100D01*
X295284726Y-129911399D01*
X295355773Y-129801393D01*
X295341244Y-129587579D01*
X295287693Y-129323000D01*
X295245108Y-129176759D01*
X295166706Y-129098862D01*
X295005653Y-129064885D01*
X294768543Y-129052287D01*
X294384578Y-129044078D01*
X294138850Y-129066572D01*
X294000559Y-129140476D01*
X293938902Y-129286495D01*
X293923080Y-129525336D01*
X293922667Y-129620946D01*
X276198713Y-129620946D01*
X276225233Y-129619976D01*
X276685761Y-129598864D01*
X276740086Y-129595348D01*
X277505918Y-129595348D01*
X277590755Y-129577584D01*
X277606818Y-129571556D01*
X277710496Y-129504484D01*
X277711240Y-129466351D01*
X277621675Y-129475848D01*
X277559422Y-129524160D01*
X277505918Y-129595348D01*
X276740086Y-129595348D01*
X277013801Y-129577633D01*
X277227768Y-129554908D01*
X277346073Y-129529316D01*
X277380292Y-129510597D01*
X277319030Y-129492087D01*
X277112793Y-129475860D01*
X276785934Y-129462837D01*
X276362805Y-129453938D01*
X275867759Y-129450086D01*
X275778757Y-129450000D01*
X275208000Y-129450846D01*
X274783284Y-129454900D01*
X274481322Y-129464439D01*
X274278823Y-129481737D01*
X274152499Y-129509072D01*
X274079060Y-129548719D01*
X274035218Y-129602954D01*
X274024900Y-129621388D01*
X273985590Y-129712582D01*
X273726767Y-129712582D01*
X273729426Y-129704757D01*
X273749746Y-129510358D01*
X273641363Y-129394826D01*
X273461117Y-129341830D01*
X273190185Y-129327573D01*
X273044583Y-129418144D01*
X273010000Y-129571947D01*
X272387264Y-129571947D01*
X272366212Y-129402130D01*
X272366736Y-129209887D01*
X272400698Y-129038036D01*
X272468625Y-128837938D01*
X272476634Y-128816310D01*
X272567404Y-128589259D01*
X272643424Y-128476333D01*
X272671333Y-128476333D01*
X272713667Y-128518667D01*
X272756000Y-128476333D01*
X272713667Y-128434000D01*
X272671333Y-128476333D01*
X272643424Y-128476333D01*
X272660389Y-128451132D01*
X272803305Y-128363490D01*
X273043868Y-128287894D01*
X273175899Y-128252999D01*
X273507151Y-128184886D01*
X273817314Y-128151827D01*
X274004179Y-128157396D01*
X274205676Y-128172093D01*
X274302833Y-128112290D01*
X274337033Y-128022527D01*
X274377225Y-127928790D01*
X274462404Y-127874331D01*
X274631147Y-127848711D01*
X274922033Y-127841490D01*
X275006562Y-127841333D01*
X275332961Y-127846528D01*
X275532259Y-127869525D01*
X275646557Y-127921445D01*
X275717955Y-128013407D01*
X275727823Y-128031833D01*
X275807965Y-128181057D01*
X275881706Y-128264326D01*
X276006423Y-128325876D01*
X276199867Y-128395761D01*
X276313064Y-128440108D01*
X276351394Y-128471549D01*
X276296800Y-128492399D01*
X276131224Y-128504971D01*
X275836609Y-128511580D01*
X275394897Y-128514540D01*
X275269836Y-128514950D01*
X274724113Y-128511294D01*
X274344237Y-128496446D01*
X274127078Y-128470186D01*
X274069504Y-128432293D01*
X274070462Y-128430556D01*
X274185392Y-128378853D01*
X274308292Y-128388669D01*
X274425831Y-128414515D01*
X274397008Y-128387691D01*
X274294229Y-128333746D01*
X274099505Y-128275008D01*
X273934396Y-128334017D01*
X273804828Y-128384880D01*
X273772000Y-128350051D01*
X273701094Y-128280680D01*
X273602667Y-128264667D01*
X273454731Y-128288670D01*
X273456482Y-128350406D01*
X273596827Y-128434467D01*
X273770666Y-128498052D01*
X274006210Y-128542660D01*
X274374441Y-128576740D01*
X274838901Y-128597716D01*
X275261279Y-128603333D01*
X276016045Y-128622860D01*
X276637863Y-128685113D01*
X277158975Y-128795597D01*
X277611626Y-128959819D01*
X277756938Y-129029526D01*
X277964041Y-129115491D01*
X278105913Y-129138584D01*
X278128772Y-129129005D01*
X278216694Y-129140245D01*
X278303401Y-129226387D01*
X278344524Y-129273049D01*
X278404137Y-129308065D01*
X278502051Y-129331858D01*
X278658077Y-129344855D01*
X278892027Y-129347478D01*
X279223712Y-129340152D01*
X279672942Y-129323301D01*
X280259529Y-129297350D01*
X280688312Y-129277463D01*
X281506631Y-129235021D01*
X282176784Y-129191212D01*
X282693462Y-129146495D01*
X283051358Y-129101329D01*
X283243840Y-129056709D01*
X283510334Y-128985377D01*
X283832895Y-128945229D01*
X283936828Y-128942000D01*
X284237825Y-128921757D01*
X284508646Y-128870928D01*
X284582655Y-128846705D01*
X284820277Y-128789911D01*
X285118440Y-128765859D01*
X285201925Y-128767031D01*
X285492186Y-128756801D01*
X285902495Y-128713000D01*
X286388459Y-128642470D01*
X286905685Y-128552049D01*
X287409780Y-128448578D01*
X287677222Y-128385635D01*
X288036543Y-128319571D01*
X288455901Y-128275633D01*
X288738933Y-128264667D01*
X289126886Y-128245772D01*
X289529304Y-128196957D01*
X289777378Y-128147842D01*
X290099518Y-128082954D01*
X290504664Y-128023944D01*
X290906617Y-127983312D01*
X290917000Y-127982560D01*
X291340568Y-127946626D01*
X291833972Y-127896464D01*
X292299462Y-127842106D01*
X292356333Y-127834798D01*
X292818931Y-127784306D01*
X293331722Y-127743308D01*
X293792034Y-127719854D01*
X293838000Y-127718621D01*
X294231367Y-127705263D01*
X294721616Y-127682608D01*
X295236786Y-127654212D01*
X295573667Y-127632827D01*
X296053059Y-127605357D01*
X296408884Y-127606121D01*
G37*
X296408884Y-127606121D02*
X296686086Y-127646701D01*
X296929608Y-127738675D01*
X297184395Y-127893624D01*
X297495392Y-128123129D01*
X297504939Y-128130430D01*
X297827510Y-128377193D01*
X297801255Y-129922750D01*
X297790691Y-130416611D01*
X297777292Y-130849564D01*
X297762247Y-131194163D01*
X297746742Y-131422963D01*
X297732667Y-131508068D01*
X297621826Y-131533011D01*
X297356077Y-131554062D01*
X296949800Y-131571116D01*
X296417380Y-131584069D01*
X295773196Y-131592817D01*
X295031632Y-131597255D01*
X294207069Y-131597280D01*
X293313890Y-131592787D01*
X292366477Y-131583671D01*
X291379211Y-131569829D01*
X290747667Y-131558719D01*
X289817027Y-131538139D01*
X288825958Y-131511027D01*
X287811304Y-131478732D01*
X286809911Y-131442601D01*
X285858625Y-131403982D01*
X284994292Y-131364224D01*
X284253757Y-131324676D01*
X284101333Y-131315536D01*
X283173166Y-131264983D01*
X282105661Y-131218328D01*
X280928790Y-131176530D01*
X279672523Y-131140549D01*
X278366830Y-131111344D01*
X277052852Y-131090018D01*
X275959732Y-131074183D01*
X275031613Y-131057416D01*
X274264164Y-131039570D01*
X273653055Y-131020496D01*
X273193955Y-131000047D01*
X272882533Y-130978074D01*
X272714458Y-130954429D01*
X272681305Y-130940364D01*
X272634847Y-130820463D01*
X272571551Y-130575253D01*
X272501577Y-130246594D01*
X272463376Y-130042347D01*
X272398601Y-129663403D01*
X272387264Y-129571947D01*
X273010000Y-129571947D01*
X273036765Y-129758811D01*
X273144471Y-129848630D01*
X273374238Y-129873230D01*
X273399405Y-129873333D01*
X273619750Y-129837970D01*
X273725059Y-129717613D01*
X273726767Y-129712582D01*
X273985590Y-129712582D01*
X274012362Y-129761630D01*
X274136634Y-129778591D01*
X274389821Y-129773527D01*
X274487566Y-129769554D01*
X274769058Y-129751865D01*
X274968716Y-129728061D01*
X275042282Y-129704000D01*
X275119838Y-129680170D01*
X275323036Y-129658110D01*
X275608214Y-129642531D01*
X275613805Y-129642340D01*
X276198713Y-129620946D01*
X293922667Y-129620946D01*
X293940491Y-129934719D01*
X293991026Y-130103762D01*
X294069860Y-130119290D01*
X294134333Y-130042667D01*
X294239395Y-130000411D01*
X294465457Y-129970065D01*
X294764275Y-129958012D01*
X294774330Y-129958000D01*
X295100210Y-129952100D01*
X295284726Y-129911399D01*
X295355773Y-129801393D01*
X295341244Y-129587579D01*
X295287693Y-129323000D01*
X295245108Y-129176759D01*
X295166706Y-129098862D01*
X295005653Y-129064885D01*
X294768543Y-129052287D01*
X294384578Y-129044078D01*
X294138850Y-129066572D01*
X294000559Y-129140476D01*
X293938902Y-129286495D01*
X293923080Y-129525336D01*
X293922667Y-129620946D01*
X276198713Y-129620946D01*
X276225233Y-129619976D01*
X276685761Y-129598864D01*
X276740086Y-129595348D01*
X277505918Y-129595348D01*
X277590755Y-129577584D01*
X277606818Y-129571556D01*
X277710496Y-129504484D01*
X277711240Y-129466351D01*
X277621675Y-129475848D01*
X277559422Y-129524160D01*
X277505918Y-129595348D01*
X276740086Y-129595348D01*
X277013801Y-129577633D01*
X277227768Y-129554908D01*
X277346073Y-129529316D01*
X277380292Y-129510597D01*
X277319030Y-129492087D01*
X277112793Y-129475860D01*
X276785934Y-129462837D01*
X276362805Y-129453938D01*
X275867759Y-129450086D01*
X275778757Y-129450000D01*
X275208000Y-129450846D01*
X274783284Y-129454900D01*
X274481322Y-129464439D01*
X274278823Y-129481737D01*
X274152499Y-129509072D01*
X274079060Y-129548719D01*
X274035218Y-129602954D01*
X274024900Y-129621388D01*
X273985590Y-129712582D01*
X273726767Y-129712582D01*
X273729426Y-129704757D01*
X273749746Y-129510358D01*
X273641363Y-129394826D01*
X273461117Y-129341830D01*
X273190185Y-129327573D01*
X273044583Y-129418144D01*
X273010000Y-129571947D01*
X272387264Y-129571947D01*
X272366212Y-129402130D01*
X272366736Y-129209887D01*
X272400698Y-129038036D01*
X272468625Y-128837938D01*
X272476634Y-128816310D01*
X272567404Y-128589259D01*
X272643424Y-128476333D01*
X272671333Y-128476333D01*
X272713667Y-128518667D01*
X272756000Y-128476333D01*
X272713667Y-128434000D01*
X272671333Y-128476333D01*
X272643424Y-128476333D01*
X272660389Y-128451132D01*
X272803305Y-128363490D01*
X273043868Y-128287894D01*
X273175899Y-128252999D01*
X273507151Y-128184886D01*
X273817314Y-128151827D01*
X274004179Y-128157396D01*
X274205676Y-128172093D01*
X274302833Y-128112290D01*
X274337033Y-128022527D01*
X274377225Y-127928790D01*
X274462404Y-127874331D01*
X274631147Y-127848711D01*
X274922033Y-127841490D01*
X275006562Y-127841333D01*
X275332961Y-127846528D01*
X275532259Y-127869525D01*
X275646557Y-127921445D01*
X275717955Y-128013407D01*
X275727823Y-128031833D01*
X275807965Y-128181057D01*
X275881706Y-128264326D01*
X276006423Y-128325876D01*
X276199867Y-128395761D01*
X276313064Y-128440108D01*
X276351394Y-128471549D01*
X276296800Y-128492399D01*
X276131224Y-128504971D01*
X275836609Y-128511580D01*
X275394897Y-128514540D01*
X275269836Y-128514950D01*
X274724113Y-128511294D01*
X274344237Y-128496446D01*
X274127078Y-128470186D01*
X274069504Y-128432293D01*
X274070462Y-128430556D01*
X274185392Y-128378853D01*
X274308292Y-128388669D01*
X274425831Y-128414515D01*
X274397008Y-128387691D01*
X274294229Y-128333746D01*
X274099505Y-128275008D01*
X273934396Y-128334017D01*
X273804828Y-128384880D01*
X273772000Y-128350051D01*
X273701094Y-128280680D01*
X273602667Y-128264667D01*
X273454731Y-128288670D01*
X273456482Y-128350406D01*
X273596827Y-128434467D01*
X273770666Y-128498052D01*
X274006210Y-128542660D01*
X274374441Y-128576740D01*
X274838901Y-128597716D01*
X275261279Y-128603333D01*
X276016045Y-128622860D01*
X276637863Y-128685113D01*
X277158975Y-128795597D01*
X277611626Y-128959819D01*
X277756938Y-129029526D01*
X277964041Y-129115491D01*
X278105913Y-129138584D01*
X278128772Y-129129005D01*
X278216694Y-129140245D01*
X278303401Y-129226387D01*
X278344524Y-129273049D01*
X278404137Y-129308065D01*
X278502051Y-129331858D01*
X278658077Y-129344855D01*
X278892027Y-129347478D01*
X279223712Y-129340152D01*
X279672942Y-129323301D01*
X280259529Y-129297350D01*
X280688312Y-129277463D01*
X281506631Y-129235021D01*
X282176784Y-129191212D01*
X282693462Y-129146495D01*
X283051358Y-129101329D01*
X283243840Y-129056709D01*
X283510334Y-128985377D01*
X283832895Y-128945229D01*
X283936828Y-128942000D01*
X284237825Y-128921757D01*
X284508646Y-128870928D01*
X284582655Y-128846705D01*
X284820277Y-128789911D01*
X285118440Y-128765859D01*
X285201925Y-128767031D01*
X285492186Y-128756801D01*
X285902495Y-128713000D01*
X286388459Y-128642470D01*
X286905685Y-128552049D01*
X287409780Y-128448578D01*
X287677222Y-128385635D01*
X288036543Y-128319571D01*
X288455901Y-128275633D01*
X288738933Y-128264667D01*
X289126886Y-128245772D01*
X289529304Y-128196957D01*
X289777378Y-128147842D01*
X290099518Y-128082954D01*
X290504664Y-128023944D01*
X290906617Y-127983312D01*
X290917000Y-127982560D01*
X291340568Y-127946626D01*
X291833972Y-127896464D01*
X292299462Y-127842106D01*
X292356333Y-127834798D01*
X292818931Y-127784306D01*
X293331722Y-127743308D01*
X293792034Y-127719854D01*
X293838000Y-127718621D01*
X294231367Y-127705263D01*
X294721616Y-127682608D01*
X295236786Y-127654212D01*
X295573667Y-127632827D01*
X296053059Y-127605357D01*
X296408884Y-127606121D01*
G36*
X275273941Y-125759052D02*
G01*
X275302441Y-125870489D01*
X275314509Y-126098716D01*
X275308920Y-126358915D01*
X275300204Y-126659278D01*
X275320005Y-126836869D01*
X275379087Y-126937319D01*
X275457979Y-126990731D01*
X275602489Y-127087747D01*
X275604288Y-127153275D01*
X275455506Y-127191403D01*
X275148273Y-127206220D01*
X275042109Y-127206758D01*
X274749965Y-127204571D01*
X274538278Y-127199213D01*
X274449904Y-127191810D01*
X274449442Y-127191214D01*
X274520361Y-127087062D01*
X274689630Y-126983820D01*
X274890020Y-126917851D01*
X274969370Y-126910000D01*
X275223311Y-126910000D01*
X275210388Y-126423167D01*
X275202969Y-126067264D01*
X275205601Y-125853149D01*
X275220906Y-125753436D01*
X275251504Y-125740742D01*
X275273941Y-125759052D01*
G37*
X275273941Y-125759052D02*
X275302441Y-125870489D01*
X275314509Y-126098716D01*
X275308920Y-126358915D01*
X275300204Y-126659278D01*
X275320005Y-126836869D01*
X275379087Y-126937319D01*
X275457979Y-126990731D01*
X275602489Y-127087747D01*
X275604288Y-127153275D01*
X275455506Y-127191403D01*
X275148273Y-127206220D01*
X275042109Y-127206758D01*
X274749965Y-127204571D01*
X274538278Y-127199213D01*
X274449904Y-127191810D01*
X274449442Y-127191214D01*
X274520361Y-127087062D01*
X274689630Y-126983820D01*
X274890020Y-126917851D01*
X274969370Y-126910000D01*
X275223311Y-126910000D01*
X275210388Y-126423167D01*
X275202969Y-126067264D01*
X275205601Y-125853149D01*
X275220906Y-125753436D01*
X275251504Y-125740742D01*
X275273941Y-125759052D01*
G36*
X275370083Y-127301583D02*
G01*
X275562506Y-127370314D01*
X275631364Y-127497659D01*
X275634667Y-127555583D01*
X275625421Y-127657915D01*
X275573942Y-127717907D01*
X275444614Y-127746837D01*
X275201824Y-127755983D01*
X274999667Y-127756667D01*
X274660847Y-127749326D01*
X274462259Y-127723671D01*
X274375291Y-127674252D01*
X274364667Y-127635714D01*
X274437893Y-127427798D01*
X274645535Y-127299543D01*
X274969533Y-127256950D01*
X275370083Y-127301583D01*
G37*
X275370083Y-127301583D02*
X275562506Y-127370314D01*
X275631364Y-127497659D01*
X275634667Y-127555583D01*
X275625421Y-127657915D01*
X275573942Y-127717907D01*
X275444614Y-127746837D01*
X275201824Y-127755983D01*
X274999667Y-127756667D01*
X274660847Y-127749326D01*
X274462259Y-127723671D01*
X274375291Y-127674252D01*
X274364667Y-127635714D01*
X274437893Y-127427798D01*
X274645535Y-127299543D01*
X274969533Y-127256950D01*
X275370083Y-127301583D01*
%TD*%
D13*
%TO.C,UFBGA-201*%
X244960000Y-132390000D03*
X244310000Y-132390000D03*
X243660000Y-132390000D03*
X243010000Y-132390000D03*
X242360000Y-132390000D03*
X241710000Y-132390000D03*
X241060000Y-132390000D03*
X240410000Y-132390000D03*
X239760000Y-132390000D03*
X239110000Y-132390000D03*
X238460000Y-132390000D03*
X237810000Y-132390000D03*
X237160000Y-132390000D03*
X236510000Y-132390000D03*
X235860000Y-132390000D03*
X244960000Y-131740000D03*
X244310000Y-131740000D03*
X243660000Y-131740000D03*
X243010000Y-131740000D03*
X242360000Y-131740000D03*
X241710000Y-131740000D03*
X241060000Y-131740000D03*
X240410000Y-131740000D03*
X239760000Y-131740000D03*
X239110000Y-131740000D03*
X238460000Y-131740000D03*
X237810000Y-131740000D03*
X237160000Y-131740000D03*
X236510000Y-131740000D03*
X235860000Y-131740000D03*
X244960000Y-131090000D03*
X244310000Y-131090000D03*
X243660000Y-131090000D03*
X243010000Y-131090000D03*
X242360000Y-131090000D03*
X241710000Y-131090000D03*
X241060000Y-131090000D03*
X240410000Y-131090000D03*
X239760000Y-131090000D03*
X239110000Y-131090000D03*
X238460000Y-131090000D03*
X237810000Y-131090000D03*
X237160000Y-131090000D03*
X236510000Y-131090000D03*
X235860000Y-131090000D03*
X244960000Y-130440000D03*
X244310000Y-130440000D03*
X243660000Y-130440000D03*
X243010000Y-130440000D03*
X242360000Y-130440000D03*
X241710000Y-130440000D03*
X241060000Y-130440000D03*
X240410000Y-130440000D03*
X239760000Y-130440000D03*
X239110000Y-130440000D03*
X238460000Y-130440000D03*
X237810000Y-130440000D03*
X237160000Y-130440000D03*
X236510000Y-130440000D03*
X235860000Y-130440000D03*
X244960000Y-129790000D03*
X244310000Y-129790000D03*
X243660000Y-129790000D03*
X243010000Y-129790000D03*
X237810000Y-129790000D03*
X237160000Y-129790000D03*
X236510000Y-129790000D03*
X235860000Y-129790000D03*
X244960000Y-129140000D03*
X244310000Y-129140000D03*
X243660000Y-129140000D03*
X243010000Y-129140000D03*
X241710000Y-129140000D03*
X241060000Y-129140000D03*
X240410000Y-129140000D03*
X239760000Y-129140000D03*
X239110000Y-129140000D03*
X237810000Y-129140000D03*
X237160000Y-129140000D03*
X236510000Y-129140000D03*
X235860000Y-129140000D03*
X244960000Y-128490000D03*
X244310000Y-128490000D03*
X243660000Y-128490000D03*
X243010000Y-128490000D03*
X241710000Y-128490000D03*
X241060000Y-128490000D03*
X240410000Y-128490000D03*
X239760000Y-128490000D03*
X239110000Y-128490000D03*
X237810000Y-128490000D03*
X237160000Y-128490000D03*
X236510000Y-128490000D03*
X235860000Y-128490000D03*
X244960000Y-127840000D03*
X244310000Y-127840000D03*
X243660000Y-127840000D03*
X243010000Y-127840000D03*
X241710000Y-127840000D03*
X241060000Y-127840000D03*
X240410000Y-127840000D03*
X239760000Y-127840000D03*
X239110000Y-127840000D03*
X237810000Y-127840000D03*
X237160000Y-127840000D03*
X236510000Y-127840000D03*
X235860000Y-127840000D03*
X244960000Y-127190000D03*
X244310000Y-127190000D03*
X243660000Y-127190000D03*
X243010000Y-127190000D03*
X241710000Y-127190000D03*
X241060000Y-127190000D03*
X240410000Y-127190000D03*
X239760000Y-127190000D03*
X239110000Y-127190000D03*
X237810000Y-127190000D03*
X237160000Y-127190000D03*
X236510000Y-127190000D03*
X235860000Y-127190000D03*
X244960000Y-126540000D03*
X244310000Y-126540000D03*
X243660000Y-126540000D03*
X243010000Y-126540000D03*
X241710000Y-126540000D03*
X241060000Y-126540000D03*
X240410000Y-126540000D03*
X239760000Y-126540000D03*
X239110000Y-126540000D03*
X237810000Y-126540000D03*
X237160000Y-126540000D03*
X236510000Y-126540000D03*
X235860000Y-126540000D03*
X244960000Y-125890000D03*
X244310000Y-125890000D03*
X243660000Y-125890000D03*
X243010000Y-125890000D03*
X237810000Y-125890000D03*
X237160000Y-125890000D03*
X236510000Y-125890000D03*
X235860000Y-125890000D03*
X244960000Y-125240000D03*
X244310000Y-125240000D03*
X243660000Y-125240000D03*
X243010000Y-125240000D03*
X242360000Y-125240000D03*
X241710000Y-125240000D03*
X241060000Y-125240000D03*
X240410000Y-125240000D03*
X239760000Y-125240000D03*
X239110000Y-125240000D03*
X238460000Y-125240000D03*
X237810000Y-125240000D03*
X237160000Y-125240000D03*
X236510000Y-125240000D03*
X235860000Y-125240000D03*
X244960000Y-124590000D03*
X244310000Y-124590000D03*
X243660000Y-124590000D03*
X243010000Y-124590000D03*
X242360000Y-124590000D03*
X241710000Y-124590000D03*
X241060000Y-124590000D03*
X240410000Y-124590000D03*
X239760000Y-124590000D03*
X239110000Y-124590000D03*
X238460000Y-124590000D03*
X237810000Y-124590000D03*
X237160000Y-124590000D03*
X236510000Y-124590000D03*
X235860000Y-124590000D03*
X244960000Y-123940000D03*
X244310000Y-123940000D03*
X243660000Y-123940000D03*
X243010000Y-123940000D03*
X242360000Y-123940000D03*
X241710000Y-123940000D03*
X241060000Y-123940000D03*
X240410000Y-123940000D03*
X239760000Y-123940000D03*
X239110000Y-123940000D03*
X238460000Y-123940000D03*
X237810000Y-123940000D03*
X237160000Y-123940000D03*
X236510000Y-123940000D03*
X235860000Y-123940000D03*
X244960000Y-123290000D03*
X244310000Y-123290000D03*
X243660000Y-123290000D03*
X243010000Y-123290000D03*
X242360000Y-123290000D03*
X241710000Y-123290000D03*
X241060000Y-123290000D03*
X240410000Y-123290000D03*
X239760000Y-123290000D03*
X239110000Y-123290000D03*
X238460000Y-123290000D03*
X237810000Y-123290000D03*
X237160000Y-123290000D03*
X236510000Y-123290000D03*
X235860000Y-123290000D03*
%TD*%
D14*
%TO.C,SOIC-8*%
X228710000Y-125535000D03*
X228710000Y-126805000D03*
X228710000Y-128075000D03*
X228710000Y-129345000D03*
X223310000Y-129345000D03*
X223310000Y-128075000D03*
X223310000Y-126805000D03*
X223310000Y-125535000D03*
%TD*%
D15*
%TO.C,QFP-64*%
X254010000Y-123890000D03*
X254010000Y-124390000D03*
X254010000Y-124890000D03*
X254010000Y-125390000D03*
X254010000Y-125890000D03*
X254010000Y-126390000D03*
X254010000Y-126890000D03*
X254010000Y-127390000D03*
X254010000Y-127890000D03*
X254010000Y-128390000D03*
X254010000Y-128890000D03*
X254010000Y-129390000D03*
X254010000Y-129890000D03*
X254010000Y-130390000D03*
X254010000Y-130890000D03*
X254010000Y-131390000D03*
D16*
X255960000Y-133340000D03*
X256460000Y-133340000D03*
X256960000Y-133340000D03*
X257460000Y-133340000D03*
X257960000Y-133340000D03*
X258460000Y-133340000D03*
X258960000Y-133340000D03*
X259460000Y-133340000D03*
X259960000Y-133340000D03*
X260460000Y-133340000D03*
X260960000Y-133340000D03*
X261460000Y-133340000D03*
X261960000Y-133340000D03*
X262460000Y-133340000D03*
X262960000Y-133340000D03*
X263460000Y-133340000D03*
D15*
X265410000Y-131390000D03*
X265410000Y-130890000D03*
X265410000Y-130390000D03*
X265410000Y-129890000D03*
X265410000Y-129390000D03*
X265410000Y-128890000D03*
X265410000Y-128390000D03*
X265410000Y-127890000D03*
X265410000Y-127390000D03*
X265410000Y-126890000D03*
X265410000Y-126390000D03*
X265410000Y-125890000D03*
X265410000Y-125390000D03*
X265410000Y-124890000D03*
X265410000Y-124390000D03*
X265410000Y-123890000D03*
D16*
X263460000Y-121940000D03*
X262960000Y-121940000D03*
X262460000Y-121940000D03*
X261960000Y-121940000D03*
X261460000Y-121940000D03*
X260960000Y-121940000D03*
X260460000Y-121940000D03*
X259960000Y-121940000D03*
X259460000Y-121940000D03*
X258960000Y-121940000D03*
X258460000Y-121940000D03*
X257960000Y-121940000D03*
X257460000Y-121940000D03*
X256960000Y-121940000D03*
X256460000Y-121940000D03*
X255960000Y-121940000D03*
%TD*%
D17*
%TO.C,SOT-223*%
X208960000Y-127240000D03*
D18*
X215260000Y-127240000D03*
X215260000Y-124940000D03*
X215260000Y-129540000D03*
%TD*%
D19*
%TO.C,SOT-23-5*%
X193920000Y-128660000D03*
X193920000Y-129610000D03*
X193920000Y-130560000D03*
X196120000Y-130560000D03*
X196120000Y-128660000D03*
%TD*%
D20*
%TO.C,SOT-23*%
X195820000Y-124530000D03*
X193820000Y-125480000D03*
X193820000Y-123580000D03*
%TD*%
D21*
%TO.C,6mm*%
X189650000Y-123090000D03*
X185150000Y-123090000D03*
X185150000Y-131050000D03*
X189650000Y-131050000D03*
%TD*%
%TO.C,1206*%
G36*
G01*
X160244456Y-127707000D02*
X158929544Y-127707000D01*
G75*
G02*
X158662000Y-127439456I0J267544D01*
G01*
X158662000Y-126449544D01*
G75*
G02*
X158929544Y-126182000I267544J0D01*
G01*
X160244456Y-126182000D01*
G75*
G02*
X160512000Y-126449544I0J-267544D01*
G01*
X160512000Y-127439456D01*
G75*
G02*
X160244456Y-127707000I-267544J0D01*
G01*
G37*
G36*
G01*
X160244456Y-130682000D02*
X158929544Y-130682000D01*
G75*
G02*
X158662000Y-130414456I0J267544D01*
G01*
X158662000Y-129424544D01*
G75*
G02*
X158929544Y-129157000I267544J0D01*
G01*
X160244456Y-129157000D01*
G75*
G02*
X160512000Y-129424544I0J-267544D01*
G01*
X160512000Y-130414456D01*
G75*
G02*
X160244456Y-130682000I-267544J0D01*
G01*
G37*
%TD*%
%TO.C,0805*%
G36*
G01*
X157189928Y-127432000D02*
X156233404Y-127432000D01*
G75*
G02*
X155961666Y-127160262I0J271738D01*
G01*
X155961666Y-126453738D01*
G75*
G02*
X156233404Y-126182000I271738J0D01*
G01*
X157189928Y-126182000D01*
G75*
G02*
X157461666Y-126453738I0J-271738D01*
G01*
X157461666Y-127160262D01*
G75*
G02*
X157189928Y-127432000I-271738J0D01*
G01*
G37*
G36*
G01*
X157189928Y-129482000D02*
X156233404Y-129482000D01*
G75*
G02*
X155961666Y-129210262I0J271738D01*
G01*
X155961666Y-128503738D01*
G75*
G02*
X156233404Y-128232000I271738J0D01*
G01*
X157189928Y-128232000D01*
G75*
G02*
X157461666Y-128503738I0J-271738D01*
G01*
X157461666Y-129210262D01*
G75*
G02*
X157189928Y-129482000I-271738J0D01*
G01*
G37*
%TD*%
%TO.C,0402*%
G36*
G01*
X152418500Y-126772000D02*
X152023500Y-126772000D01*
G75*
G02*
X151851000Y-126599500I0J172500D01*
G01*
X151851000Y-126254500D01*
G75*
G02*
X152023500Y-126082000I172500J0D01*
G01*
X152418500Y-126082000D01*
G75*
G02*
X152591000Y-126254500I0J-172500D01*
G01*
X152591000Y-126599500D01*
G75*
G02*
X152418500Y-126772000I-172500J0D01*
G01*
G37*
G36*
G01*
X152418500Y-127742000D02*
X152023500Y-127742000D01*
G75*
G02*
X151851000Y-127569500I0J172500D01*
G01*
X151851000Y-127224500D01*
G75*
G02*
X152023500Y-127052000I172500J0D01*
G01*
X152418500Y-127052000D01*
G75*
G02*
X152591000Y-127224500I0J-172500D01*
G01*
X152591000Y-127569500D01*
G75*
G02*
X152418500Y-127742000I-172500J0D01*
G01*
G37*
%TD*%
%TO.C,0603*%
G36*
G01*
X154488833Y-127332000D02*
X153963833Y-127332000D01*
G75*
G02*
X153701333Y-127069500I0J262500D01*
G01*
X153701333Y-126444500D01*
G75*
G02*
X153963833Y-126182000I262500J0D01*
G01*
X154488833Y-126182000D01*
G75*
G02*
X154751333Y-126444500I0J-262500D01*
G01*
X154751333Y-127069500D01*
G75*
G02*
X154488833Y-127332000I-262500J0D01*
G01*
G37*
G36*
G01*
X154488833Y-129082000D02*
X153963833Y-129082000D01*
G75*
G02*
X153701333Y-128819500I0J262500D01*
G01*
X153701333Y-128194500D01*
G75*
G02*
X153963833Y-127932000I262500J0D01*
G01*
X154488833Y-127932000D01*
G75*
G02*
X154751333Y-128194500I0J-262500D01*
G01*
X154751333Y-128819500D01*
G75*
G02*
X154488833Y-129082000I-262500J0D01*
G01*
G37*
%TD*%
D22*
G36*
X175081000Y-123895000D02*
G01*
X163905000Y-123895000D01*
X163905000Y-123641000D01*
X175081000Y-123641000D01*
X175081000Y-123895000D01*
G37*
X175081000Y-123895000D02*
X163905000Y-123895000D01*
X163905000Y-123641000D01*
X175081000Y-123641000D01*
X175081000Y-123895000D01*
G36*
X175081000Y-125673000D02*
G01*
X163905000Y-125673000D01*
X163905000Y-125419000D01*
X175081000Y-125419000D01*
X175081000Y-125673000D01*
G37*
X175081000Y-125673000D02*
X163905000Y-125673000D01*
X163905000Y-125419000D01*
X175081000Y-125419000D01*
X175081000Y-125673000D01*
G36*
X175081000Y-127451000D02*
G01*
X163905000Y-127451000D01*
X163905000Y-127197000D01*
X175081000Y-127197000D01*
X175081000Y-127451000D01*
G37*
X175081000Y-127451000D02*
X163905000Y-127451000D01*
X163905000Y-127197000D01*
X175081000Y-127197000D01*
X175081000Y-127451000D01*
G36*
X175081000Y-128975000D02*
G01*
X163905000Y-128975000D01*
X163905000Y-128721000D01*
X175081000Y-128721000D01*
X175081000Y-128975000D01*
G37*
X175081000Y-128975000D02*
X163905000Y-128975000D01*
X163905000Y-128721000D01*
X175081000Y-128721000D01*
X175081000Y-128975000D01*
G36*
X175335000Y-131007000D02*
G01*
X163651000Y-131007000D01*
X163651000Y-130245000D01*
X175335000Y-130245000D01*
X175335000Y-131007000D01*
G37*
X175335000Y-131007000D02*
X163651000Y-131007000D01*
X163651000Y-130245000D01*
X175335000Y-130245000D01*
X175335000Y-131007000D01*
M02*
